<svg width="140" height="108" viewBox="0 0 140 108" fill="none" xmlns="http://www.w3.org/2000/svg">
<ellipse cx="60.3282" cy="102.535" rx="4.32822" ry="4.53496" fill="#FFDFA7"/>
<ellipse rx="49.0403" ry="46.0252" transform="matrix(-1 0 0 1 90.9597 46.0252)" fill="#ED5564"/>
<ellipse rx="19.4818" ry="18.284" transform="matrix(-1 0 0 1 19.4818 84.716)" fill="#ED5564"/>
<path d="M100.993 27.3666V89.0183C100.993 90.8782 99.485 92.3849 97.6251 92.3849H51.0592C49.1993 92.3849 47.6926 90.8783 47.6926 89.0183V27.3666C47.6926 25.5081 49.1993 24 51.0592 24H97.6251C99.4852 24 100.993 25.5081 100.993 27.3666Z" fill="#FFDFA7"/>
<path d="M94.4624 33.0472V42.3686C94.4624 42.8734 94.0533 43.2826 93.5484 43.2826H55.1371C54.6323 43.2826 54.2231 42.8734 54.2231 42.3686V33.0472C54.2231 32.5423 54.6323 32.1332 55.1371 32.1332H93.5484C94.0533 32.1332 94.4624 32.5425 94.4624 33.0472Z" fill="#57D3D0"/>
<path d="M82.1631 32.1332L71.0152 43.2826H61.482L72.6314 32.1332H82.1631Z" fill="#8CE5E1"/>
<path d="M90.8263 32.1332L79.6754 43.2826H73.8654L85.0163 32.1332H90.8263Z" fill="#8CE5E1"/>
<path d="M59.4331 54.888H56.6246C55.428 54.888 54.4578 53.9179 54.4578 52.7212C54.4578 51.5246 55.4279 50.5544 56.6246 50.5544H59.4331C60.6297 50.5544 61.5999 51.5245 61.5999 52.7212C61.5999 53.9179 60.6299 54.888 59.4331 54.888Z" fill="#ED6294"/>
<path d="M70.309 54.888H67.5005C66.3039 54.888 65.3337 53.9179 65.3337 52.7212C65.3337 51.5246 66.3037 50.5544 67.5005 50.5544H70.309C71.5056 50.5544 72.4758 51.5245 72.4758 52.7212C72.4758 53.9179 71.5056 54.888 70.309 54.888Z" fill="#ED6294"/>
<path d="M81.1847 54.888H78.3762C77.1796 54.888 76.2094 53.9179 76.2094 52.7212C76.2094 51.5246 77.1795 50.5544 78.3762 50.5544H81.1847C82.3813 50.5544 83.3515 51.5245 83.3515 52.7212C83.3515 53.9179 82.3815 54.888 81.1847 54.888Z" fill="#ED6294"/>
<path d="M92.0606 54.888H89.252C88.0555 54.888 87.0853 53.9179 87.0853 52.7212C87.0853 51.5246 88.0553 50.5544 89.252 50.5544H92.0606C93.2572 50.5544 94.2274 51.5245 94.2274 52.7212C94.2274 53.9179 93.2572 54.888 92.0606 54.888Z" fill="#ED6294"/>
<path d="M59.4331 65.9175H56.6246C55.428 65.9175 54.4578 64.9474 54.4578 63.7507C54.4578 62.5541 55.4279 61.5839 56.6246 61.5839H59.4331C60.6297 61.5839 61.5999 62.554 61.5999 63.7507C61.5999 64.9474 60.6299 65.9175 59.4331 65.9175Z" fill="#697491"/>
<path d="M70.309 65.9175H67.5005C66.3039 65.9175 65.3337 64.9474 65.3337 63.7507C65.3337 62.5541 66.3037 61.5839 67.5005 61.5839H70.309C71.5056 61.5839 72.4758 62.554 72.4758 63.7507C72.4758 64.9474 71.5056 65.9175 70.309 65.9175Z" fill="#697491"/>
<path d="M83.3514 63.7503C83.3514 64.349 83.1092 64.8913 82.7161 65.2828C82.3245 65.6759 81.7823 65.9181 81.1852 65.9181H78.3762C77.1804 65.9181 76.21 64.9477 76.21 63.7504C76.21 63.1533 76.4522 62.6109 76.8453 62.2195C77.2369 61.8264 77.7791 61.5842 78.3762 61.5842H81.1852C82.381 61.5841 83.3514 62.5546 83.3514 63.7503Z" fill="#697491"/>
<path d="M80.9308 61.5841V65.9181H78.3761C77.1803 65.9181 76.21 64.9477 76.21 63.7504C76.21 63.1533 76.4522 62.6109 76.8452 62.2195C77.2368 61.8265 77.779 61.5843 78.3761 61.5843H80.9308V61.5841Z" fill="#576384"/>
<path d="M92.0606 65.9175H89.252C88.0555 65.9175 87.0853 64.9474 87.0853 63.7507C87.0853 62.5541 88.0553 61.5839 89.252 61.5839H92.0606C93.2572 61.5839 94.2274 62.554 94.2274 63.7507C94.2274 64.9474 93.2572 65.9175 92.0606 65.9175Z" fill="#697491"/>
<path d="M59.4331 74.7803H56.6246C55.428 74.7803 54.4578 73.8103 54.4578 72.6135C54.4578 71.417 55.4279 70.4468 56.6246 70.4468H59.4331C60.6297 70.4468 61.5999 71.4168 61.5999 72.6135C61.5999 73.8103 60.6299 74.7803 59.4331 74.7803Z" fill="#697491"/>
<path d="M70.309 74.7803H67.5005C66.3039 74.7803 65.3337 73.8103 65.3337 72.6135C65.3337 71.417 66.3037 70.4468 67.5005 70.4468H70.309C71.5056 70.4468 72.4758 71.4168 72.4758 72.6135C72.4758 73.8103 71.5056 74.7803 70.309 74.7803Z" fill="#697491"/>
<path d="M83.3514 72.6131C83.3514 73.2119 83.1092 73.7541 82.7161 74.1457C82.3245 74.5387 81.7823 74.7809 81.1852 74.7809H78.3762C77.1804 74.7809 76.21 73.8106 76.21 72.6133C76.21 72.0162 76.4522 71.4738 76.8453 71.0823C77.2369 70.6893 77.7791 70.4471 78.3762 70.4471H81.1852C82.381 70.4469 83.3514 71.4173 83.3514 72.6131Z" fill="#697491"/>
<path d="M78.3759 70.447H80.9305V74.781H78.3759C77.1801 74.781 76.2097 73.8106 76.2097 72.6133C76.2097 72.0162 76.4519 71.4738 76.845 71.0824C77.2365 70.6892 77.7788 70.447 78.3759 70.447Z" fill="#576384"/>
<path d="M92.0606 74.7803H89.252C88.0555 74.7803 87.0853 73.8103 87.0853 72.6135C87.0853 71.417 88.0553 70.4468 89.252 70.4468H92.0606C93.2572 70.4468 94.2274 71.4168 94.2274 72.6135C94.2274 73.8103 93.2572 74.7803 92.0606 74.7803Z" fill="#697491"/>
<path d="M59.4331 83.6432H56.6246C55.428 83.6432 54.4578 82.6731 54.4578 81.4764C54.4578 80.2798 55.4279 79.3096 56.6246 79.3096H59.4331C60.6297 79.3096 61.5999 80.2797 61.5999 81.4764C61.5999 82.673 60.6299 83.6432 59.4331 83.6432Z" fill="#697491"/>
<path d="M70.309 83.6432H67.5005C66.3039 83.6432 65.3337 82.6731 65.3337 81.4764C65.3337 80.2798 66.3037 79.3096 67.5005 79.3096H70.309C71.5056 79.3096 72.4758 80.2797 72.4758 81.4764C72.4758 82.673 71.5056 83.6432 70.309 83.6432Z" fill="#697491"/>
<path d="M83.3514 81.476C83.3514 82.0747 83.1092 82.6169 82.7161 83.0085C82.3245 83.4016 81.7823 83.6438 81.1852 83.6438H78.3762C77.1804 83.6438 76.21 82.6734 76.21 81.4761C76.21 80.879 76.4522 80.3366 76.8453 79.9452C77.2369 79.5521 77.7791 79.3099 78.3762 79.3099H81.1852C82.381 79.3098 83.3514 80.2801 83.3514 81.476Z" fill="#697491"/>
<path d="M78.3759 79.3098H80.9305V83.6438H78.3759C77.1801 83.6438 76.2097 82.6735 76.2097 81.4761C76.2097 80.879 76.4519 80.3366 76.845 79.9452C77.2365 79.552 77.7788 79.3098 78.3759 79.3098Z" fill="#576384"/>
<path d="M92.0605 83.6432H89.252C88.0554 83.6432 87.0852 82.6732 87.0852 81.4765C87.0852 80.2799 88.0552 79.3097 89.252 79.3097H92.0605C93.2571 79.3097 94.2273 80.2797 94.2273 81.4765C94.2273 82.6731 93.2571 83.6432 92.0605 83.6432Z" fill="#697491"/>
<path d="M104.85 45.8669H111.827C112.967 45.8669 113.891 44.943 113.891 43.8034C113.891 42.6638 112.967 41.7399 111.827 41.7399H104.85C103.71 41.7399 102.786 42.6638 102.786 43.8034C102.786 44.943 103.71 45.8669 104.85 45.8669Z" fill="#9EAFC6"/>
<path d="M104.85 39.4725H111.827C112.967 39.4725 113.891 38.5486 113.891 37.409C113.891 36.2694 112.967 35.3455 111.827 35.3455H104.85C103.71 35.3455 102.786 36.2694 102.786 37.409C102.786 38.5486 103.71 39.4725 104.85 39.4725Z" fill="#9EAFC6"/>
<path d="M104.785 32.0758C104.788 32.0758 104.792 32.0758 104.795 32.0758L104.822 32.0755C105.933 32.0701 106.83 31.1618 106.824 30.0469C106.819 28.9354 105.919 28.0379 104.812 28.0379C104.809 28.0379 104.805 28.0379 104.802 28.0379C103.691 28.0434 102.781 28.9516 102.786 30.0668C102.792 31.1783 103.678 32.0758 104.785 32.0758Z" fill="#00BDC6"/>
<path d="M26.2668 60.1575H61.5208V85.8049H26.2668V60.1575Z" fill="#95A5A5"/>
<path d="M58.3261 61.6537H64.3105V84.0243H58.3261V61.6537Z" fill="#D1D4D1"/>
<path d="M29.2588 83.6259H23.2745V62.4368H29.2588V83.6259Z" fill="#D1D4D1"/>
<path d="M56.616 59.7301H66.0199V61.8675C66.0199 62.8118 65.2546 63.5771 64.3103 63.5771H58.326C57.3813 63.5771 56.616 62.8118 56.616 61.8675V59.7301Z" fill="#BDC3C7"/>
<path d="M58.326 82.3851H64.3103C65.2546 82.3851 66.0199 83.1508 66.0199 84.095V86.2324H56.616V84.095C56.616 83.1508 57.3813 82.3851 58.326 82.3851Z" fill="#BDC3C7"/>
<path d="M29.2588 63.5771H23.2744C22.3302 63.5771 21.5649 62.8118 21.5649 61.8675V59.7301H30.9687V61.8675C30.9687 62.8118 30.2034 63.5771 29.2588 63.5771Z" fill="#BDC3C7"/>
<path d="M30.9688 86.2324H21.5649V84.095C21.5649 83.1508 22.3302 82.3851 23.2745 82.3851H29.2589C30.2035 82.3851 30.9688 83.1508 30.9688 84.095V86.2324Z" fill="#BDC3C7"/>
<path d="M20.71 55.6266H67.7299V59.3026C67.7299 59.7747 67.3471 60.1575 66.8749 60.1575H21.5649C21.0928 60.1575 20.71 59.7747 20.71 59.3026V55.6266Z" fill="#285680"/>
<path d="M21.5649 85.8049H66.8749C67.3471 85.8049 67.7299 86.1878 67.7299 86.6599V90.9343H20.71V86.6599C20.71 86.1878 21.0928 85.8049 21.5649 85.8049V85.8049Z" fill="#285680"/>
<path d="M67.7299 56.7381H19.855C19.3828 56.7381 19 56.3552 19 55.8831V51.3836C18.9996 51.0098 19.2421 50.6792 19.5985 50.5672L43.0324 43.2955C43.5276 43.1415 44.0572 43.1415 44.5524 43.2955L67.9864 50.5672C68.3427 50.6792 68.5852 51.0098 68.5848 51.3836V55.8831C68.5848 56.3552 68.202 56.7381 67.7299 56.7381V56.7381Z" fill="#4482C3"/>
<path d="M22.4194 53.3183V53.2729L43.5359 46.7184C43.7008 46.6673 43.8771 46.6673 44.0421 46.7184L65.1653 53.2729V53.3183H22.4194Z" fill="#285680"/>
<path d="M19.855 89.2244H67.7299C68.202 89.2244 68.5848 89.6073 68.5848 90.0794V91.7893C68.5848 92.2614 68.202 92.6443 67.7299 92.6443H19.855C19.3828 92.6443 19 92.2614 19 91.7893V90.0794C19 89.6073 19.3828 89.2244 19.855 89.2244Z" fill="#4482C3"/>
<path d="M52.4333 72.5181C52.4333 75.1282 51.2707 77.4669 49.4357 79.0446C47.9307 80.3386 45.9715 81.1208 43.8306 81.1208C41.6896 81.1208 39.7306 80.3386 38.2255 79.0446C36.3905 77.4669 35.2278 75.1282 35.2278 72.5181C35.2278 69.908 36.3905 67.5694 38.2255 65.9916C39.7304 64.6977 41.6896 63.9155 43.8306 63.9155C45.9715 63.9155 47.9306 64.6977 49.4357 65.9916C51.2707 67.5694 52.4333 69.908 52.4333 72.5181Z" fill="#FFD243"/>
<path d="M46.247 74.0338C46.247 72.7103 45.1992 71.6268 43.8895 71.5695C43.8663 71.5679 43.8428 71.5672 43.8191 71.5672C43.5842 71.5672 43.3931 71.3761 43.3931 71.1411C43.3931 70.9062 43.5843 70.7151 43.8191 70.7151C43.9478 70.7151 44.0683 70.7725 44.15 70.8726C44.5063 71.3092 45.1486 71.3747 45.5856 71.0184C46.0223 70.6623 46.0876 70.0195 45.7315 69.5828C45.487 69.283 45.181 69.0502 44.8395 68.8951V68.8279C44.8395 68.2644 44.3826 67.8076 43.8191 67.8076C43.2555 67.8076 42.7988 68.2644 42.7988 68.8279V68.8979C41.947 69.287 41.3524 70.145 41.3524 71.141C41.3524 72.4645 42.4001 73.548 43.7098 73.6053C43.733 73.6069 43.7565 73.6076 43.7802 73.6076C44.0151 73.6076 44.2062 73.7987 44.2062 74.0337C44.2062 74.2686 44.015 74.4597 43.7802 74.4597C43.6516 74.4597 43.531 74.4023 43.4494 74.3022C43.0931 73.8656 42.4507 73.8002 42.0137 74.1564C41.577 74.5125 41.5118 75.1553 41.8678 75.592C42.1216 75.9031 42.4415 76.142 42.7987 76.297V76.3469C42.7987 76.9104 43.2555 77.3672 43.819 77.3672C44.3826 77.3672 44.8393 76.9104 44.8393 76.3469V76.2581C45.6703 75.8609 46.247 75.0145 46.247 74.0338Z" fill="#EFAE2E"/>
<rect x="74" y="15" width="30" height="2" fill="#175A7F"/>
</svg>
