<svg width="140" height="103" viewBox="0 0 140 103" fill="none" xmlns="http://www.w3.org/2000/svg">
<ellipse rx="45.2941" ry="45.5577" transform="matrix(1 0 0 -1 45.2941 57.4423)" fill="#A0D37D"/>
<ellipse cx="119.633" cy="20.5313" rx="20.3675" ry="20.5313" fill="#A0D37D"/>
<circle r="4.09357" transform="matrix(-1 0 0 1 97.0936 88.0936)" fill="#D0F4EF"/>
<path d="M118.224 75.482H54.0345C53.0533 75.482 52.2589 74.6845 52.2589 73.7016V20.7969C52.2589 17.6778 54.7808 15.15 57.8925 15.15H114.366C117.478 15.15 120 17.6778 120 20.7969V73.7016C120 74.6851 119.205 75.482 118.224 75.482Z" fill="#D0F4EF"/>
<path d="M120 20.7969V73.701C120 74.6845 119.237 75.482 118.295 75.482H113.121C114.063 75.482 114.827 74.6845 114.827 73.701V20.7969C114.827 17.6767 112.404 15.15 109.415 15.15H114.59C117.578 15.15 120 17.6767 120 20.7969V20.7969Z" fill="#ABE0DA"/>
<path d="M120 20.5901V28.9099H52.2589V20.5901C52.2589 17.5842 54.7819 15.15 57.8942 15.15H114.368C117.479 15.15 120 17.5842 120 20.5901Z" fill="#F72B2B"/>
<path d="M120 20.5901V28.9099H114.827V20.5901C114.827 17.5842 112.404 15.15 109.415 15.15H114.59C117.578 15.15 120 17.5842 120 20.5901Z" fill="#D61B1F"/>
<path d="M63.7064 35.88H59.8394C59.2245 35.88 58.7266 35.3816 58.7266 34.7673C58.7266 34.153 59.2245 33.6545 59.8394 33.6545H63.7064C64.3213 33.6545 64.8192 34.153 64.8192 34.7673C64.8192 35.3816 64.3213 35.88 63.7064 35.88Z" fill="#628FB1"/>
<path d="M75.5929 35.88H71.7252C71.1109 35.88 70.6125 35.3816 70.6125 34.7673C70.6125 34.153 71.1109 33.6545 71.7252 33.6545H75.5929C76.2072 33.6545 76.7056 34.153 76.7056 34.7673C76.7056 35.3816 76.2072 35.88 75.5929 35.88Z" fill="#628FB1"/>
<path d="M87.4787 35.88H83.6111C82.9968 35.88 82.4989 35.3816 82.4989 34.7673C82.4989 34.153 82.9968 33.6545 83.6111 33.6545H87.4787C88.0936 33.6545 88.5915 34.153 88.5915 34.7673C88.5915 35.3816 88.0936 35.88 87.4787 35.88Z" fill="#628FB1"/>
<path d="M99.3652 35.88H95.4975C94.8832 35.88 94.3848 35.3816 94.3848 34.7673C94.3848 34.153 94.8832 33.6545 95.4975 33.6545H99.3652C99.9795 33.6545 100.478 34.153 100.478 34.7673C100.478 35.3816 99.9795 35.88 99.3652 35.88V35.88Z" fill="#628FB1"/>
<path d="M111.251 35.88H107.384C106.769 35.88 106.271 35.3816 106.271 34.7673C106.271 34.153 106.769 33.6545 107.384 33.6545H111.251C111.866 33.6545 112.364 34.153 112.364 34.7673C112.364 35.3816 111.866 35.88 111.251 35.88Z" fill="#628FB1"/>
<path d="M63.7064 41.4753H59.8394C59.2245 41.4753 58.7266 40.9768 58.7266 40.3625C58.7266 39.7482 59.2245 39.2498 59.8394 39.2498H63.7064C64.3213 39.2498 64.8192 39.7482 64.8192 40.3625C64.8192 40.9768 64.3213 41.4753 63.7064 41.4753Z" fill="#628FB1"/>
<path d="M75.5929 41.4753H71.7252C71.1109 41.4753 70.6125 40.9768 70.6125 40.3625C70.6125 39.7482 71.1109 39.2498 71.7252 39.2498H75.5929C76.2072 39.2498 76.7056 39.7482 76.7056 40.3625C76.7056 40.9768 76.2072 41.4753 75.5929 41.4753Z" fill="#628FB1"/>
<path d="M87.4787 41.4753H83.6111C82.9968 41.4753 82.4989 40.9768 82.4989 40.3625C82.4989 39.7482 82.9968 39.2498 83.6111 39.2498H87.4787C88.0936 39.2498 88.5915 39.7482 88.5915 40.3625C88.5915 40.9768 88.0936 41.4753 87.4787 41.4753Z" fill="#628FB1"/>
<path d="M99.3652 41.4753H95.4975C94.8832 41.4753 94.3848 40.9768 94.3848 40.3625C94.3848 39.7482 94.8832 39.2498 95.4975 39.2498H99.3652C99.9795 39.2498 100.478 39.7482 100.478 40.3625C100.478 40.9768 99.9795 41.4753 99.3652 41.4753V41.4753Z" fill="#628FB1"/>
<path d="M111.251 41.4753H107.384C106.769 41.4753 106.271 40.9768 106.271 40.3625C106.271 39.7482 106.769 39.2498 107.384 39.2498H111.251C111.866 39.2498 112.364 39.7482 112.364 40.3625C112.364 40.9768 111.866 41.4753 111.251 41.4753Z" fill="#628FB1"/>
<path d="M80.5111 69.1313C79.6551 69.1313 78.7985 68.812 78.1457 68.1728L72.2911 62.4459C70.9843 61.1682 70.9843 59.0965 72.2911 57.8182C73.5973 56.5405 75.7158 56.5405 77.022 57.8182L80.5111 61.2313L94.1783 47.8618C95.4851 46.5846 97.603 46.584 98.9092 47.8618C100.216 49.14 100.216 51.2117 98.9092 52.49L82.8766 68.1728C82.2232 68.812 81.3672 69.1313 80.5111 69.1313Z" fill="#F72B2B"/>
<path d="M64.4148 19.3838H62.3303C61.4447 19.3838 60.7264 18.682 60.7264 17.8155V12.484C60.7264 11.618 61.4447 10.9162 62.3303 10.9162H64.4148C65.3004 10.9162 66.0187 11.618 66.0187 12.484V17.8155C66.0187 18.682 65.3004 19.3838 64.4148 19.3838Z" fill="#FFBD47"/>
<path d="M79.2336 19.3838H77.1484C76.2626 19.3838 75.5449 18.682 75.5449 17.8155V12.484C75.5449 11.618 76.2626 10.9162 77.1484 10.9162H79.2336C80.1194 10.9162 80.8371 11.618 80.8371 12.484V17.8155C80.8371 18.682 80.1194 19.3838 79.2336 19.3838Z" fill="#FFBD47"/>
<path d="M94.052 19.3838H91.9667C91.081 19.3838 90.3632 18.682 90.3632 17.8155V12.484C90.3632 11.618 91.081 10.9162 91.9667 10.9162H94.052C94.9377 10.9162 95.6555 11.618 95.6555 12.484V17.8155C95.6555 18.682 94.9372 19.3838 94.052 19.3838V19.3838Z" fill="#FFBD47"/>
<path d="M108.87 19.3838H106.785C105.9 19.3838 105.182 18.682 105.182 17.8155V12.484C105.182 11.618 105.9 10.9162 106.785 10.9162H108.87C109.756 10.9162 110.474 11.618 110.474 12.484V17.8155C110.474 18.682 109.756 19.3838 108.87 19.3838Z" fill="#FFBD47"/>
<path d="M62.8434 73.3644C62.8434 81.5486 56.2092 88.1828 48.025 88.1828C39.8408 88.1828 33.2066 81.5486 33.2066 73.3644C33.2066 65.1808 39.8408 58.5466 48.025 58.5466C56.2092 58.5466 62.8434 65.1808 62.8434 73.3644V73.3644Z" fill="#628FB1"/>
<path d="M61.5651 73.2546C61.5651 80.7935 55.454 86.9047 47.9151 86.9047C40.3761 86.9047 34.265 80.7935 34.265 73.2546C34.265 65.7162 40.3761 59.6051 47.9151 59.6051C55.454 59.6051 61.5651 65.7162 61.5651 73.2546V73.2546Z" fill="white"/>
<rect x="39.7017" y="72.4028" width="15.6363" height="8.41955" fill="#FFCE54"/>
<path d="M51.7297 67.5916H54.1353V71.2H51.7297V67.5916Z" fill="#FF9811"/>
<path d="M42.1073 67.5916H44.5129V71.2H42.1073V67.5916Z" fill="#FF9811"/>
<path d="M55.2965 71.2H39.7432C39.056 71.2 38.4989 71.8463 38.4989 72.6434V75.8909C38.4989 76.3696 38.6622 76.8288 38.953 77.1683C39.2445 77.5078 39.6413 77.6976 40.0542 77.6951C40.4671 77.6965 40.8635 77.5069 41.1554 77.1683C41.4474 76.8296 41.6108 76.3698 41.6096 75.8909V74.4476C41.6096 74.1605 41.708 73.8852 41.8833 73.6825C41.9275 73.6316 41.9759 73.586 42.028 73.5462C42.045 73.5331 42.0643 73.5238 42.0824 73.51C42.1185 73.4848 42.1562 73.4625 42.1949 73.4433C42.218 73.4322 42.2429 73.426 42.2668 73.417C42.3039 73.4024 42.3415 73.3902 42.3798 73.3809C42.4068 73.3754 42.4345 73.374 42.4623 73.3712C42.4899 73.3682 42.5151 73.365 42.5428 73.365C42.5552 73.365 42.5671 73.3686 42.5795 73.3694C42.592 73.3701 42.6003 73.3668 42.6105 73.3694C42.6301 73.3694 42.6479 73.3781 42.6672 73.3809C42.701 73.3858 42.7348 73.3929 42.768 73.4019C42.7864 73.4077 42.804 73.4145 42.8218 73.4212C43.21 73.5604 43.4751 73.9762 43.476 74.4476V76.6126C43.476 77.6089 44.1724 78.4168 45.0313 78.4168C45.8902 78.4168 46.5866 77.6089 46.5866 76.6126V74.4476C46.5866 74.1605 46.6851 73.8852 46.8603 73.6825C46.9045 73.6316 46.953 73.586 47.0051 73.5462C47.0221 73.5331 47.0414 73.5238 47.0595 73.51C47.0956 73.4848 47.1333 73.4625 47.172 73.4433C47.1951 73.4322 47.22 73.426 47.2439 73.417C47.2809 73.4024 47.3186 73.3902 47.3569 73.3809C47.3839 73.3754 47.4115 73.374 47.4393 73.3712C47.467 73.3682 47.4922 73.365 47.5198 73.365C47.5323 73.365 47.5441 73.3686 47.5566 73.3694C47.5691 73.3701 47.5774 73.3668 47.5876 73.3694C47.6072 73.3694 47.625 73.3781 47.6442 73.3809C47.6781 73.3858 47.7118 73.3929 47.7451 73.4019C47.7635 73.4077 47.7811 73.4145 47.7989 73.4212C48.1871 73.5604 48.4521 73.9762 48.453 74.4476V75.1692C48.453 76.1656 49.1495 76.9734 50.0084 76.9734C50.8673 76.9734 51.5637 76.1656 51.5637 75.1692V74.4476C51.5637 74.1605 51.6621 73.8852 51.8374 73.6825C51.8816 73.6316 51.9301 73.586 51.9822 73.5462C51.9992 73.5331 52.0185 73.5238 52.0365 73.51C52.0727 73.4848 52.1104 73.4625 52.1491 73.4433C52.1722 73.4322 52.1971 73.426 52.2209 73.417C52.258 73.4024 52.2957 73.3902 52.3339 73.3809C52.361 73.3754 52.3886 73.374 52.4164 73.3712C52.4441 73.3682 52.4693 73.365 52.4969 73.365C52.5094 73.365 52.5212 73.3686 52.5337 73.3694C52.5461 73.3701 52.5545 73.3668 52.5647 73.3694C52.5843 73.3694 52.602 73.3781 52.6213 73.3809C52.6552 73.3858 52.6889 73.3929 52.7222 73.4019C52.7405 73.4077 52.7582 73.4145 52.7759 73.4212C53.1642 73.5604 53.4292 73.9762 53.4301 74.4476V75.8909C53.4289 76.3698 53.5923 76.8296 53.8843 77.1683C54.1762 77.5069 54.5726 77.6965 54.9855 77.6951C55.1993 77.6949 55.4109 77.6445 55.6076 77.5471C56.1735 77.2576 56.5394 76.6085 56.5408 75.8909V72.6434C56.5408 71.8463 55.9837 71.2 55.2965 71.2Z" fill="#ED5564"/>
<path d="M56.2401 80.8223H38.7996C38.6335 80.8223 38.4989 80.553 38.4989 80.2209C38.4989 79.8888 38.6335 79.6195 38.7996 79.6195H56.2401C56.4062 79.6195 56.5408 79.8888 56.5408 80.2209C56.5408 80.553 56.4062 80.8223 56.2401 80.8223Z" fill="#3A3847"/>
<path d="M51.7297 65.186C51.7297 65.8503 52.2682 66.3888 52.9325 66.3888C53.5967 66.3888 54.1353 65.8503 54.1353 65.186C54.1353 64.5218 52.9325 62.7805 52.9325 62.7805C52.9325 62.7805 51.7297 64.5218 51.7297 65.186Z" fill="#FF6243"/>
<path d="M46.9185 67.5916H49.3241V71.2H46.9185V67.5916Z" fill="#FF9811"/>
<path d="M46.9185 65.186C46.9185 65.8503 47.4571 66.3888 48.1213 66.3888C48.7855 66.3888 49.3241 65.8503 49.3241 65.186C49.3241 64.5218 48.1213 62.7805 48.1213 62.7805C48.1213 62.7805 46.9185 64.5218 46.9185 65.186Z" fill="#FF6243"/>
<path d="M44.5129 65.186C44.5124 65.7911 44.0635 66.3019 43.4634 66.3799H43.4604C43.4105 66.3859 43.3603 66.389 43.3101 66.3888C42.6459 66.3888 42.1073 65.8503 42.1073 65.186C42.1073 64.5215 43.3101 62.7805 43.3101 62.7805C43.3101 62.7805 43.3703 62.8677 43.4604 63.006C43.7852 63.4992 44.5129 64.6688 44.5129 65.186Z" fill="#FF6243"/>
<rect x="7" y="22" width="30" height="2" fill="#175A7F"/>
</svg>
