<?xml version="1.0" encoding="UTF-8"?>
<svg width="16px" height="16px" viewBox="0 0 16 16" version="1.1" xmlns="http://www.w3.org/2000/svg" xmlns:xlink="http://www.w3.org/1999/xlink">
    <!-- Generator: Sketch 49.3 (51167) - http://www.bohemiancoding.com/sketch -->
    <title>calendar</title>
    <desc>Created with Sketch.</desc>
    <defs></defs>
    <g id="dashboard" stroke="none" stroke-width="1" fill="none" fill-rule="evenodd">
        <g id="view-indexes" transform="translate(-470.000000, -272.000000)" fill="#FFFFFF" fill-rule="nonzero">
            <g id="calendar" transform="translate(470.000000, 272.000000)">
                <path d="M12.6896552,9.37931034 C10.8642759,9.37931034 9.37931034,10.8642759 9.37931034,12.6896552 C9.37931034,14.5150345 10.8642759,16 12.6896552,16 C14.5150345,16 16,14.5150345 16,12.6896552 C16,10.8642759 14.5150345,9.37931034 12.6896552,9.37931034 Z M12.6896552,15.4482759 C11.1685517,15.4482759 9.93103448,14.2107586 9.93103448,12.6896552 C9.93103448,11.1685517 11.1685517,9.93103448 12.6896552,9.93103448 C14.2107586,9.93103448 15.4482759,11.1685517 15.4482759,12.6896552 C15.4482759,14.2107586 14.2107586,15.4482759 12.6896552,15.4482759 Z" id="Shape"></path>
                <path d="M14.3448276,12.4137931 L12.9655172,12.4137931 L12.9655172,11.0344828 C12.9655172,10.881931 12.8422069,10.7586207 12.6896552,10.7586207 C12.5371034,10.7586207 12.4137931,10.881931 12.4137931,11.0344828 L12.4137931,12.6896552 C12.4137931,12.8422069 12.5371034,12.9655172 12.6896552,12.9655172 L14.3448276,12.9655172 C14.4973793,12.9655172 14.6206897,12.8422069 14.6206897,12.6896552 C14.6206897,12.5371034 14.4973793,12.4137931 14.3448276,12.4137931 Z" id="Shape"></path>
                <path d="M7.44827586,5.79310345 L6.89655172,5.79310345 L4.96551724,5.79310345 L4.4137931,5.79310345 L1.93103448,5.79310345 L1.93103448,8.27586207 L1.93103448,8.82758621 L1.93103448,10.7586207 L1.93103448,11.3103448 L1.93103448,13.7931034 L4.4137931,13.7931034 L4.96551724,13.7931034 L7.44827586,13.7931034 L7.44827586,11.3103448 L7.44827586,10.7586207 L7.44827586,8.82758621 L9.37931034,8.82758621 L9.93103448,8.82758621 L12.4137931,8.82758621 L12.4137931,5.79310345 L9.93103448,5.79310345 L9.37931034,5.79310345 L7.44827586,5.79310345 Z M9.93103448,6.34482759 L11.862069,6.34482759 L11.862069,8.27586207 L9.93103448,8.27586207 L9.93103448,6.34482759 Z M4.96551724,6.34482759 L6.89655172,6.34482759 L6.89655172,8.27586207 L4.96551724,8.27586207 L4.96551724,6.34482759 Z M2.48275862,6.34482759 L4.4137931,6.34482759 L4.4137931,8.27586207 L2.48275862,8.27586207 L2.48275862,6.34482759 Z M2.48275862,8.82758621 L4.4137931,8.82758621 L4.4137931,10.7586207 L2.48275862,10.7586207 L2.48275862,8.82758621 Z M4.4137931,13.2413793 L2.48275862,13.2413793 L2.48275862,11.3103448 L4.4137931,11.3103448 L4.4137931,13.2413793 Z M6.89655172,13.2413793 L4.96551724,13.2413793 L4.96551724,11.3103448 L6.89655172,11.3103448 L6.89655172,13.2413793 Z M6.89655172,10.7586207 L4.96551724,10.7586207 L4.96551724,8.82758621 L6.89655172,8.82758621 L6.89655172,10.7586207 Z M9.37931034,8.27586207 L7.44827586,8.27586207 L7.44827586,6.34482759 L9.37931034,6.34482759 L9.37931034,8.27586207 Z" id="Shape"></path>
                <path d="M9.10344828,15.1724138 L0.551724138,15.1724138 L0.551724138,4.4137931 L13.7931034,4.4137931 L13.7931034,8 C13.7931034,8.15255172 13.9164138,8.27586207 14.0689655,8.27586207 C14.2215172,8.27586207 14.3448276,8.15255172 14.3448276,8 L14.3448276,4.13793103 L14.3448276,1.37931034 C14.3448276,1.22675862 14.2215172,1.10344828 14.0689655,1.10344828 L12.6896552,1.10344828 L12.6896552,0.275862069 C12.6896552,0.123310345 12.5663448,0 12.4137931,0 L10.4827586,0 C10.3302069,0 10.2068966,0.123310345 10.2068966,0.275862069 L10.2068966,1.10344828 L4.13793103,1.10344828 L4.13793103,0.275862069 C4.13793103,0.123310345 4.01462069,0 3.86206897,0 L1.93103448,0 C1.77848276,0 1.65517241,0.123310345 1.65517241,0.275862069 L1.65517241,1.10344828 L0.275862069,1.10344828 C0.123310345,1.10344828 0,1.22675862 0,1.37931034 L0,4.13793103 L0,15.4482759 C0,15.6008276 0.123310345,15.7241379 0.275862069,15.7241379 L9.10344828,15.7241379 C9.256,15.7241379 9.37931034,15.6008276 9.37931034,15.4482759 C9.37931034,15.2957241 9.256,15.1724138 9.10344828,15.1724138 Z M10.7586207,0.551724138 L12.137931,0.551724138 L12.137931,1.37931034 L12.137931,2.20689655 L10.7586207,2.20689655 L10.7586207,1.37931034 L10.7586207,0.551724138 Z M2.20689655,0.551724138 L3.5862069,0.551724138 L3.5862069,1.37931034 L3.5862069,2.20689655 L2.20689655,2.20689655 L2.20689655,1.37931034 L2.20689655,0.551724138 Z M0.551724138,1.65517241 L1.65517241,1.65517241 L1.65517241,2.48275862 C1.65517241,2.63531034 1.77848276,2.75862069 1.93103448,2.75862069 L3.86206897,2.75862069 C4.01462069,2.75862069 4.13793103,2.63531034 4.13793103,2.48275862 L4.13793103,1.65517241 L10.2068966,1.65517241 L10.2068966,2.48275862 C10.2068966,2.63531034 10.3302069,2.75862069 10.4827586,2.75862069 L12.4137931,2.75862069 C12.5663448,2.75862069 12.6896552,2.63531034 12.6896552,2.48275862 L12.6896552,1.65517241 L13.7931034,1.65517241 L13.7931034,3.86206897 L0.551724138,3.86206897 L0.551724138,1.65517241 Z" id="Shape"></path>
            </g>
        </g>
    </g>
</svg>