<?xml version="1.0" encoding="UTF-8"?>
<svg width="140px" height="103px" viewBox="0 0 140 103" version="1.1" xmlns="http://www.w3.org/2000/svg" xmlns:xlink="http://www.w3.org/1999/xlink">
    <!-- Generator: Sketch 50.2 (55047) - http://www.bohemiancoding.com/sketch -->
    <title>CC</title>
    <desc>Created with Sketch.</desc>
    <defs></defs>
    <g id="Page-1" stroke="none" stroke-width="1" fill="none" fill-rule="evenodd">
        <g id="CC">
            <circle id="Oval-2-Copy-2" fill="#28A3FF" cx="42.3936554" cy="42.3936554" r="42.3936554"></circle>
            <circle id="Oval-2-Copy-3" fill="#28A3FF" cx="118.459986" cy="81.6178803" r="21.1968277"></circle>
            <rect id="Rectangle-2-Copy-9" fill="#175A7F" x="96.6979092" y="9.89185292" width="16.9574621" height="2.82624369"></rect>
            <circle id="Oval-Copy-5" fill="#1B8ADC" cx="82.5666907" cy="97.5054074" r="2.82624369"></circle>
            <g id="pay" transform="translate(37.346792, 19.783706)" fill-rule="nonzero">
                <path d="M76.7702796,15.8431866 L76.0481541,14.5874309 L71.4402504,6.57835729 L68.8049461,1.99999888 C68.0801797,0.741602291 66.458327,0.303375253 65.1999304,1.02781159 L63.7688839,1.85177745 L39.4526477,15.8433517 L76.7702796,15.8431866 Z" id="Shape" fill="#A0D468"></path>
                <path d="M80.0476566,15.8431866 L79.0292533,11.0429912 C78.7301695,9.62349876 77.3195902,8.70677072 75.8987772,9.00717494 L74.286993,9.34884348 L43.6584718,15.8430216 L80.0476566,15.8431866 Z" id="Shape" fill="#ED5564"></path>
                <g id="Group" opacity="0.3" transform="translate(39.448686, 14.359982)" fill="#000000">
                    <polygon id="Shape" points="2.29908264 0.16291152 0.00396137435 1.48320458 4.20978554 1.48320458 37.3215933 1.48320458 40.5989704 1.48320458 40.3205188 0.16291152"></polygon>
                </g>
                <g id="Group" transform="translate(0.660229, 32.846396)" fill="#FFCE54">
                    <path d="M72.6134774,17.3237503 C74.0653211,17.3237503 75.2538985,18.5124927 75.2538985,19.9643364 C75.2538985,21.416015 74.0653211,22.6047575 72.6134774,22.6047575 C71.1617988,22.6047575 69.9730564,21.416015 69.9730564,19.9643364 C69.9730564,18.5124927 71.1617988,17.3237503 72.6134774,17.3237503 Z" id="Shape"></path>
                    <path d="M64.6920492,9.40232203 C66.1438929,9.40232203 67.3324702,10.5910645 67.3324702,12.0429082 C67.3324702,13.4945868 66.1438929,14.6833292 64.6920492,14.6833292 C63.2403705,14.6833292 62.0516281,13.4945868 62.0516281,12.0429082 C62.0514631,10.5910645 63.2403705,9.40232203 64.6920492,9.40232203 Z" id="Shape"></path>
                    <path d="M83.1754918,0.15994049 L83.1754918,29.2060577 C83.1754918,30.6579014 81.9867494,31.8466438 80.5349057,31.8466438 L40.874781,31.8466438 L31.4615652,31.8466438 L2.64042106,31.8466438 C1.18808219,31.8466438 0,30.6579014 0,29.2060577 L0,0.15994049 L2.64042106,0.15994049 L80.5349057,0.15994049 L83.1754918,0.15994049 Z M75.2538985,19.9643364 C75.2538985,18.5124927 74.0653211,17.3237503 72.6134774,17.3237503 C71.1617988,17.3237503 69.9730564,18.5124927 69.9730564,19.9643364 C69.9730564,21.416015 71.1617988,22.6047575 72.6134774,22.6047575 C74.0653211,22.6047575 75.2538985,21.416015 75.2538985,19.9643364 Z M67.3324702,12.0429082 C67.3324702,10.5910645 66.1438929,9.40232203 64.6920492,9.40232203 C63.2403705,9.40232203 62.0516281,10.5910645 62.0516281,12.0429082 C62.0516281,13.4945868 63.2403705,14.6833292 64.6920492,14.6833292 C66.1437278,14.6833292 67.3324702,13.4945868 67.3324702,12.0429082 Z" id="Shape"></path>
                </g>
                <polygon id="Shape" fill="#656D78" points="83.8357209 23.7646149 83.8357209 33.0063362 81.1951347 33.0063362 3.30065012 33.0063362 0.660229059 33.0063362 0.660229059 23.7646149 3.30065012 23.7646149 81.1951347 23.7646149"></polygon>
                <path d="M83.8357209,18.4836077 L83.8357209,23.7646149 L81.1951347,23.7646149 L3.30065012,23.7646149 L0.660229059,23.7646149 L0.660229059,18.4836077 C0.660229059,17.031764 1.84831125,15.8430216 3.30065012,15.8430216 L42.9609398,15.8430216 L79.5448922,15.8430216 L81.1951347,15.8430216 C82.6469784,15.8431866 83.8357209,17.031929 83.8357209,18.4836077 Z" id="Shape" fill="#FFCE54"></path>
                <g id="Group" opacity="0.5" transform="translate(0.660229, 32.846396)" fill="#FFFFFF">
                    <path d="M2.64042106,29.2058927 L2.64042106,0.15994049 L0,0.15994049 L0,29.2060577 C0,30.6579014 1.18808219,31.8466438 2.64042106,31.8466438 L5.28084213,31.8466438 C3.82850326,31.8464788 2.64042106,30.6577364 2.64042106,29.2058927 Z" id="Shape"></path>
                </g>
                <g id="Group" opacity="0.5" transform="translate(0.660229, 15.680440)" fill="#FFFFFF">
                    <path d="M5.28084213,0.162746463 L2.64042106,0.162746463 C1.18808219,0.162746463 0,1.35148888 0,2.80333258 L0,8.08433977 L2.64042106,8.08433977 L2.64042106,2.80333258 C2.64042106,1.35148888 3.82850326,0.162746463 5.28084213,0.162746463 Z" id="Shape"></path>
                </g>
                <g id="Group" opacity="0.2" transform="translate(78.402201, 32.846396)" fill="#000000">
                    <path d="M2.78005951,29.2058927 L2.78005951,0.15994049 L5.42064563,0.15994049 L5.42064563,29.2060577 C5.42064563,30.6579014 4.23190321,31.8466438 2.78005951,31.8466438 L0.139638446,31.8466438 C1.59131709,31.8464788 2.78005951,30.6577364 2.78005951,29.2058927 Z" id="Shape"></path>
                </g>
                <g id="Group" opacity="0.2" transform="translate(78.402201, 15.680440)" fill="#000000">
                    <path d="M0.139638446,0.162746463 L2.78005951,0.162746463 C4.23190321,0.162746463 5.42064563,1.35148888 5.42064563,2.80333258 L5.42064563,8.08433977 L2.78005951,8.08433977 L2.78005951,2.80333258 C2.78005951,1.35148888 1.59131709,0.162746463 0.139638446,0.162746463 Z" id="Shape"></path>
                </g>
                <path d="M21.7842578,48.850018 C21.7842578,52.4961329 18.8285774,55.4511532 15.1829576,55.4511532 C11.5375028,55.4511532 8.58182237,52.4961329 8.58182237,48.850018 C8.58182237,45.2037379 11.5375028,42.2487177 15.1829576,42.2487177 C18.8284123,42.2487177 21.7842578,45.2037379 21.7842578,48.850018 Z" id="Shape" fill="#ED5564"></path>
                <g id="Group" opacity="0.2" transform="translate(14.359982, 42.089603)" fill="#000000">
                    <path d="M0.822810465,0.159115203 C0.596516955,0.159115203 0.383262969,0.203020436 0.162746463,0.226128453 C3.49376712,0.561359757 6.10381765,3.3397687 6.10381765,6.76041545 C6.10381765,10.1808971 3.49376712,12.9593061 0.162746463,13.2945374 C0.383262969,13.3178105 0.596516955,13.3615506 0.822810465,13.3615506 C4.46843027,13.3615506 7.42411071,10.4065304 7.42411071,6.76041545 C7.42427577,3.11413541 4.46843027,0.159115203 0.822810465,0.159115203 Z" id="Shape"></path>
                </g>
                <g id="Group" opacity="0.3" transform="translate(8.417921, 42.089603)" fill="#FFFFFF">
                    <path d="M1.48386481,6.76041545 C1.48386481,3.3397687 4.0940804,0.561359757 7.42510106,0.226128453 C7.20458455,0.202855378 6.99116551,0.159115203 6.764872,0.159115203 C3.11941725,0.159115203 0.163736807,3.11413541 0.163736807,6.76041545 C0.163736807,10.4065304 3.11941725,13.3615506 6.764872,13.3615506 C6.99116551,13.3615506 7.20458455,13.3176454 7.42510106,13.2945374 C4.09424545,12.9593061 1.48386481,10.1808971 1.48386481,6.76041545 Z" id="Shape"></path>
                </g>
                <path d="M7.78822704,64.6928745 L8.51018751,65.9484651 L13.1180912,73.9575387 L15.7535605,78.5358971 C16.4781619,79.7941287 18.0986941,80.2325208 19.3584112,79.5080844 L20.7883023,78.6842836 L45.1065192,64.6927094 L7.78822704,64.6928745 Z" id="Shape" fill="#A0D468"></path>
                <path d="M4.50936447,64.6928745 L5.52793285,69.4929048 C5.82833708,70.9125623 7.23743095,71.8289603 8.65840894,71.5287211 L10.2711835,71.1870525 L40.8985493,64.6928745 L4.50936447,64.6928745 Z" id="Shape" fill="#ED5564"></path>
                <g id="Group" opacity="0.3" transform="translate(4.456546, 64.537391)" fill="#000000">
                    <polygon id="Shape" points="38.3548518 1.47561195 40.649808 0.155483943 36.4420031 0.155483943 3.33168089 0.155483943 0.0528183247 0.155483943 0.333415675 1.47561195"></polygon>
                </g>
                <g id="Group" opacity="0.2" transform="translate(0.495172, 23.603189)" fill="#FFFFFF">
                    <rect id="Rectangle-path" x="0.164892208" y="0.161591062" width="2.64042106" height="9.24172131"></rect>
                </g>
                <g id="Group" opacity="0.2" transform="translate(81.043117, 23.603189)" fill="#000000">
                    <rect id="Rectangle-path" x="0.151687626" y="0.161591062" width="2.64058612" height="9.24172131"></rect>
                </g>
                <g id="Group" transform="translate(0.000000, 14.131218)">
                    <path d="M81.1951347,51.22172 L3.30065012,51.22172 C1.48089378,51.22172 0,49.7414865 0,47.9210699 L0,4.35238922 C0,2.53180759 1.48089378,1.0517391 3.30065012,1.0517391 L81.1951347,1.0517391 C83.0157164,1.0517391 84.4957849,2.53180759 84.4957849,4.35238922 L84.4957849,47.9210699 C84.4957849,49.7416515 83.0157164,51.22172 81.1951347,51.22172 Z M3.30065012,2.37203216 C2.20863126,2.37203216 1.32029306,3.26037036 1.32029306,4.35238922 L1.32029306,47.9210699 C1.32029306,49.0130888 2.20863126,49.901427 3.30065012,49.901427 L81.1951347,49.901427 C82.2871536,49.901427 83.1754918,49.0130888 83.1754918,47.9210699 L83.1754918,4.35238922 C83.1754918,3.26037036 82.2871536,2.37203216 81.1951347,2.37203216 L3.30065012,2.37203216 Z" id="Shape"></path>
                    <path d="M82.5154278,10.2936255 L1.98035706,10.2936255 C1.61558051,10.2936255 1.32029306,9.99833802 1.32029306,9.63339641 C1.32029306,9.2684548 1.61558051,8.97316735 1.98035706,8.97316735 L82.5154278,8.97316735 C82.8803694,8.97316735 83.1754918,9.2684548 83.1754918,9.63339641 C83.1754918,9.99833802 82.8803694,10.2936255 82.5154278,10.2936255 Z" id="Shape" fill="#3A3847"></path>
                    <path d="M82.5154278,19.5351817 L1.98035706,19.5351817 C1.61558051,19.5351817 1.32029306,19.2398943 1.32029306,18.8749527 C1.32029306,18.5101761 1.61558051,18.2148887 1.98035706,18.2148887 L82.5154278,18.2148887 C82.8803694,18.2148887 83.1754918,18.5101761 83.1754918,18.8749527 C83.1754918,19.2400593 82.8803694,19.5351817 82.5154278,19.5351817 Z" id="Shape" fill="#3A3847"></path>
                    <path d="M5.94107119,16.6176295 C5.86696048,16.6176295 5.79235459,16.604755 5.71873905,16.5790061 C5.37508983,16.4565336 5.19649787,16.0773971 5.31963059,15.7345731 L6.63992365,12.0509902 C6.76305637,11.7068458 7.14136762,11.5327104 7.48369638,11.6525419 C7.82734561,11.7750144 8.00577251,12.154151 7.88263979,12.49714 L6.56251179,16.1805579 C6.46595329,16.4499313 6.21193016,16.6176295 5.94107119,16.6176295 Z" id="Shape" fill="#3A3847"></path>
                    <path d="M9.90178531,16.6176295 C9.82783966,16.6176295 9.75306872,16.604755 9.67945318,16.5790061 C9.33580395,16.4565336 9.15721199,16.0773971 9.28034471,15.7345731 L10.6006378,12.0509902 C10.7237705,11.7068458 11.102742,11.5327104 11.4444105,11.6525419 C11.7880597,11.7750144 11.9664866,12.154151 11.843519,12.49714 L10.5232259,16.1805579 C10.4266674,16.4499313 10.1726443,16.6176295 9.90178531,16.6176295 Z" id="Shape" fill="#3A3847"></path>
                    <path d="M13.8626645,16.6176295 C13.7885538,16.6176295 13.7137828,16.604755 13.6401673,16.5790061 C13.2965181,16.4565336 13.1179261,16.0773971 13.2410588,15.7345731 L14.5613519,12.0509902 C14.6844846,11.7068458 15.0614754,11.5327104 15.4051246,11.6525419 C15.7487739,11.7750144 15.9272008,12.154151 15.8042331,12.49714 L14.48394,16.1805579 C14.3873815,16.4499313 14.1333584,16.6176295 13.8626645,16.6176295 Z" id="Shape" fill="#3A3847"></path>
                    <path d="M17.8233786,16.6176295 C17.7492679,16.6176295 17.674497,16.604755 17.6008814,16.5790061 C17.2572322,16.4565336 17.0786402,16.0773971 17.201773,15.7345731 L18.522066,12.0509902 C18.6451987,11.7068458 19.0228498,11.5327104 19.3658388,11.6525419 C19.709488,11.7750144 19.8879149,12.154151 19.7649472,12.49714 L18.4446542,16.1805579 C18.3480957,16.4499313 18.0940725,16.6176295 17.8233786,16.6176295 Z" id="Shape" fill="#3A3847"></path>
                    <path d="M21.7842578,16.6176295 C21.7101471,16.6176295 21.6353762,16.604755 21.5617606,16.5790061 C21.2181114,16.4565336 21.0395194,16.0773971 21.1626521,15.7345731 L22.4829452,12.0509902 C22.6060779,11.7068458 22.9850494,11.5327104 23.3267179,11.6525419 C23.6703672,11.7750144 23.8489591,12.154151 23.7258264,12.49714 L22.4055333,16.1805579 C22.3088098,16.4499313 22.0547867,16.6176295 21.7842578,16.6176295 Z" id="Shape" fill="#3A3847"></path>
                    <path d="M25.7449719,16.6176295 C25.6708612,16.6176295 25.5960903,16.604755 25.5224747,16.5790061 C25.1788255,16.4565336 25.0002336,16.0773971 25.1233663,15.7345731 L26.4436593,12.0509902 C26.5667921,11.7068458 26.9437828,11.5327104 27.2874321,11.6525419 C27.6310813,11.7750144 27.8096733,12.154151 27.6865405,12.49714 L26.3662475,16.1805579 C26.2695239,16.4499313 26.0155008,16.6176295 25.7449719,16.6176295 Z" id="Shape" fill="#3A3847"></path>
                    <path d="M29.7056861,16.6176295 C29.6315753,16.6176295 29.5568044,16.604755 29.4831889,16.5790061 C29.1395396,16.4565336 28.9609477,16.0773971 29.0840804,15.7345731 L30.4043735,12.0509902 C30.5275062,11.7068458 30.9051572,11.5327104 31.2481462,11.6525419 C31.5917954,11.7750144 31.7703874,12.154151 31.6472547,12.49714 L30.3269616,16.1805579 C30.230238,16.4499313 29.9762149,16.6176295 29.7056861,16.6176295 Z" id="Shape" fill="#3A3847"></path>
                    <path d="M33.6664002,16.6176295 C33.5922895,16.6176295 33.5175185,16.604755 33.443903,16.5790061 C33.1002538,16.4565336 32.9216618,16.0773971 33.0447945,15.7345731 L34.3650876,12.0509902 C34.4882203,11.7068458 34.8673568,11.5327104 35.2088603,11.6525419 C35.5525095,11.7750144 35.7311015,12.154151 35.6079688,12.49714 L34.2876757,16.1805579 C34.1911172,16.4499313 33.936929,16.6176295 33.6664002,16.6176295 Z" id="Shape" fill="#3A3847"></path>
                    <path d="M37.6271143,16.6176295 C37.5530036,16.6176295 37.4782327,16.604755 37.4046171,16.5790061 C37.0609679,16.4565336 36.882541,16.0773971 37.0055086,15.7345731 L38.3258017,12.0509902 C38.4489344,11.7068458 38.8260903,11.5327104 39.1695744,11.6525419 C39.5132237,11.7750144 39.6918156,12.154151 39.5686829,12.49714 L38.2483898,16.1805579 C38.1518313,16.4499313 37.8978082,16.6176295 37.6271143,16.6176295 Z" id="Shape" fill="#3A3847"></path>
                    <path d="M41.5878284,16.6176295 C41.5137177,16.6176295 41.4389468,16.604755 41.3653312,16.5790061 C41.021682,16.4565336 40.8432551,16.0773971 40.9662228,15.7345731 L42.2865158,12.0509902 C42.4096486,11.7068458 42.7874646,11.5327104 43.1304536,11.6525419 C43.4739378,11.7750144 43.6518695,12.154151 43.529397,12.49714 L42.209104,16.1805579 C42.1125455,16.4499313 41.8586874,16.6176295 41.5878284,16.6176295 Z" id="Shape" fill="#3A3847"></path>
                    <path d="M45.5485426,16.6176295 C45.4750921,16.6176295 45.3990007,16.604755 45.3253851,16.5790061 C44.9825612,16.4565336 44.8046295,16.0773971 44.927102,15.7345731 L46.24723,12.0509902 C46.3710229,11.7093216 46.748839,11.5340308 47.091828,11.6525419 C47.4346519,11.7750144 47.6125837,12.154151 47.4901112,12.49714 L46.1698181,16.1805579 C46.0732596,16.4499313 45.8194015,16.6176295 45.5485426,16.6176295 Z" id="Shape" fill="#3A3847"></path>
                    <path d="M49.4963822,16.6176295 C49.4229317,16.6176295 49.3468403,16.604755 49.2732248,16.5790061 C48.9304009,16.4565336 48.7524691,16.0773971 48.8749416,15.7345731 L50.1950696,12.0509902 C50.3188626,11.7093216 50.6953582,11.5340308 51.0396676,11.6525419 C51.3824916,11.7750144 51.5604233,12.154151 51.4379508,12.49714 L50.1176578,16.1805579 C50.0210993,16.4499313 49.7672412,16.6176295 49.4963822,16.6176295 Z" id="Shape" fill="#3A3847"></path>
                    <path d="M53.4570963,16.6176295 C53.3836459,16.6176295 53.3075545,16.604755 53.2339389,16.5790061 C52.891115,16.4565336 52.7131832,16.0773971 52.8356557,15.7345731 L54.1557837,12.0509902 C54.2795767,11.7093216 54.6573928,11.5340308 55.0003818,11.6525419 C55.3432057,11.7750144 55.5211374,12.154151 55.3986649,12.49714 L54.0783719,16.1805579 C53.9818134,16.4499313 53.7279553,16.6176295 53.4570963,16.6176295 Z" id="Shape" fill="#3A3847"></path>
                    <path d="M57.4178105,16.6176295 C57.34436,16.6176295 57.2682686,16.604755 57.194653,16.5790061 C56.8518291,16.4565336 56.6738974,16.0773971 56.7963699,15.7345731 L58.1164979,12.0509902 C58.2389704,11.7093216 58.6194274,11.5340308 58.9610959,11.6525419 C59.3039198,11.7750144 59.4818516,12.154151 59.3593791,12.49714 L58.039086,16.1805579 C57.9425275,16.4499313 57.6886694,16.6176295 57.4178105,16.6176295 Z" id="Shape" fill="#3A3847"></path>
                    <path d="M61.3785246,16.6176295 C61.3050741,16.6176295 61.2289827,16.604755 61.1553672,16.5790061 C60.8125432,16.4565336 60.6346115,16.0773971 60.757084,15.7345731 L62.077212,12.0509902 C62.2010049,11.7093216 62.5775006,11.5340308 62.92181,11.6525419 C63.264634,11.7750144 63.4425657,12.154151 63.3200932,12.49714 L61.9998001,16.1805579 C61.9032416,16.4499313 61.6493836,16.6176295 61.3785246,16.6176295 Z" id="Shape" fill="#3A3847"></path>
                    <path d="M65.3392387,16.6176295 C65.2657882,16.6176295 65.1896968,16.604755 65.1162464,16.5790061 C64.7732574,16.4565336 64.5953256,16.0773971 64.7177981,15.7345731 L66.0379261,12.0509902 C66.1603986,11.7093216 66.5395351,11.5340308 66.8825241,11.6525419 C67.2253481,11.7750144 67.4032798,12.154151 67.2808073,12.49714 L65.9605143,16.1805579 C65.8641208,16.4499313 65.6100977,16.6176295 65.3392387,16.6176295 Z" id="Shape" fill="#3A3847"></path>
                    <path d="M69.3001179,16.6176295 C69.2266674,16.6176295 69.1507411,16.604755 69.0771255,16.5790061 C68.7341365,16.4565336 68.5562048,16.0773971 68.6786773,15.7345731 L69.9988053,12.0509902 C70.1212778,11.7093216 70.4977734,11.5340308 70.8434033,11.6525419 C71.1862273,11.7750144 71.364159,12.154151 71.2416865,12.49714 L69.9213934,16.1805579 C69.8248349,16.4499313 69.5708118,16.6176295 69.3001179,16.6176295 Z" id="Shape" fill="#3A3847"></path>
                    <path d="M73.260832,16.6176295 C73.1873815,16.6176295 73.1114552,16.604755 73.0378397,16.5790061 C72.6948507,16.4565336 72.5169189,16.0773971 72.6393914,15.7345731 L73.9595194,12.0509902 C74.0833124,11.7093216 74.459808,11.5340308 74.8041174,11.6525419 C75.1471064,11.7750144 75.3248731,12.154151 75.2024006,12.49714 L73.8822726,16.1805579 C73.7855491,16.4499313 73.5315259,16.6176295 73.260832,16.6176295 Z" id="Shape" fill="#3A3847"></path>
                    <path d="M77.2215461,16.6176295 C77.1482607,16.6176295 77.0721693,16.604755 76.9985538,16.5790061 C76.6555648,16.4565336 76.4776331,16.0773971 76.6001055,15.7345731 L77.9202336,12.0509902 C78.042706,11.7093216 78.4218426,11.5340308 78.7648316,11.6525419 C79.1078206,11.7750144 79.2855872,12.154151 79.1632798,12.49714 L77.8429868,16.1805579 C77.7462632,16.4499313 77.4922401,16.6176295 77.2215461,16.6176295 Z" id="Shape" fill="#3A3847"></path>
                    <path d="M9.90244554,39.3395776 C9.70140579,39.3395776 9.50350213,39.2479709 9.37393218,39.0751559 C8.42369751,37.8090016 7.92142825,36.3018637 7.92142825,34.7186345 C7.92142825,30.7153356 11.1788334,27.4572702 15.1827925,27.4572702 C15.5477341,27.4572702 15.8430216,27.7523926 15.8430216,28.1173342 C15.8430216,28.4822758 15.5477341,28.7775633 15.1827925,28.7775633 C11.9065709,28.7775633 9.24172131,31.4425779 9.24172131,34.7186345 C9.24172131,36.014334 9.65238379,37.2468166 10.4298035,38.2835413 C10.6489996,38.5750324 10.589744,38.9886659 10.2975926,39.208027 C10.1790815,39.2969929 10.0404334,39.3395776 9.90244554,39.3395776 Z" id="Shape" fill="#3A3847"></path>
                    <path d="M15.1827925,41.9799987 C14.8180159,41.9799987 14.5227285,41.6847113 14.5227285,41.3199347 C14.5227285,40.9549931 14.8180159,40.6598707 15.1827925,40.6598707 C18.4590141,40.6598707 21.1238637,37.9948561 21.1238637,34.7187995 C21.1238637,33.8908723 20.9561655,33.091665 20.626216,32.345111 C20.4784898,32.0123555 20.6295172,31.621665 20.9626027,31.4749291 C21.2940377,31.3240667 21.6853885,31.47757 21.8329497,31.8113158 C22.2383303,32.7268884 22.4439917,33.7053479 22.4439917,34.7187995 C22.4443218,38.7220984 19.1867516,41.9799987 15.1827925,41.9799987 Z" id="Shape" fill="#3A3847"></path>
                    <path d="M13.8626645,34.0585704 C13.6938109,34.0585704 13.5247923,33.9940331 13.3958826,33.8651233 C13.1380631,33.6073039 13.1380631,33.189544 13.3958826,32.9317245 L21.3173108,25.009636 C21.5751302,24.7518166 21.9928902,24.7518166 22.2507096,25.009636 C22.5085291,25.2674555 22.5085291,25.6852154 22.2507096,25.9430349 L14.3292814,33.8651233 C14.2003717,33.9940331 14.0315181,34.0585704 13.8626645,34.0585704 Z" id="Shape" fill="#3A3847"></path>
                    <path d="M16.5030856,36.6991566 C16.334232,36.6991566 16.1652133,36.6346192 16.0363036,36.5057095 L13.3958826,33.8651233 C13.1380631,33.6073039 13.1380631,33.189544 13.3958826,32.9317245 C13.653702,32.6739051 14.0714619,32.6739051 14.3292814,32.9317245 L16.9697024,35.5721456 C17.2275219,35.829965 17.2275219,36.24789 16.9697024,36.5057095 C16.8409578,36.6346192 16.6721042,36.6991566 16.5030856,36.6991566 Z" id="Shape" fill="#3A3847"></path>
                    <path d="M8.58165731,44.6205848 C8.41280373,44.6205848 8.24378509,44.5560474 8.11487536,44.4271377 C7.85705592,44.1693183 7.85705592,43.7513933 8.11487536,43.4937389 L16.0363036,35.5721456 C16.2941231,35.3143261 16.7120481,35.3143261 16.9697024,35.5721456 C17.2275219,35.829965 17.2275219,36.24789 16.9697024,36.5057095 L9.0482742,44.4271377 C8.91936447,44.5562125 8.75067595,44.6205848 8.58165731,44.6205848 Z" id="Shape" fill="#3A3847"></path>
                    <path d="M54.7902639,31.4181494 L29.7056861,31.4181494 C29.3407444,31.4181494 29.045457,31.1228619 29.045457,30.7580854 C29.045457,30.3931438 29.3407444,30.0978563 29.7056861,30.0978563 L54.7904289,30.0978563 C55.1552055,30.0978563 55.4504929,30.3931438 55.4504929,30.7580854 C55.4503279,31.1228619 55.1550404,31.4181494 54.7902639,31.4181494 Z" id="Shape" fill="#3A3847"></path>
                    <path d="M54.7902639,35.3788635 L29.7056861,35.3788635 C29.3407444,35.3788635 29.045457,35.0835761 29.045457,34.7187995 C29.045457,34.3538579 29.3407444,34.0585704 29.7056861,34.0585704 L54.7904289,34.0585704 C55.1552055,34.0585704 55.4504929,34.3538579 55.4504929,34.7187995 C55.4503279,35.0835761 55.1550404,35.3788635 54.7902639,35.3788635 Z" id="Shape" fill="#3A3847"></path>
                    <path d="M41.5878284,39.3395776 L29.7056861,39.3395776 C29.3407444,39.3395776 29.045457,39.0442902 29.045457,38.6795136 C29.045457,38.314572 29.3407444,38.0192846 29.7056861,38.0192846 L41.5878284,38.0192846 C41.952605,38.0192846 42.2478924,38.314572 42.2478924,38.6795136 C42.2478924,39.0442902 41.952605,39.3395776 41.5878284,39.3395776 Z" id="Shape" fill="#3A3847"></path>
                    <path d="M65.3522782,34.0585704 C63.5318617,34.0585704 62.0516281,32.578502 62.0516281,30.7580854 C62.0516281,28.9375038 63.5318617,27.4574353 65.3522782,27.4574353 C67.1726948,27.4574353 68.6529284,28.9375038 68.6529284,30.7580854 C68.6529284,32.578502 67.1726948,34.0585704 65.3522782,34.0585704 Z M65.3522782,28.7777283 C64.2602594,28.7777283 63.3719212,29.6659015 63.3719212,30.7580854 C63.3719212,31.8499392 64.2602594,32.7384424 65.3522782,32.7384424 C66.4442971,32.7384424 67.3326353,31.8499392 67.3326353,30.7580854 C67.3326353,29.6659015 66.4442971,28.7777283 65.3522782,28.7777283 Z" id="Shape" fill="#3A3847"></path>
                    <path d="M73.2737065,41.9799987 C71.4532899,41.9799987 69.9730564,40.4999302 69.9730564,38.6795136 C69.9730564,36.858932 71.4532899,35.3788635 73.2737065,35.3788635 C75.0942881,35.3788635 76.5743566,36.858932 76.5743566,38.6795136 C76.5743566,40.4999302 75.0942881,41.9799987 73.2737065,41.9799987 Z M73.2737065,36.6991566 C72.1816876,36.6991566 71.2933494,37.5873297 71.2933494,38.6795136 C71.2933494,39.7713674 72.1816876,40.6598707 73.2737065,40.6598707 C74.3657254,40.6598707 75.2540636,39.7713674 75.2540636,38.6795136 C75.2540636,37.5873297 74.3657254,36.6991566 73.2737065,36.6991566 Z" id="Shape" fill="#3A3847"></path>
                    <path d="M62.7116921,41.9799987 C62.5428385,41.9799987 62.3738199,41.9154613 62.2449102,41.7865516 C61.9870907,41.5287321 61.9870907,41.1109722 62.2449102,40.8531528 L75.4344711,27.6507173 C75.6922906,27.3924027 76.1100505,27.3924027 76.36787,27.6507173 C76.6256894,27.9085368 76.6256894,28.3264618 76.36787,28.5842812 L63.178309,41.7865516 C63.0495643,41.9156264 62.8807108,41.9799987 62.7116921,41.9799987 Z" id="Shape" fill="#3A3847"></path>
                </g>
            </g>
        </g>
    </g>
</svg>