<?xml version="1.0" encoding="UTF-8"?>
<svg width="18px" height="13px" viewBox="0 0 18 13" version="1.1" xmlns="http://www.w3.org/2000/svg" xmlns:xlink="http://www.w3.org/1999/xlink">
    <!-- Generator: Sketch 49.2 (51160) - http://www.bohemiancoding.com/sketch -->
    <title>Shape</title>
    <desc>Created with Sketch.</desc>
    <defs></defs>
    <g id="dashboard" stroke="none" stroke-width="1" fill="none" fill-rule="evenodd">
        <g id="data-sets" transform="translate(-22.000000, -114.000000)" fill="#FFFFFF" fill-rule="nonzero">
            <g id="speedometer-(1)" transform="translate(22.000000, 109.000000)">
                <path d="M11.88,5.4665839 C5.67,3.48928646 0,8.07302143 0,14.0049137 C0,14.8138082 0.09,16.3417198 0.36,17.2404914 C0.36,17.4202457 0.54,17.6 0.72,17.6 L17.19,17.6 C17.37,17.6 17.55,17.4202457 17.64,17.2404914 C17.82,16.3417198 18,14.8138082 18,14.0049137 C18,10.140196 15.57,6.63498693 11.88,5.4665839 Z M9,6.8 C9.54,6.8 9.9,7.16 9.9,7.7 C9.9,8.24 9.54,8.6 9,8.6 C8.46,8.6 8.1,8.24 8.1,7.7 C8.1,7.16 8.46,6.8 9,6.8 Z M2.7,14.9 C2.16,14.9 1.8,14.54 1.8,14 C1.8,13.46 2.16,13.1 2.7,13.1 C3.24,13.1 3.6,13.46 3.6,14 C3.6,14.54 3.24,14.9 2.7,14.9 Z M5.20032089,10.1428571 C4.82681641,10.4857143 4.2665597,10.4857143 3.89305523,10.1428571 C3.51955076,9.8 3.51955076,9.2 3.79967911,8.85714286 C4.17318359,8.51428571 4.7334403,8.51428571 5.10694477,8.85714286 C5.48044924,9.2 5.48044924,9.8 5.20032089,10.1428571 Z M9,15.8 C7.93199949,15.8 6.96108994,14.9 7.2523628,14 C7.54363567,13.1 9,10.4 9,10.4 C9,10.4 10.4563643,13.1 10.7476372,14 C11.0389101,14.9 10.0680005,15.8 9,15.8 Z M14.1896104,10.13 C13.8155844,10.49 13.2545455,10.49 12.8805195,10.13 C12.5064935,9.77 12.5064935,9.23 12.8805195,8.87 C13.2545455,8.51 13.8155844,8.51 14.1896104,8.87 C14.4701299,9.14 14.4701299,9.77 14.1896104,10.13 Z M15.3,14.9 C14.76,14.9 14.4,14.54 14.4,14 C14.4,13.46 14.76,13.1 15.3,13.1 C15.84,13.1 16.2,13.46 16.2,14 C16.2,14.54 15.84,14.9 15.3,14.9 Z" id="Shape"></path>
            </g>
        </g>
    </g>
</svg>