<?xml version="1.0" encoding="UTF-8"?>
<svg width="18px" height="18px" viewBox="0 0 18 18" version="1.1" xmlns="http://www.w3.org/2000/svg" xmlns:xlink="http://www.w3.org/1999/xlink">
    <!-- Generator: Sketch 49.2 (51160) - http://www.bohemiancoding.com/sketch -->
    <title>database (2)</title>
    <desc>Created with Sketch.</desc>
    <defs></defs>
    <g id="dashboard" stroke="none" stroke-width="1" fill="none" fill-rule="evenodd">
        <g id="data-sets" transform="translate(-22.000000, -197.000000)" fill="#FFFFFF" fill-rule="nonzero">
            <g id="manage" transform="translate(22.000000, 193.000000)">
                <g id="database-(2)" transform="translate(0.000000, 4.000000)">
                    <path d="M9.38082387,15.4802504 C9.10590937,15.2653314 8.94826609,14.9412657 8.94826609,14.5915742 L8.94242874,13.1576563 C8.96245748,13.0470683 8.93260662,12.9328245 8.86049618,12.8471592 C8.78838574,12.7618455 8.6831737,12.7343918 8.57030671,12.7138631 L8.20255394,12.7167807 C7.32869983,12.7167807 2.85348321,12.647215 0.563985443,11.2729851 C0.448182296,11.2034194 0.305848938,11.201943 0.188577717,11.2689426 C0.0721104411,11.3352743 0,11.4597473 0,11.5948714 L0,13.8416779 C0,15.5648611 4.12640902,16.4663677 8.2025889,16.4663677 C8.52773253,16.4663677 8.84595525,16.4590561 9.16092722,16.4480536 C9.26215448,16.4447493 9.35789394,16.3997196 9.42563511,16.3239321 C9.49337628,16.2481445 9.52759641,16.1474342 9.51994144,16.0456342 C9.51448859,15.9716745 9.51228648,15.8969766 9.52175906,15.8230169 C9.53811761,15.6915487 9.48460278,15.5611701 9.38082387,15.4802504 Z" id="Shape"></path>
                    <path d="M8.23318386,7.50672646 C12.3245675,7.50672646 16.4663677,6.60429923 16.4663677,4.87935636 L16.4663677,2.25202146 C16.4663677,0.704847528 12.1984737,0 8.23318386,0 C4.26789401,0 0,0.704847528 0,2.25202146 L0,4.87939155 C0,6.60433442 4.14180017,7.50672646 8.23318386,7.50672646 Z M8.23318386,0.750662089 C12.5917012,0.750662089 14.9694156,1.74253679 14.9694156,2.25202146 C14.9694156,2.76150612 12.5917012,3.75338082 8.23318386,3.75338082 C3.87466648,3.75338082 1.49695209,2.76150612 1.49695209,2.25202146 C1.49695209,1.74253679 3.87466648,0.750662089 8.23318386,0.750662089 Z" id="Shape"></path>
                    <path d="M8.23318386,11.9461883 C8.55918941,11.9461883 8.87859906,11.9388769 9.19471077,11.9278745 C9.38220256,11.9216527 9.53604827,11.777005 9.55432731,11.5898944 C9.5795531,11.3310049 9.69431463,11.0875116 9.87738576,10.9044435 L10.9361319,9.8440332 C11.1798993,9.59871206 11.5245348,9.47786177 11.8676967,9.52292578 C11.9974393,9.54123963 12.1297431,9.48629809 12.2112445,9.38158227 C12.4261373,9.1051522 12.7491957,8.94661969 13.0982167,8.94661969 L14.5951688,8.94661969 C14.9441898,8.94661969 15.2676342,9.1051522 15.4821411,9.38126591 C15.5632916,9.4863684 15.6944727,9.54092326 15.8256889,9.52296093 C15.871369,9.51709066 15.917435,9.51452461 15.9623783,9.51452461 L16.0606852,9.52552698 C16.1597288,9.53540451 16.2678945,9.49916348 16.3453962,9.42812264 C16.422512,9.3570818 16.4663677,9.25711141 16.4663677,9.15204407 L16.4663677,7.07481123 C16.4663677,6.93968951 16.3939883,6.81521864 16.2770515,6.74892323 C16.1597288,6.68153812 16.0160927,6.68336599 15.9002436,6.75296563 C13.6022062,8.12717182 9.11029737,8.19673631 8.23318386,8.19673631 C7.35607034,8.19673631 2.86416155,8.12717182 0.566124145,6.75296563 C0.449889062,6.68340114 0.307024814,6.68157328 0.18931618,6.74892323 C0.072379407,6.81521864 0,6.93968951 0,7.07481123 L0,9.32157895 C0,11.0447324 4.14180017,11.9461883 8.23318386,11.9461883 Z" id="Shape"></path>
                    <path d="M17.7166996,12.7720493 L16.9996601,12.5925942 L17.3797212,11.9588702 C17.468167,11.8115872 17.4447663,11.6230102 17.323447,11.5016894 L16.2650787,10.4433076 C16.1430228,10.3216009 15.9544482,10.2985857 15.8079038,10.3870327 L15.1741879,10.7670987 L14.9947351,10.05005 C14.9530557,9.88375142 14.8035994,9.76681614 14.6318299,9.76681614 L13.1349161,9.76681614 C12.9631466,9.76681614 12.8136902,9.88375142 12.7720109,10.05005 L12.592558,10.7670987 L11.9588422,10.3870327 C11.8112102,10.2989717 11.6226356,10.3216009 11.5016672,10.4433076 L10.443299,11.5016894 C10.3219797,11.6230102 10.2985789,11.8115872 10.3870248,11.9588702 L10.7670859,12.5925942 L10.0500464,12.7720493 C9.88374993,12.8137292 9.76681614,12.9631874 9.76681614,13.1349591 L9.76681614,14.631857 C9.76681614,14.8036287 9.88374993,14.953087 10.0500464,14.9947669 L10.7670859,15.174222 L10.3870248,15.8079459 C10.2985789,15.955229 10.3219797,16.1438059 10.443299,16.2651267 L11.5016672,17.3235085 C11.6226356,17.4441276 11.8104735,17.4678796 11.9588422,17.3797834 L12.592558,16.9997175 L12.7720109,17.7167661 C12.8136902,17.8830647 12.9631466,18 13.1349161,18 L14.6319001,18 C14.8036696,18 14.9531259,17.8830647 14.9948053,17.7167661 L15.1742581,16.9997175 L15.807974,17.3797834 C15.9552551,17.4682304 16.1438297,17.4448293 16.2651489,17.3235085 L17.3235172,16.2651267 C17.4448364,16.1438059 17.4682372,15.955229 17.3797914,15.8079459 L16.9997302,15.174222 L17.7167697,14.9947669 C17.8830662,14.953087 18,14.8036287 18,14.631857 L18,13.1349241 C17.9999298,12.9631874 17.882996,12.8136941 17.7166996,12.7720493 Z M13.8834607,15.7545479 C12.8517911,15.7545479 12.0123447,14.9150909 12.0123447,13.8834081 C12.0123447,12.8517253 12.8517911,12.0122682 13.8834607,12.0122682 C14.9151303,12.0122682 15.7545767,12.8516902 15.7545767,13.8834081 C15.7545767,14.915126 14.9151303,15.7545479 13.8834607,15.7545479 Z" id="Shape"></path>
                </g>
            </g>
        </g>
    </g>
</svg>