<?xml version="1.0" encoding="UTF-8"?>
<svg width="85px" height="85px" viewBox="0 0 85 85" version="1.1" xmlns="http://www.w3.org/2000/svg" xmlns:xlink="http://www.w3.org/1999/xlink">
    <!-- Generator: Sketch 53.2 (72643) - https://sketchapp.com -->
    <title>database (4)</title>
    <desc>Created with Sketch.</desc>
    <g id="dashboard" stroke="none" stroke-width="1" fill="none" fill-rule="evenodd">
        <g id="reports" transform="translate(-1062.000000, -125.000000)" fill="#0B7DDF" fill-rule="nonzero">
            <g id="database-(4)" transform="translate(1062.000000, 125.000000)">
                <path d="M61.6731667,61.2283333 C61.2665833,61.2396667 60.86,61.2481667 60.4534167,61.25525 C60.3755,61.2566667 60.2975833,61.2580833 60.21825,61.2595 C59.74225,61.2665833 59.26625,61.2694167 58.7916667,61.2694167 C58.3156667,61.2694167 57.83825,61.2651667 57.3608333,61.2595 C57.2970833,61.2580833 57.2319167,61.2566667 57.1681667,61.25525 C56.746,61.2481667 56.32525,61.2396667 55.9030833,61.2269167 C55.8733333,61.2269167 55.8435833,61.2255 55.81525,61.2240833 C46.1110833,60.9379167 36.49475,59.2478333 31.1666667,56.24025 L31.1666667,61.2708333 L31.1666667,61.8020833 L31.1666667,62.3333333 L31.1666667,65.2955833 C34.1955,68.3499167 44.7695,71.1875 58.7916667,71.1875 C71.128,71.1875 80.78825,68.99025 85,66.3835833 L85,62.3333333 L85,61.8020833 L85,61.2708333 L85,56.96275 C79.4934167,59.5155833 70.6874167,60.95775 61.8049167,61.2240833 C61.761,61.2255 61.7170833,61.2269167 61.6731667,61.2283333 Z" id="Path"></path>
                <path d="M31.1666667,43.4845833 L31.1666667,48.5208333 L31.1666667,49.0520833 L31.1666667,49.5833333 L31.1666667,52.5215 C31.2403333,52.5951667 31.3055,52.67025 31.3890833,52.7439167 C31.4514167,52.8005833 31.5123333,52.85725 31.5803333,52.9139167 C35.1333333,55.8166667 45.6138333,58.4375 58.7916667,58.4375 C70.9013333,58.4375 80.72875,56.22325 85,53.61375 L85,49.5833333 L85,49.0520833 L85,48.5208333 L85,44.2 C78.8644167,47.0333333 68.6346667,48.5208333 58.7916667,48.5208333 C48.14825,48.5208333 37.04725,46.7825833 31.1666667,43.4845833 Z" id="Path"></path>
                <path d="M31.1666667,68.99025 L31.1666667,75.0833333 C31.1666667,75.2958333 31.2176667,75.4998333 31.3083333,75.6811667 C32.7915833,81.8011667 45.7753333,85 58.0833333,85 C70.3686667,85 83.3226667,81.8139167 84.85125,75.7165833 C84.9461667,75.52675 85,75.3114167 85,75.0833333 L85,69.71275 C78.8715,72.5545833 68.6516667,74.0208333 58.7916667,74.0208333 C48.1255833,74.0208333 37.0401667,72.3066667 31.1666667,68.99025 Z" id="Path"></path>
                <path d="M58.0833333,25.8541667 C45.7725,25.8541667 32.7391667,29.1153333 31.3026667,35.1815 C31.2190833,35.3628333 31.1666667,35.5583333 31.1666667,35.7708333 L31.1666667,36.3020833 L31.1666667,39.7715 C34.21675,42.8244167 45.02025,45.6875 58.7916667,45.6875 C70.9013333,45.6875 80.72875,43.47325 85,40.86375 L85,36.3020833 L85,35.7708333 C85,35.5654167 84.949,35.3741667 84.8668333,35.1985 C83.4501667,29.121 70.4055,25.8541667 58.0833333,25.8541667 Z" id="Path"></path>
                <path d="M78.472,0 L6.528,0 C2.92825,0 0,2.92825 0,6.528 L0,23.2205833 C0,24.6004167 0.444833333,25.8683333 1.18291667,26.9166667 L35.2055833,26.9166667 C40.8354167,24.3595833 49.2801667,23.0208333 57.4373333,23.0208333 C65.5945,23.0208333 74.0378333,24.361 79.6676667,26.9166667 L83.8156667,26.9166667 C84.5551667,25.8683333 85,24.6004167 85,23.222 L85,6.528 C85,2.92825 82.07175,0 78.472,0 Z M14.875,21.25 C11.36025,21.25 8.5,18.38975 8.5,14.875 C8.5,11.36025 11.36025,8.5 14.875,8.5 C18.38975,8.5 21.25,11.36025 21.25,14.875 C21.25,18.38975 18.38975,21.25 14.875,21.25 Z M48.1666667,14.1666667 C47.3846667,14.1666667 46.75,13.532 46.75,12.75 C46.75,11.968 47.3846667,11.3333333 48.1666667,11.3333333 C48.9486667,11.3333333 49.5833333,11.968 49.5833333,12.75 C49.5833333,13.532 48.9486667,14.1666667 48.1666667,14.1666667 Z M51,18.4166667 C50.218,18.4166667 49.5833333,17.782 49.5833333,17 C49.5833333,16.218 50.218,15.5833333 51,15.5833333 C51.782,15.5833333 52.4166667,16.218 52.4166667,17 C52.4166667,17.782 51.782,18.4166667 51,18.4166667 Z M53.8333333,14.1666667 C53.0513333,14.1666667 52.4166667,13.532 52.4166667,12.75 C52.4166667,11.968 53.0513333,11.3333333 53.8333333,11.3333333 C54.6153333,11.3333333 55.25,11.968 55.25,12.75 C55.25,13.532 54.6153333,14.1666667 53.8333333,14.1666667 Z M56.6666667,18.4166667 C55.8846667,18.4166667 55.25,17.782 55.25,17 C55.25,16.218 55.8846667,15.5833333 56.6666667,15.5833333 C57.4486667,15.5833333 58.0833333,16.218 58.0833333,17 C58.0833333,17.782 57.4486667,18.4166667 56.6666667,18.4166667 Z M59.5,14.1666667 C58.718,14.1666667 58.0833333,13.532 58.0833333,12.75 C58.0833333,11.968 58.718,11.3333333 59.5,11.3333333 C60.282,11.3333333 60.9166667,11.968 60.9166667,12.75 C60.9166667,13.532 60.282,14.1666667 59.5,14.1666667 Z M62.3333333,18.4166667 C61.5513333,18.4166667 60.9166667,17.782 60.9166667,17 C60.9166667,16.218 61.5513333,15.5833333 62.3333333,15.5833333 C63.1153333,15.5833333 63.75,16.218 63.75,17 C63.75,17.782 63.1153333,18.4166667 62.3333333,18.4166667 Z M65.1666667,14.1666667 C64.3846667,14.1666667 63.75,13.532 63.75,12.75 C63.75,11.968 64.3846667,11.3333333 65.1666667,11.3333333 C65.9486667,11.3333333 66.5833333,11.968 66.5833333,12.75 C66.5833333,13.532 65.9486667,14.1666667 65.1666667,14.1666667 Z M68,18.4166667 C67.218,18.4166667 66.5833333,17.782 66.5833333,17 C66.5833333,16.218 67.218,15.5833333 68,15.5833333 C68.782,15.5833333 69.4166667,16.218 69.4166667,17 C69.4166667,17.782 68.782,18.4166667 68,18.4166667 Z M70.8333333,14.1666667 C70.0513333,14.1666667 69.4166667,13.532 69.4166667,12.75 C69.4166667,11.968 70.0513333,11.3333333 70.8333333,11.3333333 C71.6153333,11.3333333 72.25,11.968 72.25,12.75 C72.25,13.532 71.6153333,14.1666667 70.8333333,14.1666667 Z M73.6666667,18.4166667 C72.8846667,18.4166667 72.25,17.782 72.25,17 C72.25,16.218 72.8846667,15.5833333 73.6666667,15.5833333 C74.4486667,15.5833333 75.0833333,16.218 75.0833333,17 C75.0833333,17.782 74.4486667,18.4166667 73.6666667,18.4166667 Z" id="Shape"></path>
                <path d="M28.3333333,53.8333333 C28.3333333,53.6123333 28.3333333,49.5833333 28.3333333,49.5833333 L28.3333333,49.0520833 L28.3333333,48.5208333 L28.3333333,43.4845833 L28.3333333,39.7715 L28.3333333,36.3020833 L28.3333333,35.7708333 C28.3333333,35.5583333 28.38575,35.3628333 28.4693333,35.1815 C28.9864167,32.9984167 31.02075,31.1850833 33.9674167,29.75 L1.18291667,29.75 C0.444833333,30.7983333 0,32.06625 0,33.4446667 L0,50.13725 C0,51.5170833 0.444833333,52.785 1.18291667,53.8333333 L28.3333333,53.8333333 Z M14.875,35.4166667 C18.38975,35.4166667 21.25,38.2769167 21.25,41.7916667 C21.25,45.3064167 18.38975,48.1666667 14.875,48.1666667 C11.36025,48.1666667 8.5,45.3064167 8.5,41.7916667 C8.5,38.2769167 11.36025,35.4166667 14.875,35.4166667 Z" id="Shape"></path>
                <path d="M32.1838333,80.1394167 C30.2203333,78.8885 28.8915,77.401 28.475,75.6811667 C28.3843333,75.4998333 28.3333333,75.2958333 28.3333333,75.0833333 L28.3333333,68.99025 L28.3333333,65.297 L28.3333333,62.3333333 L28.3333333,61.8020833 L28.3333333,61.2708333 L28.3333333,56.6666667 L1.18291667,56.6666667 C0.444833333,57.715 0,58.9829167 0,60.3613333 L0,77.0539167 C0,80.66075 2.92258333,83.5833333 6.528,83.5833333 L31.27575,83.5833333 C31.2913333,83.5833333 31.3055,83.5833333 31.3210833,83.5833333 C33.116,83.5578333 33.6968333,81.10275 32.1838333,80.1394167 Z M14.875,75.0833333 C11.36025,75.0833333 8.5,72.2230833 8.5,68.7083333 C8.5,65.1935833 11.36025,62.3333333 14.875,62.3333333 C18.38975,62.3333333 21.25,65.1935833 21.25,68.7083333 C21.25,72.2230833 18.38975,75.0833333 14.875,75.0833333 Z" id="Shape"></path>
            </g>
        </g>
    </g>
</svg>