<?xml version="1.0" encoding="UTF-8"?>
<svg width="141px" height="104px" viewBox="0 0 141 104" version="1.1" xmlns="http://www.w3.org/2000/svg" xmlns:xlink="http://www.w3.org/1999/xlink">
    <!-- Generator: Sketch 50.2 (55047) - http://www.bohemiancoding.com/sketch -->
    <title>DL</title>
    <desc>Created with Sketch.</desc>
    <defs></defs>
    <g id="Page-1" stroke="none" stroke-width="1" fill="none" fill-rule="evenodd">
        <g id="DL">
            <circle id="Oval-2-Copy-4" fill="#CDCDCD" cx="39.0868947" cy="39.0868947" r="39.0868947"></circle>
            <circle id="Oval-2-Copy-6" fill="#CDCDCD" cx="117.223458" cy="80.021306" r="23.4740342"></circle>
            <g id="Group-4" transform="translate(37.698181, 14.136818)">
                <rect id="Rectangle-2-Copy-10" fill="#28A3FF" x="22.3832951" y="78.9305668" width="20.0271587" height="3.53420448"></rect>
                <g id="Group-6" transform="translate(44.766590, 44.766590) rotate(10.000000) translate(-44.766590, -44.766590) translate(8.246477, 16.492954)">
                    <g id="DL">
                        <g id="driver-license">
                            <rect id="Rectangle-Copy-2" fill="#9013FE" x="0" y="0" width="73.040226" height="56.5472717" rx="4"></rect>
                            <path d="M62.9755995,4.84690901 L11.6275685,4.84690901 C8.80390067,4.84690901 6.49246453,7.13716346 6.49246453,9.93495559 L6.49246453,45.5490458 C6.49246453,48.346838 8.80390067,50.6370924 11.6275685,50.6370924 L62.9755995,50.6370924 C65.7992674,50.6370924 68.1107035,48.346838 68.1107035,45.5490458 L68.1107035,9.93495559 C68.1107035,7.13716346 65.7992674,4.84690901 62.9755995,4.84690901 Z M24.4642002,15.0222569 C27.3032124,15.0222569 29.5993042,17.3002887 29.5993042,20.1103035 C29.5993042,22.9203182 27.3032124,25.1983501 24.4642002,25.1983501 C21.6259401,25.1983501 19.3298484,22.9203182 19.3298484,20.1103035 C19.3298484,17.3002887 21.6259401,15.0222569 24.4642002,15.0222569 Z M34.7344081,40.4617445 L14.1947444,40.4617445 L14.1947444,35.3759338 C14.1947444,32.565919 16.4962518,30.2886325 19.3298484,30.2886325 L29.5993042,30.2855023 C32.4375642,30.2855023 34.7344081,32.5635341 34.7344081,35.3735489 L34.7344081,40.4617445 Z M60.4084236,40.4617445 L39.8687599,40.4617445 L39.8687599,35.3736979 L60.4084236,35.3736979 L60.4084236,40.4617445 Z M60.4084236,30.2856514 L39.8687599,30.2856514 L39.8687599,25.1983501 L60.4084236,25.1983501 L60.4084236,30.2856514 Z M60.4084236,20.1103035 L34.7344081,20.1103035 L34.7344081,15.0222569 L60.4084236,15.0222569 L60.4084236,20.1103035 Z" id="Shape" fill="#F8E71C" fill-rule="nonzero"></path>
                        </g>
                    </g>
                </g>
                <g id="Group-6" transform="translate(8.246477, 16.492954)">
                    <g id="DL">
                        <g id="driver-license">
                            <rect id="Rectangle-Copy-2" fill="#28A3FF" x="0" y="0" width="73.040226" height="56.5472717" rx="4"></rect>
                            <path d="M62.9755995,4.84690901 L11.6275685,4.84690901 C8.80390067,4.84690901 6.49246453,7.13716346 6.49246453,9.93495559 L6.49246453,45.5490458 C6.49246453,48.346838 8.80390067,50.6370924 11.6275685,50.6370924 L62.9755995,50.6370924 C65.7992674,50.6370924 68.1107035,48.346838 68.1107035,45.5490458 L68.1107035,9.93495559 C68.1107035,7.13716346 65.7992674,4.84690901 62.9755995,4.84690901 Z M24.4642002,15.0222569 C27.3032124,15.0222569 29.5993042,17.3002887 29.5993042,20.1103035 C29.5993042,22.9203182 27.3032124,25.1983501 24.4642002,25.1983501 C21.6259401,25.1983501 19.3298484,22.9203182 19.3298484,20.1103035 C19.3298484,17.3002887 21.6259401,15.0222569 24.4642002,15.0222569 Z M34.7344081,40.4617445 L14.1947444,40.4617445 L14.1947444,35.3759338 C14.1947444,32.565919 16.4962518,30.2886325 19.3298484,30.2886325 L29.5993042,30.2855023 C32.4375642,30.2855023 34.7344081,32.5635341 34.7344081,35.3735489 L34.7344081,40.4617445 Z M60.4084236,40.4617445 L39.8687599,40.4617445 L39.8687599,35.3736979 L60.4084236,35.3736979 L60.4084236,40.4617445 Z M60.4084236,30.2856514 L39.8687599,30.2856514 L39.8687599,25.1983501 L60.4084236,25.1983501 L60.4084236,30.2856514 Z M60.4084236,20.1103035 L34.7344081,20.1103035 L34.7344081,15.0222569 L60.4084236,15.0222569 L60.4084236,20.1103035 Z" id="Shape" fill="#F8E71C" fill-rule="nonzero"></path>
                        </g>
                    </g>
                </g>
                <circle id="Oval-Copy-5" fill="#28A3FF" cx="3.53420448" cy="76.5744305" r="3.53420448"></circle>
                <circle id="Oval-Copy-5" fill="#28A3FF" cx="23.5613632" cy="3.53420448" r="3.53420448"></circle>
            </g>
        </g>
    </g>
</svg>