<?xml version="1.0" encoding="UTF-8"?>
<svg width="16px" height="16px" viewBox="0 0 16 16" version="1.1" xmlns="http://www.w3.org/2000/svg" xmlns:xlink="http://www.w3.org/1999/xlink">
    <!-- Generator: Sketch 49.3 (51167) - http://www.bohemiancoding.com/sketch -->
    <title>document (1)</title>
    <desc>Created with Sketch.</desc>
    <defs></defs>
    <g id="dashboard" stroke="none" stroke-width="1" fill="none" fill-rule="evenodd">
        <g id="view-indexes" transform="translate(-352.000000, -271.000000)" fill-rule="nonzero">
            <g id="document-(1)" transform="translate(352.000000, 271.000000)">
                <rect id="Rectangle-path" fill="#2399FF" x="1.18518519" y="2.96296296" width="4.74074074" height="1"></rect>
                <rect id="Rectangle-path" fill="#2399FF" x="1.18518519" y="15.4074074" width="7.7037037" height="1"></rect>
                <path d="M6.51851852,10.6666667 L7.05783697,10.6666667 C7.05783697,9.32823886 8.14633946,8.24302713 9.48148148,8.24302713 L9.48148148,7.7037037 C7.84708349,7.70042126 6.51851852,9.03227202 6.51851852,10.6666667 Z" id="Shape" fill="#FFFFFF"></path>
                <path d="M15.6220472,13.7984252 L13.2503937,11.4267717 L12.8850394,11.792126 L12.592126,11.4992126 C13.1086614,10.8094488 13.4173228,9.95905512 13.4173228,9.03307087 C13.4173228,7.30393701 12.3496063,5.82362205 10.8377953,5.20944882 L10.8377953,3.50866142 L7.33228346,0 L0,0 L0,16 L10.8377953,16 L10.8377953,12.8566929 C11.0519685,12.7685039 11.2535433,12.6645669 11.4488189,12.5448819 L11.792126,12.888189 L11.4267717,13.2535433 L13.7984252,15.6251969 C14.2708661,16.0976378 15.1055118,16.1417323 15.6220472,15.6251969 C16.1259843,15.1212598 16.1259843,14.3023622 15.6220472,13.7984252 Z M7.48346457,0.881889764 L9.95590551,3.35433071 L7.48346457,3.35433071 L7.48346457,0.881889764 Z M10.3212598,15.4834646 L0.516535433,15.4834646 L0.516535433,0.516535433 L6.96692913,0.516535433 L6.96692913,3.87086614 L10.3212598,3.87086614 L10.3212598,5.03937008 C9.99055118,4.95433071 9.64724409,4.90393701 9.28818898,4.90393701 C8.56377953,4.90393701 7.88661417,5.09291339 7.29448819,5.42047244 L1.29133858,5.42047244 L1.29133858,5.93700787 L6.57007874,5.93700787 C5.95905512,6.47559055 5.50866142,7.19055118 5.2976378,8 L1.29133858,8 L1.29133858,8.51653543 L5.19685039,8.51653543 C5.17480315,8.68661417 5.16220472,8.85669291 5.16220472,9.03307087 C5.16220472,9.58110236 5.27244094,10.103937 5.46771654,10.5826772 L1.29133858,10.5826772 L1.29133858,11.0992126 L5.71968504,11.0992126 C6.43464567,12.3307087 7.76692913,13.1622047 9.28818898,13.1622047 C9.64409449,13.1622047 9.99055118,13.111811 10.3212598,13.0267717 L10.3212598,15.4834646 Z M9.28818898,12.6456693 C7.2976378,12.6456693 5.67559055,11.023622 5.67559055,9.03307087 C5.67559055,7.03937008 7.2976378,5.42047244 9.28818898,5.42047244 C11.2787402,5.42047244 12.9007874,7.04251969 12.9007874,9.03307087 C12.9007874,11.023622 11.2818898,12.6456693 9.28818898,12.6456693 Z M12.2582677,11.896063 L12.5228346,12.1606299 L12.1574803,12.5228346 L11.880315,12.2456693 C12.0125984,12.1354331 12.1385827,12.0188976 12.2582677,11.896063 Z M12.1574803,13.2535433 L13.2535433,12.1574803 L15.0771654,13.9811024 L13.9811024,15.0771654 L12.1574803,13.2535433 Z M15.2566929,15.2598425 C15.0267717,15.4897638 14.6677165,15.5370079 14.3811024,15.407874 L15.407874,14.3811024 C15.5433071,14.6677165 15.496063,15.023622 15.2566929,15.2598425 Z" id="Shape" fill="#FFFFFF"></path>
            </g>
        </g>
    </g>
</svg>