<?xml version="1.0" encoding="UTF-8"?>
<svg width="20px" height="20px" viewBox="0 0 20 20" version="1.1" xmlns="http://www.w3.org/2000/svg" xmlns:xlink="http://www.w3.org/1999/xlink">
    <!-- Generator: Sketch 49.2 (51160) - http://www.bohemiancoding.com/sketch -->
    <title>flaticon1524051462-svg</title>
    <desc>Created with Sketch.</desc>
    <defs></defs>
    <g id="dashboard" stroke="none" stroke-width="1" fill="none" fill-rule="evenodd">
        <g id="data-sets" transform="translate(-1302.000000, -203.000000)" fill="#6FC04E" fill-rule="nonzero">
            <g id="Group-4" transform="translate(230.000000, 184.000000)">
                <g id="Group-3" transform="translate(1072.000000, 19.000000)">
                    <g id="flaticon1524051462-svg">
                        <path d="M11.9969517,4.18862454 C11.4734572,3.66453532 10.6246097,3.66453532 10.1011896,4.18862454 L9.62728625,4.66304833 L2.99211896,11.3052045 L2.993829,11.3069145 L2.78475836,11.5165799 C2.78475836,11.5165799 2.11799257,12.1881041 0.612565056,17.0481041 C0.602007435,17.0820818 0.591524164,17.1158364 0.580892193,17.1502602 C0.554052045,17.2373234 0.526914498,17.3257993 0.499553903,17.4154647 C0.475315985,17.4947212 0.450780669,17.5756134 0.426171004,17.657026 C0.405427509,17.7256506 0.384832714,17.7935316 0.363791822,17.8636431 C0.31605948,18.0227509 0.267732342,18.184684 0.218438662,18.3518959 C0.110260223,18.7189591 -0.153977695,19.5466914 0.144832714,19.8463197 C0.432565056,20.1349442 1.26899628,19.8810409 1.63501859,19.7724907 C1.80096654,19.7232714 1.96178439,19.6750186 2.1197026,19.6273606 C2.19263941,19.6053532 2.26334572,19.5837918 2.33464684,19.5620818 C2.41130112,19.5387361 2.48758364,19.515539 2.56230483,19.4925651 C2.65665428,19.4635688 2.74966543,19.4349442 2.84111524,19.4065428 C2.86840149,19.3980669 2.89516729,19.3896654 2.92223048,19.3812639 C7.546171,17.941487 8.37628253,17.2657993 8.44527881,17.2040149 C8.44579926,17.2036431 8.44579926,17.2036431 8.446171,17.2032714 C8.44907063,17.2005948 8.45107807,17.1988104 8.45107807,17.1988104 L8.66513011,16.9842379 L8.67947955,16.9985874 L15.3147955,10.3564312 L15.3147212,10.3563569 L15.7886245,9.88193309 C16.312119,9.35791822 16.312119,8.50825279 15.7886245,7.98416357 L11.9969517,4.18862454 Z M7.68765799,16.3406691 C7.68185874,16.3446097 7.6739777,16.3497398 7.66565056,16.3550186 C7.66104089,16.3579926 7.65546468,16.361487 7.64996283,16.3649071 C7.64438662,16.3684015 7.63828996,16.3721933 7.63182156,16.3761338 C7.62609665,16.3796283 7.6201487,16.383197 7.61375465,16.3870632 C7.39301115,16.5191822 6.74520446,16.8600743 5.17301115,17.4292193 C4.98929368,17.4956877 4.78921933,17.566171 4.57962825,17.6388104 L2.34468401,15.4015613 C2.41754647,15.1904089 2.48810409,14.9888476 2.55479554,14.8037175 C3.12267658,13.2249071 3.46327138,12.5751673 3.59464684,12.3547212 C3.59784387,12.3494424 3.60074349,12.3446097 3.60364312,12.3398513 C3.60825279,12.3322677 3.61256506,12.3252045 3.61657993,12.3187361 C3.61977695,12.3136059 3.62312268,12.3082528 3.62594796,12.3038662 C3.63122677,12.2956134 3.63635688,12.2877323 3.6402974,12.2818587 L3.80386617,12.1178439 L7.85479554,16.1730112 L7.68765799,16.3406691 Z M19.58,4.18862454 L15.7884015,0.393085502 C15.2649071,-0.130929368 14.4162082,-0.130929368 13.8926394,0.393085502 L12.9448327,1.34200743 C12.4213383,1.8660223 12.4213383,2.71568773 12.9448327,3.2397026 L16.7363569,7.03524164 C17.259777,7.55925651 18.1086245,7.55925651 18.632119,7.03524164 L19.58,6.08639405 C20.1034944,5.56230483 20.1034944,4.71263941 19.58,4.18862454 Z" id="Shape"></path>
                    </g>
                </g>
            </g>
        </g>
    </g>
</svg>