<?xml version="1.0" encoding="UTF-8"?>
<svg width="16px" height="16px" viewBox="0 0 16 16" version="1.1" xmlns="http://www.w3.org/2000/svg" xmlns:xlink="http://www.w3.org/1999/xlink">
    <!-- Generator: Sketch 49.3 (51167) - http://www.bohemiancoding.com/sketch -->
    <title>file (1)</title>
    <desc>Created with Sketch.</desc>
    <defs></defs>
    <g id="dashboard" stroke="none" stroke-width="1" fill="none" fill-rule="evenodd">
        <g id="view-indexes" transform="translate(-574.000000, -273.000000)" fill="#FFFFFF" fill-rule="nonzero">
            <g id="file-(1)" transform="translate(574.000000, 273.000000)">
                <path d="M9.79173333,5.86666667 L3.12506667,5.86666667 C2.97786667,5.86666667 2.8584,5.98613333 2.8584,6.13333333 C2.8584,6.28053333 2.97786667,6.4 3.12506667,6.4 L9.79173333,6.4 C9.93893333,6.4 10.0584,6.28053333 10.0584,6.13333333 C10.0584,5.98613333 9.93893333,5.86666667 9.79173333,5.86666667 Z" id="Shape"></path>
                <path d="M3.12506667,4.26666667 L5.79173333,4.26666667 C5.93893333,4.26666667 6.0584,4.1472 6.0584,4 C6.0584,3.8528 5.93893333,3.73333333 5.79173333,3.73333333 L3.12506667,3.73333333 C2.97786667,3.73333333 2.8584,3.8528 2.8584,4 C2.8584,4.1472 2.97786667,4.26666667 3.12506667,4.26666667 Z" id="Shape"></path>
                <path d="M9.79173333,8 L3.12506667,8 C2.97786667,8 2.8584,8.11946667 2.8584,8.26666667 C2.8584,8.41386667 2.97786667,8.53333333 3.12506667,8.53333333 L9.79173333,8.53333333 C9.93893333,8.53333333 10.0584,8.41386667 10.0584,8.26666667 C10.0584,8.11946667 9.93893333,8 9.79173333,8 Z" id="Shape"></path>
                <path d="M7.6584,10.1333333 L3.12506667,10.1333333 C2.97786667,10.1333333 2.8584,10.2528 2.8584,10.4 C2.8584,10.5472 2.97786667,10.6666667 3.12506667,10.6666667 L7.6584,10.6666667 C7.8056,10.6666667 7.92506667,10.5472 7.92506667,10.4 C7.92506667,10.2528 7.8056,10.1333333 7.6584,10.1333333 Z" id="Shape"></path>
                <path d="M6.8584,12.8 C7.0056,12.8 7.12506667,12.6805333 7.12506667,12.5333333 C7.12506667,12.3861333 7.0056,12.2666667 6.8584,12.2666667 L3.12506667,12.2666667 C2.97786667,12.2666667 2.8584,12.3861333 2.8584,12.5333333 C2.8584,12.6805333 2.97786667,12.8 3.12506667,12.8 L6.8584,12.8 Z" id="Shape"></path>
                <path d="M0.725066667,0.533333333 L8.4584,0.533333333 L8.4584,4.26666667 L12.1917333,4.26666667 L12.1917333,9.06666667 L12.7250667,9.06666667 L12.7250667,3.8896 L8.83546667,0 L0.191733333,0 L0.191733333,16 L7.92506667,16 L7.92506667,15.4666667 L0.725066667,15.4666667 L0.725066667,0.533333333 Z M8.99173333,0.9104 L11.8146667,3.73333333 L8.99173333,3.73333333 L8.99173333,0.9104 Z" id="Shape"></path>
                <path d="M15.5752,9.90986667 L14.8154667,9.14986667 C14.5146667,8.84906667 13.9904,8.84906667 13.6896,9.14986667 L9.58533333,13.2538667 L9.01973333,15.3282667 L8.88133333,15.4666667 C8.77786667,15.5701333 8.7776,15.7370667 8.87973333,15.8413333 L8.8784,15.8466667 L8.88373333,15.8453333 C8.93546667,15.896 9.00266667,15.9218667 9.06986667,15.9218667 C9.13813333,15.9218667 9.2064,15.8957333 9.2584,15.8437333 L9.3968,15.7053333 L11.4712,15.1397333 L15.5752,11.0354667 C15.7256,10.8850667 15.8085333,10.6853333 15.8085333,10.4725333 C15.8085333,10.2597333 15.7256,10.06 15.5752,9.90986667 Z M10.2010667,13.3925333 L12.9325333,10.6610667 L14.064,11.7925333 L11.3325333,14.524 L10.2010667,13.3925333 Z M9.96026667,13.9058667 L10.8189333,14.7645333 L9.6384,15.0864 L9.96026667,13.9058667 Z M15.1981333,10.6584 L14.4410667,11.4154667 L13.3096,10.284 L14.0666667,9.52693333 C14.1658667,9.42773333 14.3389333,9.42746667 14.4381333,9.52693333 L15.1981333,10.2869333 C15.2477333,10.3365333 15.2752,10.4024 15.2752,10.4725333 C15.2749333,10.5426667 15.2477333,10.6088 15.1981333,10.6584 Z" id="Shape"></path>
            </g>
        </g>
    </g>
</svg>