<?xml version="1.0" encoding="UTF-8"?>
<svg width="20px" height="21px" viewBox="0 0 20 21" version="1.1" xmlns="http://www.w3.org/2000/svg" xmlns:xlink="http://www.w3.org/1999/xlink">
    <!-- Generator: Sketch 49.3 (51167) - http://www.bohemiancoding.com/sketch -->
    <title>flaticon1524054466-svg</title>
    <desc>Created with Sketch.</desc>
    <defs></defs>
    <g id="dashboard" stroke="none" stroke-width="1" fill="none" fill-rule="evenodd">
        <g id="Edit-Data-Sets" transform="translate(-792.000000, -394.000000)" fill="#8D8D8D" fill-rule="nonzero">
            <g id="flaticon1524054466-svg" transform="translate(792.000000, 394.000000)">
                <path d="M7.23238494,11.2682427 C7.23238494,11.0123849 7.02485356,10.8051046 6.76878661,10.8051046 L5.15100418,10.8051046 C4.89523013,10.8051046 4.6876569,11.0123849 4.6876569,11.2682427 L4.6876569,12.8858159 C4.6876569,13.1420084 4.89523013,13.3493724 5.15100418,13.3493724 L6.76878661,13.3493724 C7.02485356,13.3493724 7.23238494,13.1420084 7.23238494,12.8858159 L7.23238494,11.2682427 Z" id="Shape"></path>
                <path d="M11.2754393,11.2682427 C11.2754393,11.0123849 11.0678661,10.8051046 10.8123013,10.8051046 L9.19430962,10.8051046 C8.93853556,10.8051046 8.73096234,11.0123849 8.73096234,11.2682427 L8.73096234,12.8858159 C8.73096234,13.1420084 8.93853556,13.3493724 9.19430962,13.3493724 L10.8123013,13.3493724 C11.0678661,13.3493724 11.2754393,13.1420084 11.2754393,12.8858159 L11.2754393,11.2682427 Z" id="Shape"></path>
                <path d="M15.3187029,11.2682427 C15.3187029,11.0123849 15.1111297,10.8051046 14.8553556,10.8051046 L13.2375732,10.8051046 C12.9815063,10.8051046 12.7739749,11.0123849 12.7739749,11.2682427 L12.7739749,12.8858159 C12.7739749,13.1420084 12.9815063,13.3493724 13.2375732,13.3493724 L14.8553556,13.3493724 C15.1111297,13.3493724 15.3187029,13.1420084 15.3187029,12.8858159 L15.3187029,11.2682427 Z" id="Shape"></path>
                <path d="M7.23238494,15.3117155 C7.23238494,15.0554393 7.02485356,14.8483264 6.76878661,14.8483264 L5.15100418,14.8483264 C4.89523013,14.8483264 4.6876569,15.0554393 4.6876569,15.3117155 L4.6876569,16.9289958 C4.6876569,17.1850209 4.89523013,17.3923431 5.15100418,17.3923431 L6.76878661,17.3923431 C7.02485356,17.3923431 7.23238494,17.1849791 7.23238494,16.9289958 L7.23238494,15.3117155 Z" id="Shape"></path>
                <path d="M11.2754393,15.3117155 C11.2754393,15.0554393 11.0678661,14.8483264 10.8123013,14.8483264 L9.19430962,14.8483264 C8.93853556,14.8483264 8.73096234,15.0554393 8.73096234,15.3117155 L8.73096234,16.9289958 C8.73096234,17.1850209 8.93853556,17.3923431 9.19430962,17.3923431 L10.8123013,17.3923431 C11.0678661,17.3923431 11.2754393,17.1849791 11.2754393,16.9289958 L11.2754393,15.3117155 Z" id="Shape"></path>
                <path d="M15.3187029,15.3117155 C15.3187029,15.0554393 15.1111297,14.8483264 14.8555649,14.8483264 L13.2375732,14.8483264 C12.9815063,14.8483264 12.7739749,15.0554393 12.7739749,15.3117155 L12.7739749,16.9289958 C12.7739749,17.1850209 12.9815063,17.3923431 13.2375732,17.3923431 L14.8555649,17.3923431 C15.1111297,17.3923431 15.3187029,17.1849791 15.3187029,16.9289958 L15.3187029,15.3117155 Z" id="Shape"></path>
                <path d="M18.2114644,2.27422594 L18.2114644,4.74493724 C18.2114644,5.86167364 17.305523,6.76158996 16.188954,6.76158996 L14.9130962,6.76158996 C13.7964435,6.76158996 12.8784937,5.86167364 12.8784937,4.74493724 L12.8784937,2.26535565 L7.12786611,2.26535565 L7.12786611,4.74493724 C7.12786611,5.86167364 6.20995816,6.76158996 5.0934728,6.76158996 L3.81736402,6.76158996 C2.70083682,6.76158996 1.79493724,5.86167364 1.79493724,4.74493724 L1.79493724,2.27422594 C0.819079498,2.30364017 0.0171966527,3.11112971 0.0171966527,4.10364017 L0.0171966527,18.5831799 C0.0171966527,19.5943515 0.836778243,20.4248117 1.84794979,20.4248117 L18.15841,20.4248117 C19.1680753,20.4248117 19.9891632,19.592636 19.9891632,18.5831799 L19.9891632,4.10364017 C19.9891632,3.11112971 19.1873222,2.30364017 18.2114644,2.27422594 Z M17.6188703,17.6815063 C17.6188703,18.1184937 17.2645607,18.4730126 16.8274059,18.4730126 L3.14410042,18.4730126 C2.70694561,18.4730126 2.35263598,18.1184937 2.35263598,17.6815063 L2.35263598,10.2023013 C2.35263598,9.76514644 2.70690377,9.41062762 3.14410042,9.41062762 L16.827364,9.41062762 C17.2645188,9.41062762 17.6188285,9.76514644 17.6188285,10.2023013 L17.6188703,17.6815063 Z" id="Shape"></path>
                <path d="M3.81288703,5.43702929 L5.0748954,5.43702929 C5.45794979,5.43702929 5.76853556,5.12690377 5.76853556,4.74384937 L5.76853556,0.693430962 C5.76853556,0.310334728 5.45794979,0 5.0748954,0 L3.81288703,0 C3.42979079,0 3.11924686,0.310334728 3.11924686,0.693430962 L3.11924686,4.74384937 C3.11924686,5.12690377 3.42979079,5.43702929 3.81288703,5.43702929 Z" id="Shape"></path>
                <path d="M14.8968619,5.43702929 L16.1588703,5.43702929 C16.5416736,5.43702929 16.8522594,5.12690377 16.8522594,4.74384937 L16.8522594,0.693430962 C16.8523013,0.310334728 16.5417155,0 16.1588703,0 L14.8968619,0 C14.5138494,0 14.2032636,0.310334728 14.2032636,0.693430962 L14.2032636,4.74384937 C14.2032636,5.12690377 14.5138494,5.43702929 14.8968619,5.43702929 Z" id="Shape"></path>
            </g>
        </g>
    </g>
</svg>