<?xml version="1.0" encoding="UTF-8"?>
<svg width="48px" height="49px" viewBox="0 0 48 49" version="1.1" xmlns="http://www.w3.org/2000/svg" xmlns:xlink="http://www.w3.org/1999/xlink">
    <!-- Generator: Sketch 53.2 (72643) - https://sketchapp.com -->
    <title>herbal-spa-treatment-leaves</title>
    <desc>Created with Sketch.</desc>
    <g id="Page-1" stroke="none" stroke-width="1" fill="none" fill-rule="evenodd">
        <g id="dashboard-copy-changes-1" transform="translate(-267.000000, -119.000000)" fill="#FFFFFF" fill-rule="nonzero">
            <g id="Environment-Tiers" transform="translate(244.000000, 100.000000)">
                <g id="Group-2" transform="translate(20.000000, 19.000000)">
                    <g id="herbal-spa-treatment-leaves" transform="translate(3.000000, 0.000000)">
                        <path d="M2.88526163,10.7170858 C4.65237642,14.8613647 7.63562358,18.9604974 11.8101841,20.7273504 C12.2867094,20.9275546 12.8277642,21.0777079 13.3837104,21.2028355 C14.4956029,19.5311297 15.7713009,18.1746956 17.2654064,17.0636118 C18.5509824,16.1126415 19.8962234,15.3668805 21.2810755,14.7812329 C20.883971,14.5009469 20.467061,14.2456864 20.0301965,14.0154515 C18.2928645,13.0995169 16.4116319,12.2936946 14.579938,11.427811 C16.3023785,11.8982911 18.2779731,12.0734699 19.9259566,12.6790878 C20.9534643,13.059526 21.9015512,13.5850623 22.7851086,14.2107007 C25.420939,13.3047263 28.1758511,12.8692819 30.9257497,12.5389949 C28.6970507,8.80518488 23.9416753,5.80712564 20.3578077,4.45074157 C16.6150982,3.03424617 12.3760083,2.85906742 8.21137539,2.42367314 C5.65997932,2.1583524 2.885212,1.19742186 0.855015512,0.0762778345 C0.393381593,-0.178982635 -0.0980351603,0.246451481 0.0608066184,0.761977528 C1.05858118,3.98021144 1.56488935,7.62392952 2.88526163,10.7170858 Z" id="Path"></path>
                        <path d="M46.8894478,10.2265853 C42.1936381,12.7992104 36.807909,13.1145322 31.5314333,13.7251553 C28.9552678,14.0254617 26.4038221,14.3957896 23.9764716,15.1365955 C23.4503082,15.2967089 22.9241944,15.4769428 22.407909,15.6771471 C20.8740931,16.2677497 19.394879,17.0435414 18.0000496,18.0795986 C16.689605,19.0505393 15.617423,20.201764 14.7140103,21.4680562 C13.2745067,23.4900695 12.271818,25.8174443 11.4478263,28.2349612 C9.94379317,32.6243902 9.2538242,37.2891502 9.38784695,41.9289346 C9.44244881,43.810855 9.47223164,45.7678519 9.93386556,47.6047263 C10.0381055,48.0101399 10.1373816,48.5256159 10.4501013,48.8259224 C10.8571334,49.2213258 11.5868128,48.8159122 11.4230072,48.2403248 C10.2416215,44.1811828 10.9762647,39.4363912 12.6093568,35.5574331 C14.4856753,31.0978325 18.1092534,28.4451256 22.5369679,26.828526 C23.7133899,26.3980868 24.9146805,26.0227038 26.135727,25.6673412 C26.160546,25.657381 26.185365,25.657381 26.2101841,25.657381 C26.4534105,25.657381 26.5576505,26.0176987 26.3044964,26.1328662 C24.8649928,26.7885352 23.4354168,27.4492094 22.0752844,28.1649397 C15.4138573,31.6685148 12.5050672,39.8268396 15.0018614,39.8268396 C15.2054271,39.8268396 15.4436401,39.7717835 15.7166494,39.656666 C19.5685626,38.0500266 24.1451913,38.0350613 28.3793175,37.2442543 C29.8684592,36.9689734 31.3178904,36.5935904 32.6780228,36.0230082 C38.0786432,33.7506895 41.940484,29.3061542 44.2386763,23.9606997 C45.9511892,19.9716292 46.6163392,15.2618233 47.9118925,11.1175444 C48.0806618,10.5870031 47.7083764,10.1315884 47.2517063,10.1315884 C47.1376381,10.1264831 47.0135429,10.1565638 46.8894478,10.2265853 Z" id="Path"></path>
                    </g>
                </g>
            </g>
        </g>
    </g>
</svg>