<?xml version="1.0" encoding="UTF-8"?>
<svg width="108px" height="79px" viewBox="0 0 108 79" version="1.1" xmlns="http://www.w3.org/2000/svg" xmlns:xlink="http://www.w3.org/1999/xlink">
    <!-- Generator: Sketch 53.2 (72643) - https://sketchapp.com -->
    <title>id-card</title>
    <desc>Created with Sketch.</desc>
    <g id="Page-1" stroke="none" stroke-width="1" fill="none" fill-rule="evenodd">
        <g id="dashboard-copy-changes-1" transform="translate(-262.000000, -380.000000)" fill="#FFFFFF" fill-rule="nonzero">
            <g id="id-card" transform="translate(262.000000, 380.000000)">
                <path d="M100.4094,0 L7.5906,0 C3.4056,0 0,3.397 0,7.57143182 L0,71.4285682 C0,75.603 3.4056,79 7.5906,79 L100.4094,79 C104.5944,79 108,75.603 108,71.4285682 L108,7.57143182 C108,3.397 104.5944,0 100.4094,0 Z M104.4,71.4285682 C104.4,73.6244091 102.6108,75.4090909 100.4094,75.4090909 L7.5906,75.4090909 C5.3892,75.4090909 3.6,73.6244091 3.6,71.4285682 L3.6,7.57143182 C3.6,5.37559091 5.3892,3.59090909 7.5906,3.59090909 L100.4094,3.59090909 C102.6108,3.59090909 104.4,5.37559091 104.4,7.57143182 L104.4,71.4285682 Z" id="Shape"></path>
                <path d="M40.7556,50.718 L34.2,47.3784545 L34.2,46.6836136 C37.1304,45.0874545 39.1914,42.4589091 40.3416,38.84825 C42.0858,37.9253864 43.2,36.1281364 43.2,34.1136364 L43.2,32.3181818 C43.2,30.6555909 42.4242,29.1132955 41.1282,28.1006591 C40.005,21.3138409 35.2566,17.87375 27,17.87375 C26.6094,17.87375 26.2278,17.8881136 25.8552,17.9168409 C23.6916,18.091 21.6018,17.6259773 20.052,16.5882045 C19.3158,16.0926591 18.7596,15.6114773 18.405,15.1644091 C17.6058,14.1445909 15.9408,14.0997045 15.0876,15.0530909 C14.679,15.5091364 14.4864,16.1231818 14.5584,16.7336364 C14.634,17.4051364 14.7474,18.1861591 14.9184,19.0425909 C15.2658,20.7931591 15.2658,20.7931591 14.778,21.8399091 C14.5944,22.2367045 14.3676,22.7196818 14.1012,23.3714318 C13.5054,24.8275455 13.0824,26.4219091 12.8394,28.124 C11.5632,29.1384318 10.8,30.67175 10.8,32.3181818 L10.8,34.1136364 C10.8,36.1281364 11.9142,37.9253864 13.6584,38.84825 C14.8086,42.4607045 16.8696,45.08925 19.8,46.6836136 L19.8,47.3587045 L13.0158,50.6946591 C10.539,52.04125 9,54.6267045 9,57.4419773 L9,59.8209545 C9,61.2627045 9,64.6363636 27,64.6363636 C45,64.6363636 45,61.2627045 45,59.8209545 L45,57.5856136 C45,54.6554318 43.3692,52.0215 40.7556,50.718 Z" id="Path"></path>
                <path d="M54,26.9318182 L72,26.9318182 C72.9954,26.9318182 73.8,26.12925 73.8,25.1363636 C73.8,24.1434773 72.9954,23.3409091 72,23.3409091 L54,23.3409091 C53.0046,23.3409091 52.2,24.1434773 52.2,25.1363636 C52.2,26.12925 53.0046,26.9318182 54,26.9318182 Z" id="Path"></path>
                <path d="M79.2,26.9318182 L81,26.9318182 C81.9954,26.9318182 82.8,26.12925 82.8,25.1363636 C82.8,24.1434773 81.9954,23.3409091 81,23.3409091 L79.2,23.3409091 C78.2046,23.3409091 77.4,24.1434773 77.4,25.1363636 C77.4,26.12925 78.2046,26.9318182 79.2,26.9318182 Z" id="Path"></path>
                <path d="M55.8,53.8636364 L54,53.8636364 C53.0046,53.8636364 52.2,54.6662045 52.2,55.6590909 C52.2,56.6519773 53.0046,57.4545455 54,57.4545455 L55.8,57.4545455 C56.7954,57.4545455 57.6,56.6519773 57.6,55.6590909 C57.6,54.6662045 56.7954,53.8636364 55.8,53.8636364 Z" id="Path"></path>
                <path d="M66.6,53.8636364 L63,53.8636364 C62.0046,53.8636364 61.2,54.6662045 61.2,55.6590909 C61.2,56.6519773 62.0046,57.4545455 63,57.4545455 L66.6,57.4545455 C67.5954,57.4545455 68.4,56.6519773 68.4,55.6590909 C68.4,54.6662045 67.5954,53.8636364 66.6,53.8636364 Z" id="Path"></path>
                <path d="M75.6,53.8636364 L73.8,53.8636364 C72.8046,53.8636364 72,54.6662045 72,55.6590909 C72,56.6519773 72.8046,57.4545455 73.8,57.4545455 L75.6,57.4545455 C76.5954,57.4545455 77.4,56.6519773 77.4,55.6590909 C77.4,54.6662045 76.5954,53.8636364 75.6,53.8636364 Z" id="Path"></path>
                <path d="M86.4,53.8636364 L82.8,53.8636364 C81.8046,53.8636364 81,54.6662045 81,55.6590909 C81,56.6519773 81.8046,57.4545455 82.8,57.4545455 L86.4,57.4545455 C87.3954,57.4545455 88.2,56.6519773 88.2,55.6590909 C88.2,54.6662045 87.3954,53.8636364 86.4,53.8636364 Z" id="Path"></path>
                <path d="M92.322,54.3843182 C91.9962,54.7236591 91.8,55.1922727 91.8,55.6590909 C91.8,56.1259091 91.9962,56.5927273 92.322,56.9338636 C92.6622,57.2570455 93.132,57.4545455 93.6,57.4545455 C94.068,57.4545455 94.536,57.2570455 94.878,56.9338636 C95.202,56.5927273 95.4,56.1259091 95.4,55.6590909 C95.4,55.1922727 95.202,54.7236591 94.878,54.3843182 C94.194,53.72 92.988,53.72 92.322,54.3843182 Z" id="Path"></path>
                <path d="M93.6,34.1136364 L54,34.1136364 C53.0046,34.1136364 52.2,34.9162045 52.2,35.9090909 C52.2,36.9019773 53.0046,37.7045455 54,37.7045455 L93.6,37.7045455 C94.5954,37.7045455 95.4,36.9019773 95.4,35.9090909 C95.4,34.9162045 94.5954,34.1136364 93.6,34.1136364 Z" id="Path"></path>
                <path d="M93.6,44.8863636 L54,44.8863636 C53.0046,44.8863636 52.2,45.6889318 52.2,46.6818182 C52.2,47.6747045 53.0046,48.4772727 54,48.4772727 L93.6,48.4772727 C94.5954,48.4772727 95.4,47.6747045 95.4,46.6818182 C95.4,45.6889318 94.5954,44.8863636 93.6,44.8863636 Z" id="Path"></path>
            </g>
        </g>
    </g>
</svg>