<?xml version="1.0" encoding="UTF-8"?>
<svg width="376px" height="47px" viewBox="0 0 376 47" version="1.1" xmlns="http://www.w3.org/2000/svg" xmlns:xlink="http://www.w3.org/1999/xlink">
    <!-- Generator: Sketch 49.2 (51160) - http://www.bohemiancoding.com/sketch -->
    <title>Group 27</title>
    <desc>Created with Sketch.</desc>
    <defs></defs>
    <g id="dashboard" stroke="none" stroke-width="1" fill="none" fill-rule="evenodd">
        <g id="Login" transform="translate(-160.000000, -493.000000)">
            <g id="Group-27" transform="translate(160.000000, 478.000000)">
                <path d="M66.2575,50.16 L73.9975,50.16 C77.4175,50.16 78.4975,46.62 78.4975,38.16 C78.4975,27.3 76.8175,25.92 73.9975,25.92 L66.2575,25.92 L66.2575,50.16 Z M54.6175,60 L54.6175,16.08 L75.1975,16.08 C87.1375,16.08 90.1375,25.8 90.1375,38.22 C90.1375,53.58 85.2175,60 75.1975,60 L54.6175,60 Z M107.7625,42.42 L114.6025,42.42 L111.4225,30.66 L107.7625,42.42 Z M90.6625,60 L104.4025,16.08 L118.1425,16.08 L131.4625,60 L119.5225,60 L116.9425,52.32 L105.1225,52.32 L102.6025,60 L90.6625,60 Z M127.2475,26.52 L127.2475,16.08 L161.3275,16.08 L161.3275,26.52 L149.9275,26.52 L149.9275,60 L138.2875,60 L138.2875,26.52 L127.2475,26.52 Z M174.0925,42.42 L180.9325,42.42 L177.7525,30.66 L174.0925,42.42 Z M156.9925,60 L170.7325,16.08 L184.4725,16.08 L197.7925,60 L185.8525,60 L183.2725,52.32 L171.4525,52.32 L168.9325,60 L156.9925,60 Z M198.4975,31.26 L198.4975,27.6 C198.4975,19.74 203.6575,16.14 210.3775,15.72 C219.2575,15.18 224.5375,16.08 228.9775,17.7 L228.9775,26.76 C225.1375,26.34 218.5375,26.16 214.5775,26.16 C211.3375,26.16 210.1375,26.28 210.1375,28.8 L210.1375,29.46 C210.1375,31.32 210.4975,32.34 213.7375,32.34 L219.3775,32.34 C228.4975,32.34 230.5975,40.26 230.5975,45.06 L230.5975,47.04 C230.5975,58.2 224.3575,60.48 218.4175,60.48 C207.1975,60.48 205.8775,60.48 199.8775,58.44 L199.8775,49.38 C202.2775,49.62 209.8375,50.04 215.4175,50.04 C217.9975,50.04 218.9575,49.38 218.9575,47.58 L218.9575,46.62 C218.9575,44.88 218.4175,43.98 215.7775,43.98 L210.3775,43.98 C198.9775,43.98 198.4975,34.08 198.4975,31.26 Z M234.3625,50.34 L234.3625,26.28 C234.3625,17.22 241.2625,16.08 245.5225,16.08 C245.5225,16.08 258.1225,16.08 265.1425,17.04 L265.1425,26.82 L249.1225,26.82 C246.0025,26.82 246.0025,28.56 246.0025,30.18 L246.0025,32.82 L262.1425,33.48 L262.1425,43.14 L246.0025,43.68 L246.0025,46.32 C246.0025,49.5 247.9825,49.44 249.7225,49.44 L265.1425,49.44 L265.1425,59.16 C258.9625,60 246.1225,60.18 246.1225,60.18 C242.2225,60.3 234.3625,59.52 234.3625,50.34 Z M268.6075,60 L268.6075,16.08 L280.3675,16.08 L292.9075,38.52 L292.9075,16.08 L304.5475,16.08 L304.5475,60 L292.9075,60 L280.3075,38.16 L280.3075,60 L268.6075,60 Z M308.6725,31.26 L308.6725,27.6 C308.6725,19.74 313.8325,16.14 320.5525,15.72 C329.4325,15.18 334.7125,16.08 339.1525,17.7 L339.1525,26.76 C335.3125,26.34 328.7125,26.16 324.7525,26.16 C321.5125,26.16 320.3125,26.28 320.3125,28.8 L320.3125,29.46 C320.3125,31.32 320.6725,32.34 323.9125,32.34 L329.5525,32.34 C338.6725,32.34 340.7725,40.26 340.7725,45.06 L340.7725,47.04 C340.7725,58.2 334.5325,60.48 328.5925,60.48 C317.3725,60.48 316.0525,60.48 310.0525,58.44 L310.0525,49.38 C312.4525,49.62 320.0125,50.04 325.5925,50.04 C328.1725,50.04 329.1325,49.38 329.1325,47.58 L329.1325,46.62 C329.1325,44.88 328.5925,43.98 325.9525,43.98 L320.5525,43.98 C309.1525,43.98 308.6725,34.08 308.6725,31.26 Z M344.5375,50.34 L344.5375,26.28 C344.5375,17.22 351.4375,16.08 355.6975,16.08 C355.6975,16.08 368.2975,16.08 375.3175,17.04 L375.3175,26.82 L359.2975,26.82 C356.1775,26.82 356.1775,28.56 356.1775,30.18 L356.1775,32.82 L372.3175,33.48 L372.3175,43.14 L356.1775,43.68 L356.1775,46.32 C356.1775,49.5 358.1575,49.44 359.8975,49.44 L375.3175,49.44 L375.3175,59.16 C369.1375,60 356.2975,60.18 356.2975,60.18 C352.3975,60.3 344.5375,59.52 344.5375,50.34 Z" id="Datasense" fill="#FFFBF4"></path>
                <g id="database-(3)" transform="translate(0.000000, 16.000000)" fill="#FFFFFF" fill-rule="nonzero">
                    <path d="M33.3760667,33.1353333 C33.1560333,33.1414667 32.936,33.1460667 32.7159667,33.1499 C32.6738,33.1506667 32.6316333,33.1514333 32.5887,33.1522 C32.3311,33.1560333 32.0735,33.1575667 31.8166667,33.1575667 C31.5590667,33.1575667 31.3007,33.1552667 31.0423333,33.1522 C31.0078333,33.1514333 30.9725667,33.1506667 30.9380667,33.1499 C30.7096,33.1460667 30.4819,33.1414667 30.2534333,33.1345667 C30.2373333,33.1345667 30.2212333,33.1338 30.2059,33.1330333 C24.9542333,32.9781667 19.7501,32.0635333 16.8666667,30.4359 L16.8666667,33.1583333 L16.8666667,33.4458333 L16.8666667,33.7333333 L16.8666667,35.3364333 C18.5058,36.9893667 24.2282,38.525 31.8166667,38.525 C38.4928,38.525 43.7207,37.3359 46,35.9252333 L46,33.7333333 L46,33.4458333 L46,33.1583333 L46,30.8269 C43.0199667,32.2084333 38.2543667,32.9889 33.4473667,33.1330333 C33.4236,33.1338 33.3998333,33.1345667 33.3760667,33.1353333 Z" id="Shape"></path>
                    <path d="M16.8666667,23.5328333 L16.8666667,26.2583333 L16.8666667,26.5458333 L16.8666667,26.8333333 L16.8666667,28.4234 C16.9065333,28.4632667 16.9418,28.5039 16.9870333,28.5437667 C17.0207667,28.5744333 17.0537333,28.6051 17.0905333,28.6357667 C19.0133333,30.2066667 24.6851333,31.625 31.8166667,31.625 C38.3701333,31.625 43.6885,30.4267 46,29.0145 L46,26.8333333 L46,26.5458333 L46,26.2583333 L46,23.92 C42.6795667,25.4533333 37.1434667,26.2583333 31.8166667,26.2583333 C26.0567,26.2583333 20.0491,25.3176333 16.8666667,23.5328333 Z" id="Shape"></path>
                    <path d="M16.8666667,37.3359 L16.8666667,40.6333333 C16.8666667,40.7483333 16.8942667,40.8587333 16.9433333,40.9568667 C17.7460333,44.2688667 24.7725333,46 31.4333333,46 C38.0818667,46 45.0922667,44.2757667 45.9195,40.9760333 C45.9708667,40.8733 46,40.7567667 46,40.6333333 L46,37.7269 C42.6834,39.2648333 37.1526667,40.0583333 31.8166667,40.0583333 C26.0444333,40.0583333 20.0452667,39.1306667 16.8666667,37.3359 Z" id="Shape"></path>
                    <path d="M31.4333333,13.9916667 C24.771,13.9916667 17.7176667,15.7565333 16.9402667,19.0394 C16.8950333,19.1375333 16.8666667,19.2433333 16.8666667,19.3583333 L16.8666667,19.6458333 L16.8666667,21.5234 C18.5173,23.1755667 24.3639,24.725 31.8166667,24.725 C38.3701333,24.725 43.6885,23.5267 46,22.1145 L46,19.6458333 L46,19.3583333 C46,19.2471667 45.9724,19.1436667 45.9279333,19.0486 C45.1612667,15.7596 38.1018,13.9916667 31.4333333,13.9916667 Z" id="Shape"></path>
                    <path d="M42.4672,0 L3.5328,0 C1.5847,0 0,1.5847 0,3.5328 L0,12.5664333 C0,13.3131667 0.240733333,13.9993333 0.640166667,14.5666667 L19.0524333,14.5666667 C22.0991667,13.1828333 26.6692667,12.4583333 31.0837333,12.4583333 C35.4982,12.4583333 40.0675333,13.1836 43.1142667,14.5666667 L45.3590667,14.5666667 C45.7592667,13.9993333 46,13.3131667 46,12.5672 L46,3.5328 C46,1.5847 44.4153,0 42.4672,0 Z M8.05,11.5 C6.1479,11.5 4.6,9.9521 4.6,8.05 C4.6,6.1479 6.1479,4.6 8.05,4.6 C9.9521,4.6 11.5,6.1479 11.5,8.05 C11.5,9.9521 9.9521,11.5 8.05,11.5 Z M26.0666667,7.66666667 C25.6434667,7.66666667 25.3,7.3232 25.3,6.9 C25.3,6.4768 25.6434667,6.13333333 26.0666667,6.13333333 C26.4898667,6.13333333 26.8333333,6.4768 26.8333333,6.9 C26.8333333,7.3232 26.4898667,7.66666667 26.0666667,7.66666667 Z M27.6,9.96666667 C27.1768,9.96666667 26.8333333,9.6232 26.8333333,9.2 C26.8333333,8.7768 27.1768,8.43333333 27.6,8.43333333 C28.0232,8.43333333 28.3666667,8.7768 28.3666667,9.2 C28.3666667,9.6232 28.0232,9.96666667 27.6,9.96666667 Z M29.1333333,7.66666667 C28.7101333,7.66666667 28.3666667,7.3232 28.3666667,6.9 C28.3666667,6.4768 28.7101333,6.13333333 29.1333333,6.13333333 C29.5565333,6.13333333 29.9,6.4768 29.9,6.9 C29.9,7.3232 29.5565333,7.66666667 29.1333333,7.66666667 Z M30.6666667,9.96666667 C30.2434667,9.96666667 29.9,9.6232 29.9,9.2 C29.9,8.7768 30.2434667,8.43333333 30.6666667,8.43333333 C31.0898667,8.43333333 31.4333333,8.7768 31.4333333,9.2 C31.4333333,9.6232 31.0898667,9.96666667 30.6666667,9.96666667 Z M32.2,7.66666667 C31.7768,7.66666667 31.4333333,7.3232 31.4333333,6.9 C31.4333333,6.4768 31.7768,6.13333333 32.2,6.13333333 C32.6232,6.13333333 32.9666667,6.4768 32.9666667,6.9 C32.9666667,7.3232 32.6232,7.66666667 32.2,7.66666667 Z M33.7333333,9.96666667 C33.3101333,9.96666667 32.9666667,9.6232 32.9666667,9.2 C32.9666667,8.7768 33.3101333,8.43333333 33.7333333,8.43333333 C34.1565333,8.43333333 34.5,8.7768 34.5,9.2 C34.5,9.6232 34.1565333,9.96666667 33.7333333,9.96666667 Z M35.2666667,7.66666667 C34.8434667,7.66666667 34.5,7.3232 34.5,6.9 C34.5,6.4768 34.8434667,6.13333333 35.2666667,6.13333333 C35.6898667,6.13333333 36.0333333,6.4768 36.0333333,6.9 C36.0333333,7.3232 35.6898667,7.66666667 35.2666667,7.66666667 Z M36.8,9.96666667 C36.3768,9.96666667 36.0333333,9.6232 36.0333333,9.2 C36.0333333,8.7768 36.3768,8.43333333 36.8,8.43333333 C37.2232,8.43333333 37.5666667,8.7768 37.5666667,9.2 C37.5666667,9.6232 37.2232,9.96666667 36.8,9.96666667 Z M38.3333333,7.66666667 C37.9101333,7.66666667 37.5666667,7.3232 37.5666667,6.9 C37.5666667,6.4768 37.9101333,6.13333333 38.3333333,6.13333333 C38.7565333,6.13333333 39.1,6.4768 39.1,6.9 C39.1,7.3232 38.7565333,7.66666667 38.3333333,7.66666667 Z M39.8666667,9.96666667 C39.4434667,9.96666667 39.1,9.6232 39.1,9.2 C39.1,8.7768 39.4434667,8.43333333 39.8666667,8.43333333 C40.2898667,8.43333333 40.6333333,8.7768 40.6333333,9.2 C40.6333333,9.6232 40.2898667,9.96666667 39.8666667,9.96666667 Z" id="Shape"></path>
                    <path d="M15.3333333,29.1333333 C15.3333333,29.0137333 15.3333333,26.8333333 15.3333333,26.8333333 L15.3333333,26.5458333 L15.3333333,26.2583333 L15.3333333,23.5328333 L15.3333333,21.5234 L15.3333333,19.6458333 L15.3333333,19.3583333 C15.3333333,19.2433333 15.3617,19.1375333 15.4069333,19.0394 C15.6867667,17.8579667 16.7877,16.8766333 18.3823667,16.1 L0.640166667,16.1 C0.240733333,16.6673333 0,17.3535 0,18.0994667 L0,27.1331 C0,27.8798333 0.240733333,28.566 0.640166667,29.1333333 L15.3333333,29.1333333 Z M8.05,19.1666667 C9.9521,19.1666667 11.5,20.7145667 11.5,22.6166667 C11.5,24.5187667 9.9521,26.0666667 8.05,26.0666667 C6.1479,26.0666667 4.6,24.5187667 4.6,22.6166667 C4.6,20.7145667 6.1479,19.1666667 8.05,19.1666667 Z" id="Shape"></path>
                    <path d="M17.4171333,43.3695667 C16.3545333,42.6926 15.6354,41.8876 15.41,40.9568667 C15.3609333,40.8587333 15.3333333,40.7483333 15.3333333,40.6333333 L15.3333333,37.3359 L15.3333333,35.3372 L15.3333333,33.7333333 L15.3333333,33.4458333 L15.3333333,33.1583333 L15.3333333,30.6666667 L0.640166667,30.6666667 C0.240733333,31.234 0,31.9201667 0,32.6661333 L0,41.6997667 C0,43.6517 1.58163333,45.2333333 3.5328,45.2333333 L16.9257,45.2333333 C16.9341333,45.2333333 16.9418,45.2333333 16.9502333,45.2333333 C17.9216,45.2195333 18.2359333,43.8909 17.4171333,43.3695667 Z M8.05,40.6333333 C6.1479,40.6333333 4.6,39.0854333 4.6,37.1833333 C4.6,35.2812333 6.1479,33.7333333 8.05,33.7333333 C9.9521,33.7333333 11.5,35.2812333 11.5,37.1833333 C11.5,39.0854333 9.9521,40.6333333 8.05,40.6333333 Z" id="Shape"></path>
                </g>
            </g>
        </g>
    </g>
</svg>