<?xml version="1.0" encoding="UTF-8"?>
<svg width="154px" height="107px" viewBox="0 0 154 107" version="1.1" xmlns="http://www.w3.org/2000/svg" xmlns:xlink="http://www.w3.org/1999/xlink">
    <!-- Generator: Sketch 49.2 (51160) - http://www.bohemiancoding.com/sketch -->
    <title>Group 2</title>
    <desc>Created with Sketch.</desc>
    <defs></defs>
    <g id="dashboard" stroke="none" stroke-width="1" fill="none" fill-rule="evenodd">
        <g id="Login" transform="translate(-149.000000, -844.000000)" fill-rule="nonzero">
            <g id="Group-3" transform="translate(149.000000, 844.000000)">
                <g id="Group-2">
                    <g id="Group-15" transform="translate(69.901460, 53.500000) rotate(-360.000000) translate(-69.901460, -53.500000) ">
                        <g id="Group-7" transform="translate(0.373382, -0.000000)">
                            <g id="Group-8" transform="translate(-0.000000, 0.000000)">
                                <rect id="Rectangle-path" fill="#43D3E8" x="22.716083" y="24.4595882" width="106.788505" height="71.5449689"></rect>
                                <path d="M129.657044,98.1088209 L22.9160642,98.1088209 C21.7388134,98.1088209 20.9538965,97.3294071 20.9538965,96.16041 L20.9538965,24.654446 C20.9538965,23.4854489 21.7388134,22.706035 22.9160642,22.706035 L129.657044,22.706035 C130.834295,22.706035 131.619211,23.4854489 131.619211,24.654446 L131.619211,96.16041 C131.618962,97.3296544 130.834295,98.1088209 129.657044,98.1088209 Z M24.878232,94.2119991 L127.694876,94.2119991 L127.694876,26.6028569 L24.878232,26.6028569 L24.878232,94.2119991 Z" id="Shape" fill="#183651"></path>
                                <rect id="Rectangle-path" fill="#FFFFFF" x="30.8221411" y="32.1752221" width="91.281263" height="63.829335"></rect>
                                <g id="Group" transform="translate(91.793796, 79.170447)" fill="#183651">
                                    <rect id="Rectangle-path" x="0.0192225182" y="0.104470508" width="3.9328773" height="3.90006727"></rect>
                                    <rect id="Rectangle-path" x="9.85141577" y="0.104470508" width="3.9328773" height="3.90006727"></rect>
                                    <rect id="Rectangle-path" x="19.8800781" y="0.104470508" width="3.9328773" height="3.90006727"></rect>
                                </g>
                                <path d="M96.6104388,91.4453189 L96.6104388,95.8999188 L55.5700322,95.8999188 L55.5700322,91.4453189 L15.3148995,91.4453189 C15.3148995,98.6114785 21.2059493,104.421612 28.471353,104.421612 L124.101755,104.421612 C131.367408,104.421612 137.258208,98.6112326 137.258208,91.4453189 L96.6104388,91.4453189 Z" id="Shape" fill="#FFFFFF"></path>
                                <path d="M123.709748,106.525876 L28.3143094,106.525876 C20.0702684,106.525876 13.2002757,99.9468929 13.2002757,91.6267464 C13.2002757,90.4658071 13.9854818,89.6917658 15.1631663,89.6917658 L55.5984146,89.6917658 C56.7760992,89.6917658 57.5613053,90.4658071 57.5613053,91.6267464 L57.5613053,94.1421966 L94.6593654,94.1421966 L94.6593654,91.6267464 C94.6593654,90.4658071 95.4445715,89.6917658 96.622256,89.6917658 L137.057504,89.6917658 C138.235189,89.6917658 139.020395,90.4658071 139.020395,91.6267464 C138.824031,99.9468929 132.150153,106.525876 123.709748,106.525876 Z M17.3221716,93.5614814 C18.3034923,98.7859536 22.8181159,102.655915 28.3143094,102.655915 L123.906112,102.655915 C129.402056,102.655915 133.91668,98.7859536 134.89825,93.5614814 L98.3887828,93.5614814 L98.3887828,96.0769316 C98.3887828,97.2378708 97.6035768,98.0119122 96.4258922,98.0119122 L55.4020508,98.0119122 C54.2243663,98.0119122 53.4391602,97.2378708 53.4391602,96.0769316 L53.4391602,93.5614814 L17.3221716,93.5614814 Z" id="Shape" fill="#183651"></path>
                                <g id="Group-10">
                                    <path d="M18.7071481,42.8472539 L25.4270931,42.8472539 L26.0858391,37.9091925 C27.6669633,37.5193543 29.2482548,36.8695138 30.6975628,36.0898373 L34.6505406,39.2087084 L39.3940804,34.5304842 L36.2316648,30.6319366 C37.0222268,29.2024196 37.6811401,27.7730676 38.0764212,26.0837135 L43.0834259,25.434038 L43.0834259,18.8066225 L38.0764212,18.156947 C37.6811401,16.597594 37.0222268,15.0380759 36.2316648,13.6087239 L39.3940804,9.7101763 L34.6505406,5.03195212 L30.6975628,8.15082323 C29.2480875,7.3711467 27.7987794,6.72130627 26.0858391,6.331468 L25.4270931,1.39340663 L18.7071481,1.39340663 L18.0484021,6.331468 C16.4672779,6.72130627 14.8859864,7.3711467 13.4366784,8.15082323 L9.48370062,5.03195212 L4.74016079,9.7101763 L7.90257644,13.6087239 C7.11201434,15.0382409 6.45310108,16.4675929 6.05782003,18.156947 L1.05081527,18.8066225 L1.05081527,25.434038 L6.05782003,26.0837135 C6.45310108,27.6430665 7.11201434,29.2025846 7.90257644,30.6319366 L4.74016079,34.5304842 L9.48370062,39.2087084 L13.4366784,36.0898373 C14.8861537,36.8695138 16.3354618,37.5193543 18.0484021,37.9091925 L18.7071481,42.8472539 Z" id="Shape" fill="#FFFFFF"></path>
                                    <path d="M25.8461198,44.5890122 L19.1209189,44.5890122 C18.4616577,44.5890122 17.9341483,44.0643944 17.802229,43.4087471 L17.2747196,39.3433342 C16.087949,38.9499125 15.0329302,38.5564908 13.9780788,38.0318731 L10.6814379,40.5235992 C10.1539285,40.9170209 9.36274804,40.9170209 8.96715783,40.3924032 L4.21990791,35.6711764 C3.6923985,35.1465587 3.6923985,34.4909114 4.08798871,33.9662936 L6.59344917,30.6877241 C6.06593975,29.6384886 5.53843034,28.5894196 5.27475933,27.4091545 L1.18677063,27.0157328 C0.527509415,26.8845368 0,26.3600855 0,25.7042717 L0,19.0159365 C0,18.3602892 0.527509415,17.8356715 1.18677063,17.7044754 L5.27459192,17.1798577 C5.67018213,15.9995926 6.06577234,14.9503571 6.59328176,13.9012881 L4.0878213,10.6227185 C3.69223109,10.0981008 3.69223109,9.31125742 4.2197405,8.91783573 L8.96699042,4.19660899 C9.49449984,3.67199125 10.153761,3.67199125 10.6812705,4.06541293 L13.9779113,6.55713912 C15.0329302,6.03252137 16.0877816,5.50790362 17.2745522,5.245678 L17.8020616,1.18026506 C17.9339808,0.524617747 18.4613228,0 19.1207515,0 L25.8459524,0 C26.5052136,0 27.0327231,0.524617747 27.1646423,1.18026506 L27.6921517,5.245678 C28.7471705,5.63909968 29.9339411,6.03252137 30.9887926,6.55713912 L34.2854334,4.06541293 C34.8129429,3.67199125 35.6041233,3.67199125 35.9997135,4.19660899 L40.7469634,8.91783573 C41.2744728,9.44245348 41.2744728,10.0981008 40.8788826,10.6227185 L38.2415029,13.9012881 C38.7690124,14.9505236 39.2965218,15.9995926 39.5601928,17.1798577 L43.6480141,17.7044754 C44.3072753,17.8356715 44.8347847,18.3601227 44.8347847,19.0159365 L44.8347847,25.7042717 C44.8347847,26.359919 44.3072753,26.8845368 43.6480141,27.0157328 L39.5601928,27.5403506 C39.1646026,28.7206156 38.7690124,29.7698511 38.2415029,30.8189201 L40.7469634,34.0974897 C41.1425536,34.6221074 41.1425536,35.4089508 40.6150442,35.8023725 L35.8677943,40.5235992 C35.3402849,41.048217 34.6810236,41.048217 34.1535142,40.6547953 L30.8568734,38.1630691 C29.8018545,38.6876869 28.7470031,39.2123046 27.5602325,39.4745302 L27.0327231,43.5399432 C27.0328905,44.1955905 26.5055485,44.5890122 25.8461198,44.5890122 Z M20.1757703,41.9660899 L24.6593492,41.9660899 L25.1868586,38.1629026 C25.3187778,37.6382849 25.5824488,37.1136671 26.2418775,36.9826376 C27.6924865,36.5892159 29.1429281,36.0645981 30.461618,35.2777548 C30.9891274,35.0155291 31.5166368,35.0155291 31.912227,35.4089508 L34.9451969,37.7694809 L38.110086,34.621941 L35.7365447,31.605597 C35.3409545,31.2121753 35.3409545,30.5563615 35.6046255,30.1629398 C36.3958059,28.8514787 36.9233153,27.4088215 37.3189055,25.9663308 C37.4508248,25.4417131 37.846415,25.0482914 38.3739244,24.9170954 L42.1980747,24.3924776 L42.1980747,19.9334765 L38.3739244,19.4088587 C37.846415,19.2776627 37.3189055,19.0154371 37.3189055,18.3596232 C36.9233153,16.9169661 36.3958059,15.4744754 35.6046255,14.1630143 C35.3409545,13.6383965 35.3409545,13.1137788 35.7365447,12.7203571 L38.110086,9.70401314 L34.9451969,6.55647315 L31.912227,8.91700327 C31.5166368,9.31042496 30.8572082,9.31042496 30.461618,9.04819933 C29.1429281,8.26135596 27.6923191,7.73673821 26.2418775,7.34331652 C25.714368,7.21212046 25.3187778,6.81869878 25.1868586,6.16305146 L24.6593492,2.35986415 L20.1757703,2.35986415 L19.6482609,6.16305146 C19.5163417,6.68766921 19.2526707,7.21228696 18.5932421,7.34331652 C17.142633,7.73673821 15.6921914,8.26135596 14.3735016,9.04819933 C13.8459921,9.31042496 13.3184827,9.31042496 12.9228925,8.91700327 L9.88992264,6.55647315 L6.85695276,9.96623877 L9.23049401,12.9825827 C9.62608422,13.3760044 9.62608422,14.0318182 9.36241322,14.4252399 C8.5712328,15.736701 8.04372339,17.1793582 7.64813318,18.6218489 C7.51621397,19.1464666 7.12062376,19.5398883 6.59311435,19.6710844 L2.76896405,20.1957021 L2.76896405,24.6547032 L6.59311435,25.179321 C7.12062376,25.310517 7.64813318,25.5727427 7.64813318,26.2285565 C8.04372339,27.6712137 8.5712328,29.1137043 9.36241322,30.4251655 C9.62608422,30.9497832 9.62608422,31.474401 9.23049401,31.8678226 L6.85695276,34.8841666 L10.0218418,38.0317066 L13.0548117,35.6711764 C13.4504019,35.2777548 14.1098305,35.2777548 14.5054208,35.5399804 C15.8241106,36.3268238 17.2747196,36.8514415 18.7251613,37.2448632 C19.2526707,37.3760593 19.6482609,37.7694809 19.7801801,38.4251283 L20.1757703,41.9660899 Z" id="Shape" fill="#183651"></path>
                                    <ellipse id="Oval" fill="#E2659A" cx="22.2422565" cy="22.2945061" rx="12.0843756" ry="12.192308"></ellipse>
                                    <ellipse id="Oval" fill="#FFFFFF" cx="22.4173923" cy="22.2945061" rx="5.95461984" ry="5.92197818"></ellipse>
                                    <path d="M21.8919847,29.2615392 C17.9752644,29.2615392 14.7114137,26.0155801 14.7114137,22.1203303 C14.7114137,18.2250804 17.9752644,14.9791213 21.8919847,14.9791213 C25.808705,14.9791213 29.0725557,18.2250804 29.0725557,22.1203303 C29.0725557,26.0155801 25.808705,29.2615392 21.8919847,29.2615392 Z M21.8919847,17.5759545 C19.4114449,17.5759545 17.3225606,19.6533881 17.3225606,22.1203303 C17.3225606,24.5872724 19.4114449,26.664706 21.8919847,26.664706 C24.3725245,26.664706 26.4614088,24.5872724 26.4614088,22.1203303 C26.4614088,19.6533881 24.3725245,17.5759545 21.8919847,17.5759545 Z" id="Shape" fill="#183651"></path>
                                </g>
                                <g id="Group" transform="translate(38.223325, 59.530651)" fill="#E0E4E8" opacity="0.791157156">
                                    <rect id="Rectangle-path" x="0.205447737" y="19.7300157" width="41.1928938" height="3.91360917"></rect>
                                    <rect id="Rectangle-path" x="0.205447737" y="9.94599278" width="41.1928938" height="3.91360917"></rect>
                                    <rect id="Rectangle-path" x="0.205447737" y="0.16196986" width="33.9352346" height="3.91360917"></rect>
                                </g>
                            </g>
                            <g id="Group-20" transform="translate(34.160538, 52.164439)" fill="#183651">
                                <path d="M0.369357461,21.3057239 C-0.123119154,20.8295846 -0.123119154,20.1154512 0.369357461,19.6393118 L10.2181083,10.1172808 C10.7105849,9.64114144 11.4492217,9.64114144 11.9416983,10.1172808 L17.2354702,15.2354386 L26.8380609,5.95140163 C27.3305375,5.4752623 28.0691743,5.4752623 28.5616509,5.95140163 L37.6717649,14.7592992 L52.5681275,0.357104497 C53.0606042,-0.119034832 53.7992409,-0.119034832 54.2917176,0.357104497 C54.7841942,0.833243827 54.7841942,1.54737727 54.2917176,2.0235166 L38.6565619,17.2587663 C38.1640853,17.7349056 37.4254485,17.7349056 36.9329719,17.2587663 L27.8228578,8.45086867 L18.0971089,17.7349056 C17.6046323,18.2110449 16.8659956,18.2110449 16.3735189,17.7349056 L11.079747,12.6167478 L2.09263488,21.3057239 C1.60047085,21.7818633 0.861834075,21.7818633 0.369357461,21.3057239 Z" id="Shape"></path>
                                <polygon id="Shape" points="54.661075 8.17465223 52.1701961 8.17465223 52.1701961 2.44023631 46.4413645 2.44023631 46.4413645 0 54.661075 0"></polygon>
                                <rect id="Rectangle-path" x="4.10985526" y="17.1667697" width="2.05492763" height="13.8969088"></rect>
                                <rect id="Rectangle-path" x="11.9185803" y="13.0794436" width="2.05492763" height="17.5755023"></rect>
                                <rect id="Rectangle-path" x="20.1382908" y="13.0794436" width="2.05492763" height="17.9842349"></rect>
                                <rect id="Rectangle-path" x="28.7689868" y="9.40085007" width="2.05492763" height="21.6628284"></rect>
                                <rect id="Rectangle-path" x="36.5777118" y="16.3493045" width="2.05492763" height="14.3056414"></rect>
                                <rect id="Rectangle-path" x="45.2084079" y="8.17465223" width="2.05492763" height="22.8890263"></rect>
                            </g>
                        </g>
                    </g>
                    <g id="flaticon1522930922-svg" transform="translate(85.912409, 0.000000)">
                        <ellipse id="Oval" fill="#FFFFFF" cx="36.0606032" cy="31.9082946" rx="15.1990972" ry="15.2086264"></ellipse>
                        <g id="Group" transform="translate(9.536688, 5.367750)" fill="#183651">
                            <path d="M26.6959945,27.9271028 C26.484896,27.9271028 26.1681811,27.8212094 26.0625648,27.7154503 C25.7458499,27.5037979 25.6402336,27.0803586 25.7458499,26.6569194 L31.7635666,0.829005654 C31.8691829,0.299807362 32.5026126,-0.123631902 33.030426,0.0880205388 C33.5582395,0.19391395 33.9805707,0.829005654 33.7694721,1.35820395 L28.1739526,25.0690557 L49.0778044,15.8599573 C49.6056179,15.6483048 50.2391816,15.8599573 50.4502802,16.3891556 C50.6613788,16.9183538 50.4502802,17.5535799 49.9224668,17.7652324 L27.0127094,27.9269684 C27.0128434,27.9271028 26.9072271,27.9271028 26.6959945,27.9271028 Z" id="Shape"></path>
                            <path d="M14.1326138,52.9082724 C13.9215152,52.9082724 13.8158989,52.9082724 13.6048004,52.8023789 C13.0769869,52.5907265 12.8657543,51.8497414 13.1824692,51.4263021 L25.8514662,26.4452669 C26.0625648,26.1277211 26.3792797,25.9160686 26.6961286,25.9160686 C27.0129775,25.9160686 27.4351746,26.0219621 27.6462732,26.3395079 L46.2275046,51.3205431 C46.5442195,51.7439824 46.4386032,52.4849675 46.016406,52.8025133 C45.5940748,53.1200592 44.8550288,53.0141658 44.5383139,52.5908609 L26.9072271,28.8798747 L14.9772762,52.3790741 C14.8716599,52.6964855 14.4493287,52.9082724 14.1326138,52.9082724 Z" id="Shape"></path>
                            <path d="M26.6959945,27.9271028 C26.5903782,27.9271028 26.484896,27.9271028 26.3792797,27.8212094 L0.724570718,18.9297911 C0.196757272,18.7181387 -0.120091632,18.188806 0.0911409708,17.5537143 C0.302239543,17.024516 0.83018702,16.7068358 1.46361677,16.9186226 L27.1183257,25.8101752 C27.6461392,26.0218277 27.9629881,26.5511603 27.7517555,27.186252 C27.6462732,27.6095569 27.223942,27.9271028 26.6959945,27.9271028 Z" id="Shape"></path>
                        </g>
                        <ellipse id="Oval" fill="#E1E6E8" cx="36.3586247" cy="32.206503" rx="11.3248175" ry="11.3319177"></ellipse>
                        <path d="M36.6566462,44.1348374 C29.9152125,44.1348374 24.4377641,38.653955 24.4377641,31.9082946 C24.4377641,25.1626343 29.9152125,19.6817518 36.6566462,19.6817518 C43.3980799,19.6817518 48.8755282,25.1626343 48.8755282,31.9082946 C48.8755282,38.653955 43.3982136,44.1348374 36.6566462,44.1348374 Z M36.6566462,21.7896703 C31.0738212,21.7896703 26.5444956,26.3219694 26.5444956,31.9081608 C26.5444956,37.4943522 31.0739549,42.0266513 36.6566462,42.0266513 C42.2393375,42.0266513 46.7687968,37.4943522 46.7687968,31.9081608 C46.7687968,26.3219694 42.2394712,21.7896703 36.6566462,21.7896703 Z" id="Shape" fill="#183651"></path>
                        <ellipse id="Oval" fill="#FFFFFF" cx="35.7625816" cy="32.206503" rx="5.36438725" ry="5.3677505"></ellipse>
                        <ellipse id="Oval" fill="#FCBD5E" cx="9.83470995" cy="23.5584605" rx="9.23866692" ry="9.24445919"></ellipse>
                        <path d="M10.430753,33.3993364 C4.69383222,33.3993364 0,28.7024587 0,22.9619775 C0,17.2214964 4.69383222,12.5247512 10.430753,12.5247512 C16.1676737,12.5247512 20.861506,17.2214964 20.861506,22.9619775 C20.861506,28.7024587 16.1676737,33.3993364 10.430753,33.3993364 Z M10.430753,14.6122229 C5.84126934,14.6122229 2.08617708,18.3696456 2.08617708,22.9619775 C2.08617708,27.5543095 5.84126934,31.3117321 10.430753,31.3117321 C15.0202366,31.3117321 18.7753289,27.5543095 18.7753289,22.9619775 C18.7753289,18.3696456 15.020369,14.6122229 10.430753,14.6122229 Z" id="Shape" fill="#183651"></path>
                        <ellipse id="Oval" fill="#FFFFFF" cx="10.7287745" cy="23.2602522" rx="5.36438725" ry="5.3677505"></ellipse>
                        <ellipse id="Oval" fill="#E54253" cx="24.1397426" cy="57.5542137" rx="7.45053784" ry="7.45520902"></ellipse>
                        <path d="M24.1397426,65.6058394 C19.3863338,65.6058394 15.4971187,61.714186 15.4971187,56.9577969 C15.4971187,52.2014079 19.3863338,48.3097545 24.1397426,48.3097545 C28.8931515,48.3097545 32.7823665,52.2014079 32.7823665,56.9577969 C32.674428,61.714186 28.8932886,65.6058394 24.1397426,65.6058394 Z M24.1397426,50.4716622 C20.5746174,50.4716622 17.6576718,53.3904365 17.6576718,56.9577969 C17.6576718,60.5251574 20.5746174,63.4439317 24.1397426,63.4439317 C27.7048678,63.4439317 30.6218134,60.5251574 30.6218134,56.9577969 C30.6218134,53.3904365 27.7048678,50.4716622 24.1397426,50.4716622 Z" id="Shape" fill="#183651"></path>
                        <ellipse id="Oval" fill="#FFFFFF" cx="23.2456781" cy="56.6595886" rx="2.98021514" ry="2.98208361"></ellipse>
                        <ellipse id="Oval" fill="#FCBD5E" cx="58.7102382" cy="22.3656271" rx="7.45053784" ry="7.45520902"></ellipse>
                        <path d="M59.3062812,30.4172528 C54.5528724,30.4172528 50.6636573,26.5255994 50.6636573,21.7692104 C50.6636573,17.0128213 54.5528724,13.1211679 59.3062812,13.1211679 C64.0596901,13.1211679 67.9489051,17.0128213 67.9489051,21.7692104 C67.9489051,26.5255994 64.0596901,30.4172528 59.3062812,30.4172528 Z M59.3062812,15.2832128 C55.741156,15.2832128 52.8242104,18.2019872 52.8242104,21.7693476 C52.8242104,25.336708 55.741156,28.2554824 59.3062812,28.2554824 C62.8714064,28.2554824 65.788352,25.336708 65.788352,21.7693476 C65.788352,18.2019872 62.8714064,15.2832128 59.3062812,15.2832128 Z" id="Shape" fill="#183651"></path>
                        <ellipse id="Oval" fill="#FFFFFF" cx="59.0082597" cy="21.471002" rx="2.98021514" ry="2.98208361"></ellipse>
                        <ellipse id="Oval" fill="#2AA0DA" cx="42.915098" cy="5.96416722" rx="5.36438725" ry="5.3677505"></ellipse>
                        <path d="M42.0210334,12.5247512 C38.5788982,12.5247512 35.7625816,9.7066689 35.7625816,6.26237558 C35.7625816,2.81808226 38.5788982,0 42.0210334,0 C45.4631687,0 48.2794852,2.81808226 48.2794852,6.26237558 C48.2794852,9.7066689 45.4630362,12.5247512 42.0210334,12.5247512 Z M42.0210334,1.98317835 C39.7263207,1.98317835 37.8487322,3.86181153 37.8487322,6.15809541 C37.8487322,8.45437929 39.7261883,10.3330125 42.0210334,10.3330125 C44.3157461,10.3330125 46.1933346,8.45437929 46.1933346,6.15809541 C46.1933346,3.86181153 44.3157461,1.98317835 42.0210334,1.98317835 Z" id="Shape" fill="#183651"></path>
                        <ellipse id="Oval" fill="#FFFFFF" cx="42.6170765" cy="6.26237558" rx="2.0861506" ry="2.08745853"></ellipse>
                        <ellipse id="Oval" fill="#2AA0DA" cx="55.4320015" cy="56.6595886" rx="5.36438725" ry="5.3677505"></ellipse>
                        <path d="M54.537937,63.2201725 C51.0958018,63.2201725 48.2794852,60.4020903 48.2794852,56.9577969 C48.2794852,53.5135036 51.0958018,50.6954214 54.537937,50.6954214 C57.9800722,50.6954214 60.7963888,53.5135036 60.7963888,56.9577969 C60.7963888,60.4020903 57.9800722,63.2201725 54.537937,63.2201725 Z M54.537937,52.6785997 C52.2432243,52.6785997 50.3656358,54.5572329 50.3656358,56.8535168 C50.3656358,59.1496682 52.2430919,61.0284338 54.537937,61.0284338 C56.8326497,61.0284338 58.7102382,59.1498007 58.7102382,56.8535168 C58.7102382,54.5573654 56.8326497,52.6785997 54.537937,52.6785997 Z" id="Shape" fill="#183651"></path>
                        <ellipse id="Oval" fill="#FFFFFF" cx="55.13398" cy="56.9577969" rx="2.0861506" ry="2.08745853"></ellipse>
                        <g id="Group" transform="translate(7.748559, 4.771334)" fill="#183651">
                            <rect id="Rectangle-path" transform="translate(45.690030, 34.598419) rotate(129.741745) translate(-45.690030, -34.598419) " x="44.6277649" y="33.5314859" width="2.12452985" height="2.133866"></rect>
                            <rect id="Rectangle-path" transform="translate(49.744837, 38.042650) rotate(129.762289) translate(-49.744837, -38.042650) " x="48.682464" y="36.9756086" width="2.12474561" height="2.13408272"></rect>
                            <rect id="Rectangle-path" transform="translate(53.868117, 41.413196) rotate(129.762289) translate(-53.868117, -41.413196) " x="52.8057438" y="40.3461546" width="2.12474561" height="2.13408272"></rect>
                            <rect id="Rectangle-path" transform="translate(15.188350, 1.536447) rotate(147.379406) translate(-15.188350, -1.536447) " x="14.1258511" y="0.469278797" width="2.12499762" height="2.13433583"></rect>
                            <rect id="Rectangle-path" transform="translate(18.050474, 6.017467) rotate(147.376317) translate(-18.050474, -6.017467) " x="16.9881995" y="4.95052405" width="2.12454892" height="2.13388515"></rect>
                            <rect id="Rectangle-path" transform="translate(20.914866, 10.497676) rotate(147.376317) translate(-20.914866, -10.497676) " x="19.8525912" y="9.43073312" width="2.12454892" height="2.13388515"></rect>
                            <rect id="Rectangle-path" transform="translate(9.778256, 34.599004) rotate(140.237711) translate(-9.778256, -34.599004) " x="8.71588276" y="33.5319631" width="2.12474561" height="2.13408272"></rect>
                            <rect id="Rectangle-path" transform="translate(5.648191, 38.049466) rotate(140.253849) translate(-5.648191, -38.049466) " x="4.58579063" y="36.9823974" width="2.12480056" height="2.1341379"></rect>
                            <rect id="Rectangle-path" transform="translate(1.596293, 41.437119) rotate(140.250185) translate(-1.596293, -41.437119) " x="0.534041433" y="40.3702001" width="2.12450233" height="2.13383836"></rect>
                        </g>
                    </g>
                </g>
            </g>
        </g>
    </g>
</svg>