<svg width="140" height="103" viewBox="0 0 140 103" fill="none" xmlns="http://www.w3.org/2000/svg">
<ellipse cx="94.1293" cy="54.5229" rx="45.8707" ry="48.4771" transform="rotate(-180 94.1293 54.5229)" fill="#8CE5E1"/>
<ellipse cx="18.2226" cy="19.258" rx="18.2226" ry="19.258" transform="rotate(-180 18.2226 19.258)" fill="#8CE5E1"/>
<ellipse cx="48.2782" cy="93.5112" rx="4.27821" ry="4.51124" fill="#FFCE54"/>
<path d="M108.826 77.2822C108.826 78.7898 108.611 80.2467 108.211 81.6245C107.975 82.4402 107.225 83 106.376 83H78.8213C78.1197 81.2311 77.7346 79.3018 77.7346 77.2822C77.7346 69.1394 83.9958 62.4588 91.9654 61.7916C92.3983 61.7542 92.8371 61.7363 93.2805 61.7363C101.867 61.7363 108.826 68.6961 108.826 77.2822V77.2822Z" fill="#84B75B"/>
<path d="M41.0065 82.9992C41.7424 81.1385 42.1305 79.1024 42.0887 76.9708C41.9305 68.8699 35.4678 62.1788 27.3773 61.7579C18.4143 61.2907 11 68.4206 11 77.2821C11 78.789 11.2142 80.2458 11.615 81.6244C11.8516 82.4401 12.6009 82.9992 13.4503 82.9992H41.0065Z" fill="#A0D37D"/>
<path d="M89.6039 29.6229V82.9985H28.4565C27.4011 82.9985 26.5458 82.1432 26.5458 81.0878V29.6229L58.0749 1.31433L89.6039 29.6229Z" fill="#FFCE54"/>
<path d="M81.0962 52.1292H77.4562C76.3397 52.1292 75.4343 53.0345 75.4343 54.1511V71.3426H83.1181V54.1511C83.1181 53.0345 82.2127 52.1292 81.0962 52.1292V52.1292Z" fill="white"/>
<path d="M40.7154 71.3426V54.1511C40.7154 53.0345 39.8101 52.1292 38.6935 52.1292H35.0543C33.937 52.1292 33.0317 53.0345 33.0317 54.1511V71.3426" fill="white"/>
<path d="M89.6047 82.9993H28.4565C27.4011 82.9993 26.5458 82.144 26.5458 81.0886V71.3427H89.6047V82.9993Z" fill="#5F9EEB"/>
<path d="M89.604 71.3427V82.9993H28.4573C27.4019 82.9993 26.5466 82.144 26.5466 81.0886V71.3427H89.604Z" fill="#CCA543"/>
<path d="M67.4567 54.1511V82.4992H48.6939V54.1511C48.6939 53.3107 49.3754 52.6292 50.2158 52.6292H65.9348C66.7752 52.6292 67.4567 53.3107 67.4567 54.1511Z" fill="white" stroke="#CCA543"/>
<path d="M89.6039 29.6229V42.1437L58.0749 13.8367L26.5458 42.146V29.6229L58.0749 1.31433L89.6039 29.6229Z" fill="#CCA543"/>
<path d="M92.6103 41.6698L58.0749 10.6639L23.5402 41.6698C22.7088 42.4161 21.4303 42.3467 20.6847 41.516L17.3074 37.7551C16.5618 36.9237 16.6305 35.6452 17.4612 34.8996L55.0357 1.16431C56.765 -0.388105 59.3855 -0.388105 61.114 1.16431L98.6886 34.8996C99.52 35.6459 99.5887 36.9237 98.8423 37.7551L95.4658 41.516C94.7195 42.3475 93.441 42.4161 92.6103 41.6698Z" fill="#002C67"/>
<path d="M63.1299 70.715C62.3149 70.715 61.6536 70.0545 61.6536 69.2387V67.5647C61.6536 66.7489 62.3149 66.0884 63.1299 66.0884C63.9457 66.0884 64.6062 66.7489 64.6062 67.5647V69.2387C64.6062 70.0545 63.9457 70.715 63.1299 70.715Z" fill="#002C67"/>
<path d="M66.1541 36.0856C66.1541 40.548 62.5373 44.1649 58.0748 44.1649C53.6131 44.1649 49.9955 40.548 49.9955 36.0856C49.9955 31.6239 53.6131 28.0063 58.0748 28.0063C62.5373 28.0063 66.1541 31.6239 66.1541 36.0856Z" fill="#002C67"/>
<path d="M97.6601 81.5245C97.8609 80.6356 97.9444 79.7019 97.8937 78.7406C97.6198 73.5773 93.3962 69.4141 88.2291 69.2111C82.4725 68.9835 77.7346 73.5833 77.7346 79.2899C77.7346 80.5998 77.9846 81.8514 78.4392 82.9993H95.7987C96.6861 82.9993 97.4638 82.3903 97.6601 81.5245V81.5245Z" fill="#A0D37D"/>
<rect x="90.321" y="12.4457" width="30" height="2" fill="#175A7F"/>
</svg>
