<?xml version="1.0" encoding="UTF-8"?>
<svg width="138px" height="104px" viewBox="0 0 138 104" version="1.1" xmlns="http://www.w3.org/2000/svg" xmlns:xlink="http://www.w3.org/1999/xlink">
    <!-- Generator: Sketch 50.2 (55047) - http://www.bohemiancoding.com/sketch -->
    <title>passport</title>
    <desc>Created with Sketch.</desc>
    <defs></defs>
    <g id="Page-1" stroke="none" stroke-width="1" fill="none" fill-rule="evenodd">
        <g id="passport" transform="translate(-1.000000, 0.000000)">
            <circle id="Oval-2-Copy-4" fill="#F5A623" cx="99.6826394" cy="39.2615868" r="39.2615868"></circle>
            <circle id="Oval-2-Copy-5" fill="#F5A623" cx="20.3456402" cy="80.8326787" r="19.2458759"></circle>
            <rect id="Rectangle-2-Copy-10" fill="#906317" x="87.4312647" y="50.8091123" width="18.4760408" height="3.07934014"></rect>
            <g id="Group-2" transform="translate(18.146112, 18.476041)" fill-rule="nonzero">
                <g id="passport" transform="translate(37.721917, 41.571092) rotate(-22.000000) translate(-37.721917, -41.571092) translate(12.317361, 7.698350)">
                    <path d="M45.3062812,4.04993339 L6.4214803,4.04993339 C5.06546424,4.04993339 3.96617463,5.17740992 3.96617463,6.56819562 L3.96617463,64.5203058 C3.96617463,65.9110915 5.06546424,67.038568 6.4214803,67.038568 L45.3064089,67.038568 C48.3356788,67.038568 50.7914951,64.5197821 50.7914951,61.4128386 L50.7914951,9.67566286 C50.7914951,6.56858843 48.3356788,4.04993339 45.3062812,4.04993339 Z" id="Shape" fill="#B0BEC5"></path>
                    <path d="M41.3575962,0 L2.4729229,0 C1.11690684,0 0.0176172299,1.12747653 0.0176172299,2.51826223 L0.0176172299,60.4703724 C0.0176172299,61.8611581 1.11690684,62.9886346 2.4729229,62.9886346 L41.3578515,62.9886346 C44.3871214,62.9886346 46.8429377,60.4698487 46.8429377,57.3629052 L46.8429377,5.6258604 C46.84281,2.51878597 44.3871214,0 41.3575962,0 Z" id="Shape" fill="#4A4A4A"></path>
                    <path d="M5.02997446,60.4703724 L5.02997446,2.51826223 C5.02997446,1.12747653 6.12926407,0 7.48515247,0 L2.4729229,0 C1.11690684,0 0.0176172299,1.12747653 0.0176172299,2.51826223 L0.0176172299,60.4703724 C0.0176172299,61.8611581 1.11690684,62.9886346 2.4729229,62.9886346 L7.48528013,62.9886346 C6.12926407,62.9886346 5.02997446,61.8611581 5.02997446,60.4703724 Z" id="Shape" fill="#000000" opacity="0.1"></path>
                    <g id="Group" transform="translate(8.553293, 10.212887)" fill="#ECEFF1">
                        <path d="M27.7093494,35.6298818 L2.0444923,35.6298818 C1.49810285,35.6298818 1.05524654,36.0842244 1.05524654,36.6444929 C1.05524654,37.2047614 1.49823051,37.6591039 2.0444923,37.6591039 L27.7092218,37.6591039 C28.2556112,37.6591039 28.6984675,37.2047614 28.6984675,36.6444929 C28.6984675,36.0842244 28.2556112,35.6298818 27.7093494,35.6298818 Z" id="Shape"></path>
                        <path d="M27.7093494,40.4943584 L2.0444923,40.4943584 C1.49810285,40.4943584 1.05524654,40.948701 1.05524654,41.5089695 C1.05524654,42.069238 1.49823051,42.5235805 2.0444923,42.5235805 L27.7092218,42.5235805 C28.2556112,42.5235805 28.6984675,42.069238 28.6984675,41.5089695 C28.6984675,40.948701 28.2556112,40.4943584 27.7093494,40.4943584 Z" id="Shape"></path>
                        <path d="M2.71624493,23.8443413 C2.73450047,23.8791699 2.75428794,23.9133437 2.77675629,23.9464702 C2.80126722,23.9824771 2.82782072,24.0161273 2.8557785,24.0478134 C5.54329969,27.883669 9.93024526,30.3870047 14.876857,30.3870047 C19.8266603,30.3870047 24.2159038,27.8806575 26.9031697,24.040743 C26.9292125,24.0110208 26.9541064,23.9797275 26.9769578,23.9462083 C26.9991708,23.9137365 27.0187029,23.8802173 27.0365755,23.8460434 C28.6968079,21.3937722 29.671628,18.4181559 29.671628,15.2131425 C29.671628,12.0081291 28.6968079,9.03251286 27.0365755,6.58024159 C27.0185753,6.54619863 26.9991708,6.51254848 26.9769578,6.48007674 C26.9541064,6.44655752 26.9292125,6.41539512 26.9031697,6.385673 C24.2160315,2.54575846 19.8266603,0.0392803342 14.876857,0.0392803342 C9.92794736,0.0392803342 5.53921453,2.54484192 2.85207633,6.38370899 C2.82552282,6.41395484 2.80011827,6.44564098 2.77675629,6.47981487 C2.75416028,6.51294129 2.73437281,6.54724611 2.71624493,6.5818128 C1.05677847,9.0338222 0.0823414006,12.0087838 0.0823414006,15.2131425 C0.0823414006,18.4175012 1.05677847,21.3923319 2.71624493,23.8443413 Z M3.8881737,8.45561568 C4.9406117,9.07624496 6.17432844,9.59906621 7.53162111,10.0082364 C7.29187359,11.3243894 7.14174415,12.7298398 7.09412656,14.1982696 L2.09874826,14.1982696 C2.25487777,12.1107817 2.88897038,10.1585491 3.8881737,8.45561568 Z M27.6550935,14.1984005 L22.6598428,14.1984005 C22.6122252,12.7299707 22.4619681,11.3246513 22.2223483,10.0083673 C23.5797686,9.59893528 24.8134853,9.0763759 25.8659233,8.45574662 C26.8648713,10.1585491 27.4989639,12.1107817 27.6550935,14.1984005 Z M25.865668,21.9704075 C24.81323,21.3497782 23.5795133,20.8270879 22.2220929,20.4177868 C22.4618405,19.1015028 22.6119699,17.6961834 22.6595875,16.2277535 L27.6548381,16.2277535 C27.4989639,18.3153724 26.8648713,20.2677359 25.865668,21.9704075 Z M13.8876113,19.404747 C12.3554229,19.4590848 10.8614052,19.6389887 9.45700561,19.9307107 C9.24879038,18.7528244 9.11998034,17.5090781 9.0751713,16.2277535 L13.8874836,16.2277535 L13.8874836,19.404616 L13.8876113,19.404616 L13.8876113,19.404747 Z M13.8876113,21.4348856 L13.8876113,28.1427883 C12.8201093,27.6872673 11.7855438,26.5169752 10.9483424,24.7762018 C10.5320396,23.910856 10.1814823,22.9439051 9.89756402,21.9036309 C11.1565577,21.6467375 12.5018502,21.4868666 13.8876113,21.4348856 Z M15.8661028,28.1429192 L15.8661028,21.4350165 C17.2518639,21.4869975 18.5971564,21.6467375 19.85615,21.9037618 C19.5724871,22.9439051 19.2216744,23.9109869 18.8053716,24.7763327 C17.9681702,26.5171062 16.9336048,27.6873983 15.8661028,28.1429192 Z M15.8661028,19.404747 L15.8661028,16.2278845 L20.6784151,16.2278845 C20.6337337,17.509209 20.5049237,18.7529553 20.2965808,19.9308416 C18.8924365,19.6388578 17.3982911,19.4590848 15.8661028,19.404747 Z M20.6785428,14.1984005 L15.8662304,14.1984005 L15.8662304,11.021538 C17.3984188,10.9672003 18.8924365,10.7872963 20.2968361,10.4955744 C20.5050513,11.6734607 20.6337337,12.917076 20.6785428,14.1984005 Z M15.8661028,8.99126851 L15.8661028,2.28336583 C16.9336048,2.73888677 17.9681702,3.90917886 18.8053716,5.64995234 C19.2216744,6.51529811 19.5722318,7.482249 19.85615,8.52252318 C18.5971564,8.7795475 17.2518639,8.93928753 15.8661028,8.99126851 Z M13.8876113,2.28336583 L13.8876113,8.99126851 C12.5018502,8.93928753 11.1565577,8.7795475 9.89756402,8.52252318 C10.181227,7.482249 10.5320396,6.51529811 10.9483424,5.64995234 C11.7855438,3.90917886 12.8201093,2.73875584 13.8876113,2.28336583 Z M13.8876113,11.021538 L13.8876113,14.1984005 L9.07529896,14.1984005 C9.11998034,12.917076 9.24879038,11.6734607 9.45713327,10.4954434 C10.8614052,10.7872963 12.3554229,10.9670693 13.8876113,11.021538 Z M7.0939989,16.2276226 C7.14161649,17.6960524 7.29187359,19.1013719 7.53149345,20.4176559 C6.17407311,20.8270879 4.94035638,21.3496473 3.88804604,21.9702765 C2.88884272,20.267605 2.25487777,18.3151105 2.0986206,16.2274917 L7.0939989,16.2274917 L7.0939989,16.2276226 Z M5.04184694,23.6310491 C5.89615493,23.1443657 6.8866773,22.728387 7.97562636,22.3926711 C8.51831364,24.3997652 9.2847908,26.1271834 10.2151848,27.4574774 C8.19022465,26.6435888 6.41471426,25.3155207 5.04184694,23.6310491 Z M19.5385293,27.4574774 C20.4687956,26.1271834 21.2354004,24.3997652 21.7780877,22.3926711 C22.8669091,22.728387 23.8575591,23.1446276 24.7118671,23.6310491 C23.3389998,25.3155207 21.5637447,26.6435888 19.5385293,27.4574774 Z M24.7119948,6.79523595 C23.8576868,7.28191929 22.8670368,7.69789803 21.7782154,8.03361396 C21.2355281,6.02651981 20.4690509,4.29910165 19.5386569,2.96880766 C21.5637447,3.78269619 23.3389998,5.11063335 24.7119948,6.79523595 Z M10.2153125,2.96880766 C9.28491847,4.29910165 8.5184413,6.02651981 7.97575403,8.03361396 C6.88693262,7.69789803 5.89628259,7.28165743 5.0419746,6.79510502 C6.41471426,5.11063335 8.19022465,3.78269619 10.2153125,2.96880766 Z" id="Shape"></path>
                    </g>
                </g>
                <g id="passport" transform="translate(12.317361, 7.698350)">
                    <path d="M45.3062812,4.04993339 L6.4214803,4.04993339 C5.06546424,4.04993339 3.96617463,5.17740992 3.96617463,6.56819562 L3.96617463,64.5203058 C3.96617463,65.9110915 5.06546424,67.038568 6.4214803,67.038568 L45.3064089,67.038568 C48.3356788,67.038568 50.7914951,64.5197821 50.7914951,61.4128386 L50.7914951,9.67566286 C50.7914951,6.56858843 48.3356788,4.04993339 45.3062812,4.04993339 Z" id="Shape" fill="#B0BEC5"></path>
                    <path d="M41.3575962,0 L2.4729229,0 C1.11690684,0 0.0176172299,1.12747653 0.0176172299,2.51826223 L0.0176172299,60.4703724 C0.0176172299,61.8611581 1.11690684,62.9886346 2.4729229,62.9886346 L41.3578515,62.9886346 C44.3871214,62.9886346 46.8429377,60.4698487 46.8429377,57.3629052 L46.8429377,5.6258604 C46.84281,2.51878597 44.3871214,0 41.3575962,0 Z" id="Shape" fill="#4A4A4A"></path>
                    <path d="M5.02997446,60.4703724 L5.02997446,2.51826223 C5.02997446,1.12747653 6.12926407,0 7.48515247,0 L2.4729229,0 C1.11690684,0 0.0176172299,1.12747653 0.0176172299,2.51826223 L0.0176172299,60.4703724 C0.0176172299,61.8611581 1.11690684,62.9886346 2.4729229,62.9886346 L7.48528013,62.9886346 C6.12926407,62.9886346 5.02997446,61.8611581 5.02997446,60.4703724 Z" id="Shape" fill="#000000" opacity="0.1"></path>
                    <g id="Group" transform="translate(8.553293, 10.212887)" fill="#ECEFF1">
                        <path d="M27.7093494,35.6298818 L2.0444923,35.6298818 C1.49810285,35.6298818 1.05524654,36.0842244 1.05524654,36.6444929 C1.05524654,37.2047614 1.49823051,37.6591039 2.0444923,37.6591039 L27.7092218,37.6591039 C28.2556112,37.6591039 28.6984675,37.2047614 28.6984675,36.6444929 C28.6984675,36.0842244 28.2556112,35.6298818 27.7093494,35.6298818 Z" id="Shape"></path>
                        <path d="M27.7093494,40.4943584 L2.0444923,40.4943584 C1.49810285,40.4943584 1.05524654,40.948701 1.05524654,41.5089695 C1.05524654,42.069238 1.49823051,42.5235805 2.0444923,42.5235805 L27.7092218,42.5235805 C28.2556112,42.5235805 28.6984675,42.069238 28.6984675,41.5089695 C28.6984675,40.948701 28.2556112,40.4943584 27.7093494,40.4943584 Z" id="Shape"></path>
                        <path d="M2.71624493,23.8443413 C2.73450047,23.8791699 2.75428794,23.9133437 2.77675629,23.9464702 C2.80126722,23.9824771 2.82782072,24.0161273 2.8557785,24.0478134 C5.54329969,27.883669 9.93024526,30.3870047 14.876857,30.3870047 C19.8266603,30.3870047 24.2159038,27.8806575 26.9031697,24.040743 C26.9292125,24.0110208 26.9541064,23.9797275 26.9769578,23.9462083 C26.9991708,23.9137365 27.0187029,23.8802173 27.0365755,23.8460434 C28.6968079,21.3937722 29.671628,18.4181559 29.671628,15.2131425 C29.671628,12.0081291 28.6968079,9.03251286 27.0365755,6.58024159 C27.0185753,6.54619863 26.9991708,6.51254848 26.9769578,6.48007674 C26.9541064,6.44655752 26.9292125,6.41539512 26.9031697,6.385673 C24.2160315,2.54575846 19.8266603,0.0392803342 14.876857,0.0392803342 C9.92794736,0.0392803342 5.53921453,2.54484192 2.85207633,6.38370899 C2.82552282,6.41395484 2.80011827,6.44564098 2.77675629,6.47981487 C2.75416028,6.51294129 2.73437281,6.54724611 2.71624493,6.5818128 C1.05677847,9.0338222 0.0823414006,12.0087838 0.0823414006,15.2131425 C0.0823414006,18.4175012 1.05677847,21.3923319 2.71624493,23.8443413 Z M3.8881737,8.45561568 C4.9406117,9.07624496 6.17432844,9.59906621 7.53162111,10.0082364 C7.29187359,11.3243894 7.14174415,12.7298398 7.09412656,14.1982696 L2.09874826,14.1982696 C2.25487777,12.1107817 2.88897038,10.1585491 3.8881737,8.45561568 Z M27.6550935,14.1984005 L22.6598428,14.1984005 C22.6122252,12.7299707 22.4619681,11.3246513 22.2223483,10.0083673 C23.5797686,9.59893528 24.8134853,9.0763759 25.8659233,8.45574662 C26.8648713,10.1585491 27.4989639,12.1107817 27.6550935,14.1984005 Z M25.865668,21.9704075 C24.81323,21.3497782 23.5795133,20.8270879 22.2220929,20.4177868 C22.4618405,19.1015028 22.6119699,17.6961834 22.6595875,16.2277535 L27.6548381,16.2277535 C27.4989639,18.3153724 26.8648713,20.2677359 25.865668,21.9704075 Z M13.8876113,19.404747 C12.3554229,19.4590848 10.8614052,19.6389887 9.45700561,19.9307107 C9.24879038,18.7528244 9.11998034,17.5090781 9.0751713,16.2277535 L13.8874836,16.2277535 L13.8874836,19.404616 L13.8876113,19.404616 L13.8876113,19.404747 Z M13.8876113,21.4348856 L13.8876113,28.1427883 C12.8201093,27.6872673 11.7855438,26.5169752 10.9483424,24.7762018 C10.5320396,23.910856 10.1814823,22.9439051 9.89756402,21.9036309 C11.1565577,21.6467375 12.5018502,21.4868666 13.8876113,21.4348856 Z M15.8661028,28.1429192 L15.8661028,21.4350165 C17.2518639,21.4869975 18.5971564,21.6467375 19.85615,21.9037618 C19.5724871,22.9439051 19.2216744,23.9109869 18.8053716,24.7763327 C17.9681702,26.5171062 16.9336048,27.6873983 15.8661028,28.1429192 Z M15.8661028,19.404747 L15.8661028,16.2278845 L20.6784151,16.2278845 C20.6337337,17.509209 20.5049237,18.7529553 20.2965808,19.9308416 C18.8924365,19.6388578 17.3982911,19.4590848 15.8661028,19.404747 Z M20.6785428,14.1984005 L15.8662304,14.1984005 L15.8662304,11.021538 C17.3984188,10.9672003 18.8924365,10.7872963 20.2968361,10.4955744 C20.5050513,11.6734607 20.6337337,12.917076 20.6785428,14.1984005 Z M15.8661028,8.99126851 L15.8661028,2.28336583 C16.9336048,2.73888677 17.9681702,3.90917886 18.8053716,5.64995234 C19.2216744,6.51529811 19.5722318,7.482249 19.85615,8.52252318 C18.5971564,8.7795475 17.2518639,8.93928753 15.8661028,8.99126851 Z M13.8876113,2.28336583 L13.8876113,8.99126851 C12.5018502,8.93928753 11.1565577,8.7795475 9.89756402,8.52252318 C10.181227,7.482249 10.5320396,6.51529811 10.9483424,5.64995234 C11.7855438,3.90917886 12.8201093,2.73875584 13.8876113,2.28336583 Z M13.8876113,11.021538 L13.8876113,14.1984005 L9.07529896,14.1984005 C9.11998034,12.917076 9.24879038,11.6734607 9.45713327,10.4954434 C10.8614052,10.7872963 12.3554229,10.9670693 13.8876113,11.021538 Z M7.0939989,16.2276226 C7.14161649,17.6960524 7.29187359,19.1013719 7.53149345,20.4176559 C6.17407311,20.8270879 4.94035638,21.3496473 3.88804604,21.9702765 C2.88884272,20.267605 2.25487777,18.3151105 2.0986206,16.2274917 L7.0939989,16.2274917 L7.0939989,16.2276226 Z M5.04184694,23.6310491 C5.89615493,23.1443657 6.8866773,22.728387 7.97562636,22.3926711 C8.51831364,24.3997652 9.2847908,26.1271834 10.2151848,27.4574774 C8.19022465,26.6435888 6.41471426,25.3155207 5.04184694,23.6310491 Z M19.5385293,27.4574774 C20.4687956,26.1271834 21.2354004,24.3997652 21.7780877,22.3926711 C22.8669091,22.728387 23.8575591,23.1446276 24.7118671,23.6310491 C23.3389998,25.3155207 21.5637447,26.6435888 19.5385293,27.4574774 Z M24.7119948,6.79523595 C23.8576868,7.28191929 22.8670368,7.69789803 21.7782154,8.03361396 C21.2355281,6.02651981 20.4690509,4.29910165 19.5386569,2.96880766 C21.5637447,3.78269619 23.3389998,5.11063335 24.7119948,6.79523595 Z M10.2153125,2.96880766 C9.28491847,4.29910165 8.5184413,6.02651981 7.97575403,8.03361396 C6.88693262,7.69789803 5.89628259,7.28165743 5.0419746,6.79510502 C6.41471426,5.11063335 8.19022465,3.78269619 10.2153125,2.96880766 Z" id="Shape"></path>
                    </g>
                </g>
            </g>
            <circle id="Oval-Copy-5" fill="#906317" cx="64.3362137" cy="100.078555" r="3.07934014"></circle>
        </g>
    </g>
</svg>