<?xml version="1.0" encoding="UTF-8"?>
<svg width="16px" height="16px" viewBox="0 0 16 16" version="1.1" xmlns="http://www.w3.org/2000/svg" xmlns:xlink="http://www.w3.org/1999/xlink">
    <!-- Generator: Sketch 49.3 (51167) - http://www.bohemiancoding.com/sketch -->
    <title>pencil</title>
    <desc>Created with Sketch.</desc>
    <defs></defs>
    <g id="dashboard" stroke="none" stroke-width="1" fill="none" fill-rule="evenodd">
        <g id="view-indexes" transform="translate(-748.000000, -273.000000)" fill="#FFFFFF" fill-rule="nonzero">
            <g id="pencil" transform="translate(748.000000, 273.000000)">
                <path d="M2.94735282,2.24561405 C2.75984282,2.24561405 2.58350416,2.3185965 2.4508835,2.45115011 C2.17718568,2.72474075 2.17718568,3.16996492 2.45091471,3.44358675 C2.58353536,3.57610916 2.75984282,3.64909162 2.94738402,3.64912281 C3.13489402,3.64909162 3.31120148,3.57610916 3.44385334,3.44355556 C3.71755116,3.16996492 3.71755116,2.72474075 3.44382213,2.45111892 C3.31120148,2.3185965 3.13489402,2.24558286 2.94735282,2.24561405 Z M3.11286339,3.11273295 C3.06864611,3.15692788 3.00985615,3.18125536 2.94735282,3.18125536 C2.88481828,3.18125536 2.82602832,3.15692788 2.78184224,3.11276414 C2.69059923,3.02153607 2.69059923,2.87310722 2.78181104,2.78194153 C2.82602832,2.7377466 2.88481828,2.7134503 2.94735282,2.7134503 C3.00985615,2.7134503 3.06864611,2.7377466 3.11283219,2.78191034 C3.2040752,2.87313841 3.2040752,3.02156726 3.11286339,3.11273295 Z" id="Shape"></path>
                <path d="M13.5491165,13.5488187 C13.8228143,13.2752281 13.8228143,12.8300039 13.5490853,12.5563821 C13.4164646,12.4238596 13.2401572,12.3508772 13.0526472,12.3508772 C12.865106,12.3508772 12.6887985,12.4238596 12.5561467,12.5564133 C12.2824488,12.8300039 12.2824488,13.2752281 12.5561779,13.5488499 C12.6887985,13.6813723 12.865106,13.754386 13.0526472,13.754386 C13.2401572,13.754386 13.4164646,13.6813723 13.5491165,13.5488187 Z M12.8871366,12.8872359 C12.9313539,12.8430409 12.9901438,12.8187446 13.0526784,12.8187446 C13.1151817,12.8187446 13.1739717,12.8430409 13.2181578,12.8872047 C13.3094008,12.9784327 13.3094008,13.1268616 13.218189,13.2180273 C13.1739717,13.2622222 13.1151817,13.2865497 13.0526784,13.2865497 C12.9901438,13.2865497 12.9313539,13.2622222 12.8871678,13.2180585 C12.7959248,13.1268304 12.7959248,12.9784016 12.8871366,12.8872359 Z" id="Shape"></path>
                <path d="M4.31007085,7.78521915 C4.35972419,7.83483913 4.42479887,7.85964912 4.48983967,7.85964912 C4.55488046,7.85964912 4.61995514,7.83483913 4.66960848,7.78521915 C4.76888126,7.6859114 4.76888126,7.5249854 4.66960848,7.42571154 L0.613693244,3.36978647 L3.36977556,0.61367444 L5.16719256,2.4111447 L4.38829604,3.19001572 C4.28902326,3.28932347 4.28902326,3.45024948 4.38829604,3.54952333 C4.43794938,3.59914331 4.50302407,3.6239533 4.56806486,3.6239533 C4.63310565,3.6239533 4.69818033,3.59914331 4.74783367,3.54952333 L5.52673019,2.77065231 L6.20652338,3.45048673 L5.42766076,4.22935775 C5.32838797,4.3286655 5.32838797,4.4895915 5.42766076,4.58886536 C5.4773141,4.63848534 5.54238878,4.66329533 5.60742957,4.66329533 C5.67247036,4.66329533 5.73754505,4.63848534 5.78719839,4.58886536 L6.56606101,3.80999434 L7.24588809,4.48982876 L6.46702547,5.26869977 C6.36775269,5.36800752 6.36775269,5.52893353 6.46702547,5.62820738 C6.51667881,5.67782736 6.58175349,5.70263736 6.64679429,5.70263736 C6.71183508,5.70263736 6.77690976,5.67782736 6.8265631,5.62820738 L7.78519453,4.66956561 C7.88446732,4.57025786 7.88446732,4.40933186 7.78519453,4.310058 L3.54954438,0.0744299719 C3.4502377,-0.0248099906 3.28931343,-0.0248099906 3.19004064,0.0744299719 L0.0744545893,3.19004962 C-0.0248181964,3.28935736 -0.0248181964,3.45028337 0.0744545893,3.54955723 L4.31007085,7.78521915 Z" id="Shape"></path>
                <path d="M11.6898953,8.21478085 C11.5905886,8.11554089 11.4296643,8.11554089 11.3303915,8.21478085 L10.3717601,9.17342262 C10.2724873,9.27273037 10.2724873,9.43365637 10.3717601,9.53293023 C10.4214134,9.58255021 10.4864881,9.6073602 10.5515289,9.6073602 C10.6165697,9.6073602 10.6816444,9.58255021 10.7312977,9.53293023 L11.5101603,8.75405921 L12.1899874,9.43389363 L11.4111248,10.2127646 C11.311852,10.3120724 11.311852,10.4729984 11.4111248,10.5722723 C11.4607781,10.6218922 11.5258528,10.6467022 11.5908936,10.6467022 C11.6559344,10.6467022 11.7210091,10.6218922 11.7706624,10.5722723 L12.549525,9.79340124 L13.2293521,10.4732357 L12.4504556,11.2521067 C12.3511828,11.3514144 12.3511828,11.5123404 12.4504556,11.6116143 C12.500109,11.6612343 12.5651836,11.6860443 12.6302244,11.6860443 C12.6952652,11.6860443 12.7603399,11.6612343 12.8099932,11.6116143 L13.5888898,10.8327433 L15.3863406,12.6301796 L12.6302583,15.3862917 L8.5743092,11.3304005 C8.47500252,11.2311605 8.31407825,11.2311605 8.21480547,11.3304005 C8.11553268,11.4297082 8.11553268,11.5906342 8.21480547,11.6899081 L12.4504217,15.92557 C12.5000751,15.97519 12.5651498,16 12.6301905,16 C12.6952313,16 12.760306,15.97519 12.8099594,15.92557 L15.9255454,12.8099504 C16.0248182,12.7106426 16.0248182,12.5497166 15.9255454,12.4504428 L11.6898953,8.21478085 Z" id="Shape"></path>
                <path d="M13.5258911,5.24229035 C13.5264357,5.24174569 15.6267391,3.14140842 15.6267391,3.14140842 C16.1244203,2.64369317 16.1244203,1.83382081 15.6267391,1.33610556 L14.6639199,0.373286443 C14.1662046,-0.12436073 13.3563663,-0.124496894 12.8585829,0.373286443 L12.3771053,0.854764083 C12.2773988,0.954504573 12.2773988,1.11613182 12.3771053,1.21583827 C12.4768457,1.31551068 12.638473,1.31551068 12.7381795,1.21583827 L13.2196231,0.734360632 C13.5182659,0.435751904 14.0041689,0.435751904 14.3028117,0.734360632 L15.2656308,1.69717975 C15.5642396,1.99578848 15.5642396,2.4817255 15.2656308,2.78033423 L14.242627,3.80337209 L12.0160991,1.57684438 C11.9163586,1.47717197 11.7547314,1.47717197 11.6550249,1.57684438 L10.7583136,2.47355563 C10.7577009,2.47416837 1.75974663,11.4721222 1.75974663,11.4721222 C1.75923601,11.4726328 1.75882752,11.4731775 1.7583169,11.4737221 C1.75617231,11.4759007 1.75419792,11.4782496 1.75215546,11.4805303 C1.73200311,11.5025549 1.71562933,11.5277794 1.70422555,11.5554549 L0.72139021,13.9422822 C0.721049799,13.9430992 0.720709388,13.9439162 0.720403018,13.9446991 L0.0192239368,15.6475042 C-0.0199914385,15.7428193 0.00189700447,15.8523637 0.0747790518,15.9252457 C0.123662107,15.9740947 0.188952983,16 0.255401258,16 C0.288114779,16 0.321100628,15.9937024 0.352554627,15.9808008 L2.05552996,15.2795537 C2.05617674,15.2792813 2.05682352,15.279009 2.05750434,15.2787707 L4.44460415,14.2958333 C4.47241575,14.2843615 4.49774235,14.2678856 4.51986908,14.247597 C4.52201367,14.2456567 4.5241923,14.2438185 4.52626881,14.2418101 C4.52681347,14.2412654 4.52742621,14.2408229 4.52797087,14.2402782 L13.5258911,5.24229035 Z M4.43537901,13.6106196 C4.36668402,13.493416 4.2825684,13.384212 4.18470017,13.2863098 C3.98453836,13.086148 3.74175706,12.9467496 3.48447424,12.8766589 L10.1562623,6.20487118 C10.2559687,6.10513069 10.2559687,5.94350344 10.1562623,5.84379699 C10.0565218,5.74412458 9.89489454,5.74412458 9.79518809,5.84379699 L3.12340003,12.5155507 C3.05327531,12.2582338 2.91387691,12.0154866 2.7137151,11.8153248 C2.61581283,11.7174566 2.5066089,11.6333409 2.38937127,11.564646 L10.9385614,3.01549031 L11.7810111,3.85794001 L10.7580073,4.88094383 C10.6583008,4.98068432 10.6583008,5.14231157 10.7580073,5.24201802 C10.8078775,5.29185423 10.8732365,5.31677233 10.9385614,5.31677233 C11.0038863,5.31677233 11.0692453,5.29185423 11.1191155,5.24201802 L12.1421194,4.2190142 L12.9846032,5.06146391 L4.43537901,13.6106196 Z M2.02053568,14.741738 L1.25828682,13.9795232 L2.08228628,11.9784158 C2.18059705,12.0293413 2.27209959,12.0958236 2.35264089,12.176399 C2.59392438,12.4176484 2.70571543,12.7452602 2.65165813,13.0526856 C2.63722469,13.1346906 2.66370869,13.2185679 2.72256579,13.2774591 C2.7814229,13.3363162 2.86533427,13.3628002 2.94733934,13.3483667 C3.25479877,13.2943094 3.58237651,13.4061345 3.82362596,13.647384 C3.9042013,13.7279253 3.97068362,13.8194278 4.02160914,13.9177386 L2.02053568,14.741738 Z M11.835579,2.11843864 L13.8815868,4.16444628 L13.3456093,4.70038972 L11.2996015,2.65438208 L11.835579,2.11843864 Z M1.04764035,14.4910251 L1.50896566,14.9523844 L0.724692199,15.2752985 L1.04764035,14.4910251 Z" id="Shape"></path>
            </g>
        </g>
    </g>
</svg>