<?xml version="1.0" encoding="UTF-8"?>
<svg width="87px" height="87px" viewBox="0 0 87 87" version="1.1" xmlns="http://www.w3.org/2000/svg" xmlns:xlink="http://www.w3.org/1999/xlink">
    <!-- Generator: Sketch 53.2 (72643) - https://sketchapp.com -->
    <title>statistics (3)</title>
    <desc>Created with Sketch.</desc>
    <g id="dashboard" stroke="none" stroke-width="1" fill="none" fill-rule="evenodd">
        <g id="reports" transform="translate(-659.000000, -124.000000)" fill="#0B7DDF" fill-rule="nonzero">
            <g id="Group-8-Copy" transform="translate(640.000000, 100.000000)">
                <g id="Group-4">
                    <g id="statistics-(3)" transform="translate(19.000000, 24.000000)">
                        <path d="M40.5,66 L1.5,66 C0.672,66 0,66.672 0,67.5 L0,73.5 C0,74.328 0.672,75 1.5,75 L40.5,75 C41.328,75 42,74.328 42,73.5 L42,67.5 C42,66.672 41.328,66 40.5,66 Z M27,72 L24,72 L24,69 L27,69 L27,72 Z M33,72 L30,72 L30,69 L33,69 L33,72 Z M39,72 L36,72 L36,69 L39,69 L39,72 Z" id="Shape"></path>
                        <path d="M40.5,54 L1.5,54 C0.672,54 0,54.672 0,55.5 L0,61.5 C0,62.328 0.672,63 1.5,63 L40.5,63 C41.328,63 42,62.328 42,61.5 L42,55.5 C42,54.672 41.328,54 40.5,54 Z M6,60 L3,60 L3,57 L6,57 L6,60 Z M12,60 L9,60 L9,57 L12,57 L12,60 Z M18,60 L15,60 L15,57 L18,57 L18,60 Z" id="Shape"></path>
                        <path d="M76.5,15 C74.019,15 72,12.981 72,10.5 L72,0 L19.5,0 C18.672,0 18,0.6735 18,1.5 L18,51 L40.5,51 C42.981,51 45,53.019 45,55.5 L45,61.5 C45,62.6565 44.5485,63.702 43.83,64.5 C44.55,65.298 45,66.3435 45,67.5 L45,73.5 C45,74.6565 44.5485,75.702 43.83,76.5 C44.55,77.298 45,78.3435 45,79.5 L45,81 L85.5,81 C86.328,81 87,80.328 87,79.5 L87,15 L76.5,15 Z M73,16 L73,19 L33,19 L33,16 L73,16 Z M24,16 L28,16 L28,19 L24,19 L24,16 Z M24,22 L73,22 L73,25 L24,25 L24,22 Z M24,28 L73,28 L73,31 L24,31 L24,28 Z M64,37 L24,37 L24,34 L64,34 L64,37 Z M69,34 L73,34 L73,37 L69,37 L69,34 Z M83,48 L83,51 L55,51 L55,48 L83,48 Z M52,48 L55,48 L55,51 L52,51 L52,48 Z M52,55 L83,55 L83,58 L52,58 L52,55 Z M52,62 L83,62 L83,65 L52,65 L52,62 Z M78,72 L52,72 L52,69 L78,69 L78,72 Z M80,69 L83,69 L83,72 L80,72 L80,69 Z" id="Shape"></path>
                        <path d="M40.5,78 L1.5,78 C0.672,78 0,78.672 0,79.5 L0,85.5 C0,86.328 0.672,87 1.5,87 L40.5,87 C41.328,87 42,86.328 42,85.5 L42,79.5 C42,78.672 41.328,78 40.5,78 Z M6,84 L3,84 L3,81 L6,81 L6,84 Z M12,84 L9,84 L9,81 L12,81 L12,84 Z M18,84 L15,84 L15,81 L18,81 L18,84 Z" id="Shape"></path>
                        <path d="M76.5,12 L84.879,12 L75,2.121 L75,10.5 C75,11.3265 75.672,12 76.5,12 Z" id="Path"></path>
                    </g>
                </g>
            </g>
        </g>
    </g>
</svg>