<?xml version="1.0" encoding="UTF-8"?>
<svg width="79px" height="88px" viewBox="0 0 79 88" version="1.1" xmlns="http://www.w3.org/2000/svg" xmlns:xlink="http://www.w3.org/1999/xlink">
    <!-- Generator: Sketch 53.2 (72643) - https://sketchapp.com -->
    <title>search (7)</title>
    <desc>Created with Sketch.</desc>
    <g id="dashboard" stroke="none" stroke-width="1" fill="none" fill-rule="evenodd">
        <g id="reports-copy-3-hover" transform="translate(-258.000000, -124.000000)" fill="#FFFFFF" fill-rule="nonzero">
            <g id="Group-8" transform="translate(239.000000, 100.000000)">
                <g id="Group-4">
                    <g id="search-(7)" transform="translate(19.000000, 24.000000)">
                        <path d="M29.413163,37.8493245 C31.5081259,32.8741192 35.1678741,28.5020927 40.2133407,25.5992583 C44.1013111,23.3602119 48.5376,22.1748344 53.0300667,22.1748344 C56.7612074,22.1748344 60.3846741,23.0262781 63.6845333,24.5240265 L63.6845333,12.6329536 C63.6851185,5.65647682 49.4850148,0 31.9751037,0 C14.4599259,0 0.262162963,5.65647682 0.262162963,12.6329536 L0.262162963,25.2682384 C0.255140741,31.9072848 13.091763,37.3335629 29.413163,37.8493245 Z M31.9680815,3.15634437 C49.3890444,3.15634437 60.5063926,8.77027815 60.5063926,12.629457 C60.5063926,16.4956291 49.3890444,22.1043179 31.9680815,22.1043179 C14.5436074,22.1043179 3.42625926,16.4956291 3.42625926,12.629457 C3.42625926,8.77027815 14.5436074,3.15634437 31.9680815,3.15634437 Z M0.251044444,44.2232053 L0.251044444,31.5879205 C0.251044444,37.9827815 12.1864815,43.2522914 27.6617037,44.088 C27.0455037,48.2898543 27.4797111,52.6543046 29.0515185,56.792053 C12.9062593,56.2063576 0.255140741,50.8092185 0.251044444,44.2232053 Z M51.1598148,73.2154172 C45.829363,74.8303046 39.1886815,75.8058808 31.9680815,75.8058808 C14.4529037,75.8058808 0.255140741,70.149404 0.255140741,63.1688477 L0.255140741,50.5323974 C0.255140741,57.5158675 14.4493926,63.1694305 31.9680815,63.1694305 C32.1676296,63.1694305 32.3619111,63.1589404 32.5614593,63.1589404 C36.9918963,68.9855894 43.7876519,72.6472053 51.1598148,73.2154172 Z M72.1509926,36.7793377 C66.0720889,26.2968477 52.5671852,22.6911788 42.037363,28.7456954 C31.511637,34.7996291 27.8916815,48.2473113 33.9664889,58.7298013 C40.0453926,69.2157881 53.5573185,72.8179603 64.0830444,66.7710199 C74.616963,60.7205828 78.2298963,47.2647417 72.1509926,36.7793377 Z M37.1294148,56.9126887 C32.0552741,48.1727152 35.0789259,36.9448477 43.8625556,31.8898013 C52.6461852,26.8417483 63.9197778,29.8477351 68.9939185,38.5970331 C74.0686444,47.3463311 71.043237,58.5741987 62.2596074,63.6234172 C53.4724667,68.6807947 42.2018,65.6713113 37.1294148,56.9126887 Z M76.9261037,78.0064636 L67.4443481,83.4572185 L60.1429926,70.8703046 L69.6282593,65.416053 L76.9261037,78.0064636 Z M75.9032,87.1619603 C73.2768889,88.666702 69.9348963,87.7797086 68.4163407,85.1636026 L77.9057037,79.7128477 C79.420163,82.3283709 78.5224889,85.6566358 75.9032,87.1619603 Z" id="Shape"></path>
                    </g>
                </g>
            </g>
        </g>
    </g>
</svg>