<?xml version="1.0" encoding="UTF-8"?>
<svg width="108px" height="88px" viewBox="0 0 108 88" version="1.1" xmlns="http://www.w3.org/2000/svg" xmlns:xlink="http://www.w3.org/1999/xlink">
    <!-- Generator: Sketch 53.2 (72643) - https://sketchapp.com -->
    <title>retinal-scan</title>
    <desc>Created with Sketch.</desc>
    <g id="Page-1" stroke="none" stroke-width="1" fill="none" fill-rule="evenodd">
        <g id="dashboard-copy-changes-1" transform="translate(-262.000000, -736.000000)" fill="#0B7DDF" fill-rule="nonzero">
            <g id="Group-8" transform="translate(244.000000, 712.000000)">
                <g id="Group-4">
                    <g id="retinal-scan" transform="translate(20.000000, 26.000000)">
                        <polygon id="Path" stroke="#0B7DDF" stroke-width="3.01961131" points="104 22.75 100.533333 22.75 100.533333 3.5 81.4666667 3.5 81.4666667 0 104 0"></polygon>
                        <polygon id="Path" stroke="#0B7DDF" stroke-width="3.01961131" points="3.46666667 22.75 0 22.75 0 0 22.5333333 0 22.5333333 3.5 3.46666667 3.5"></polygon>
                        <polygon id="Path" stroke="#0B7DDF" stroke-width="3.01961131" points="104 84 81.4666667 84 81.4666667 80.5 100.533333 80.5 100.533333 61.25 104 61.25"></polygon>
                        <polygon id="Path" stroke="#0B7DDF" stroke-width="3.01961131" points="22.5333333 84 0 84 0 61.25 3.46666667 61.25 3.46666667 80.5 22.5333333 80.5"></polygon>
                        <path d="M39.8666667,42 C39.8666667,48.7654882 45.298945,54.25 52,54.25 C58.701055,54.25 64.1333333,48.7654882 64.1333333,42 C64.1333333,35.2345118 58.701055,29.75 52,29.75 C45.3021129,29.7577151 39.8743083,35.2377101 39.8666667,42 L39.8666667,42 Z M60.6666667,42 L57.2,42 C57.2,39.1005051 54.8718807,36.75 52,36.75 L52,33.25 C56.7840921,33.2557857 60.6609361,37.169907 60.6666667,42 Z" id="Shape"></path>
                        <path d="M64.1766667,32.18075 C66.0189875,34.4982442 67.1707801,37.2967734 67.4977333,40.25 L77.9116,40.25 C77.5384023,34.5140272 75.299772,29.0629552 71.5433333,24.74325 L64.1766667,32.18075 Z" id="Path"></path>
                        <path d="M22.5333333,42 C22.5349048,34.7950398 25.1393498,27.838035 29.8584,22.43325 C20.4888074,27.7958119 11.8550594,34.3739805 4.17733333,42 C11.8550594,49.6260195 20.4888074,56.2041881 29.8584,61.56675 C25.1393498,56.161965 22.5349048,49.2049602 22.5333333,42 L22.5333333,42 Z" id="Path"></path>
                        <path d="M26.0884,40.25 L36.5022667,40.25 C36.8292199,37.2967734 37.9810125,34.4982442 39.8233333,32.18075 L32.4566667,24.74325 C28.700228,29.0629552 26.4615977,34.5140272 26.0884,40.25 L26.0884,40.25 Z" id="Path"></path>
                        <path d="M50.2666667,26.35325 L50.2666667,15.83925 C44.5853222,16.2160362 39.1861652,18.4761917 34.9076,22.26875 L42.2742667,29.70625 C44.5696895,27.8462145 47.3415661,26.683347 50.2666667,26.35325 L50.2666667,26.35325 Z" id="Path"></path>
                        <path d="M74.1329333,61.57725 C83.507838,56.2138233 92.1453497,49.6319209 99.8244,42 C92.1455786,34.3745127 83.5113309,27.7964072 74.1416,22.43325 C83.9151936,33.6169196 83.9114782,50.3979929 74.1329333,61.57725 L74.1329333,61.57725 Z" id="Path"></path>
                        <path d="M52,68.25 C65.6727819,68.2286191 76.994994,57.5232132 77.9116,43.75 L67.4977333,43.75 C66.5917017,51.6994315 59.9256799,57.6995238 52,57.6995238 C44.0743201,57.6995238 37.4082983,51.6994315 36.5022667,43.75 L26.0884,43.75 C27.0058321,57.5228178 38.3275548,68.2277609 52,68.25 L52,68.25 Z M70.8032,45.21125 L74.2213333,45.78875 C74.0151572,47.0380758 73.7043534,48.2674858 73.2922667,49.46375 L70.0266667,48.3105 C70.3707719,47.3011203 70.6305245,46.2644123 70.8032,45.21125 L70.8032,45.21125 Z M68.7232,51.24175 L71.7634667,52.92175 C71.1590508,54.0289029 70.4632531,55.082635 69.6834667,56.07175 L66.9656,53.90175 C67.6259125,53.0660872 68.2161309,52.1763443 68.7301333,51.24175 L68.7232,51.24175 Z M64.8058667,56.2555 L67.1337333,58.84725 C66.2066683,59.6969212 65.2111902,60.4672449 64.1576,61.15025 L62.2838667,58.20675 C63.178234,57.6271873 64.0240437,56.9745857 64.8128,56.2555 L64.8058667,56.2555 Z M59.4828,59.70825 L60.8469333,62.9265 C59.6952474,63.4239487 58.5043327,63.8231763 57.2866667,64.12 L56.4806667,60.725 C57.5103828,60.4726744 58.5170204,60.1325361 59.4897333,59.70825 L59.4828,59.70825 Z M50.1592,61.1625 C51.215982,61.2634606 52.279176,61.2769222 53.3381333,61.20275 L53.5808,64.70275 C53.0619556,64.73425 52.5350222,64.75 52,64.75 C51.2685333,64.75 50.5474667,64.7155833 49.8368,64.64675 L50.1592,61.1625 Z M44.0630667,59.5 C45.0257327,59.945437 46.023554,60.3089496 47.0461333,60.58675 L46.1482667,63.96775 C44.9376813,63.63975 43.7565809,63.2094819 42.6174667,62.6815 L44.0630667,59.5 Z M41.2984,57.925 L39.3466667,60.82825 C38.3123494,60.1184103 37.338323,59.3229163 36.4346667,58.45 L38.8266667,55.9195 C39.5937583,56.6590366 40.4205273,57.3327822 41.2984,57.93375 L41.2984,57.925 Z M29.7786667,45.79225 L33.1968,45.20775 C33.3461563,46.1007279 33.5575674,46.9819878 33.8294667,47.845 L30.524,48.9055 C30.2041592,47.8865092 29.9551104,46.8462345 29.7786667,45.79225 Z M31.9574667,52.4055 L35.0410667,50.80425 C35.5261898,51.7553274 36.0891702,52.6638206 36.7241333,53.52025 L33.9508,55.62025 C33.1991391,54.6063757 32.5323918,53.5310784 31.9574667,52.4055 L31.9574667,52.4055 Z" id="Shape"></path>
                        <path d="M53.7333333,26.35325 C56.6584339,26.683347 59.4303105,27.8462145 61.7257333,29.70625 L69.0924,22.26875 C64.8138348,18.4761917 59.4146778,16.2160362 53.7333333,15.83925 L53.7333333,26.35325 Z" id="Path"></path>
                    </g>
                </g>
            </g>
        </g>
    </g>
</svg>