<?xml version="1.0" encoding="UTF-8"?>
<svg width="95px" height="86px" viewBox="0 0 95 86" version="1.1" xmlns="http://www.w3.org/2000/svg" xmlns:xlink="http://www.w3.org/1999/xlink">
    <!-- Generator: Sketch 53.2 (72643) - https://sketchapp.com -->
    <title>risk</title>
    <desc>Created with Sketch.</desc>
    <g id="dashboard" stroke="none" stroke-width="1" fill="none" fill-rule="evenodd">
        <g id="reports" transform="translate(-257.000000, -498.000000)" fill="#0B7DDF" fill-rule="nonzero">
            <g id="risk" transform="translate(257.000000, 498.000000)">
                <polygon id="Path" points="47.870256 54.9131835 45.4392988 67.1026758 57.6870679 51.4731835 48.3904575 51.4731835 55.25276 34.2731835 41.9243792 34.2731835 36.0430041 54.9131835"></polygon>
                <path d="M1.12249577,73.019375 C-0.388685102,75.6816796 -0.372769063,78.9486719 1.16270457,81.5966992 C2.69901605,84.2438867 5.52368429,85.8731835 8.57871573,85.8731835 L86.4070437,85.8731835 C89.4629128,85.8731835 92.287581,84.2438867 93.8230549,81.5966992 C95.3593661,78.9486719 95.3744445,75.6816796 93.8632637,73.019375 L54.9486809,4.4478125 C53.4240971,1.7603125 50.5768111,0.10078125 47.4932985,0.10078125 C44.4089483,0.10078125 41.5616624,1.7603125 40.0370786,4.4478125 L1.12249577,73.019375 Z M60.3199069,30.8331835 L53.4576044,48.0331835 L64.7479015,48.0331835 L39.2580329,80.5628517 L43.684352,58.3531835 L31.4935454,58.3531835 L39.3367752,30.8331835 L60.3199069,30.8331835 Z" id="Shape"></path>
            </g>
        </g>
    </g>
</svg>