<?xml version="1.0" encoding="UTF-8"?>
<svg width="73px" height="73px" viewBox="0 0 73 73" version="1.1" xmlns="http://www.w3.org/2000/svg" xmlns:xlink="http://www.w3.org/1999/xlink">
    <!-- Generator: Sketch 53.2 (72643) - https://sketchapp.com -->
    <title>server</title>
    <desc>Created with Sketch.</desc>
    <g id="Page-1" stroke="none" stroke-width="1" fill="none" fill-rule="evenodd">
        <g id="dashboard-copy-changes-1" transform="translate(-1068.000000, -382.000000)" fill="#FFFFFF" fill-rule="nonzero">
            <g id="servers" transform="translate(646.000000, 100.000000)">
                <g id="server" transform="translate(422.000000, 282.000000)">
                    <path d="M0,29.3314 L0,43.6673833 C0,44.8524167 0.382033333,45.9401167 1.01591667,46.84045 L71.9828667,46.84045 C72.6179667,45.9413333 73,44.8524167 73,43.6686 L73,29.3314 C73,28.1463667 72.6179667,27.0586667 71.9840833,26.1583333 L1.01591667,26.1583333 C0.382033333,27.0586667 0,28.1475833 0,29.3314 Z M63.2666667,37.1083333 C63.9382667,37.1083333 64.4833333,37.6534 64.4833333,38.325 C64.4833333,38.9966 63.9382667,39.5416667 63.2666667,39.5416667 C62.5950667,39.5416667 62.05,38.9966 62.05,38.325 C62.05,37.6534 62.5950667,37.1083333 63.2666667,37.1083333 Z M60.8333333,33.4583333 C61.5049333,33.4583333 62.05,34.0034 62.05,34.675 C62.05,35.3466 61.5049333,35.8916667 60.8333333,35.8916667 C60.1617333,35.8916667 59.6166667,35.3466 59.6166667,34.675 C59.6166667,34.0034 60.1617333,33.4583333 60.8333333,33.4583333 Z M58.4,37.1083333 C59.0716,37.1083333 59.6166667,37.6534 59.6166667,38.325 C59.6166667,38.9966 59.0716,39.5416667 58.4,39.5416667 C57.7284,39.5416667 57.1833333,38.9966 57.1833333,38.325 C57.1833333,37.6534 57.7284,37.1083333 58.4,37.1083333 Z M55.9666667,33.4583333 C56.6382667,33.4583333 57.1833333,34.0034 57.1833333,34.675 C57.1833333,35.3466 56.6382667,35.8916667 55.9666667,35.8916667 C55.2950667,35.8916667 54.75,35.3466 54.75,34.675 C54.75,34.0034 55.2950667,33.4583333 55.9666667,33.4583333 Z M53.5333333,37.1083333 C54.2049333,37.1083333 54.75,37.6534 54.75,38.325 C54.75,38.9966 54.2049333,39.5416667 53.5333333,39.5416667 C52.8617333,39.5416667 52.3166667,38.9966 52.3166667,38.325 C52.3166667,37.6534 52.8617333,37.1083333 53.5333333,37.1083333 Z M51.1,33.4583333 C51.7716,33.4583333 52.3166667,34.0034 52.3166667,34.675 C52.3166667,35.3466 51.7716,35.8916667 51.1,35.8916667 C50.4284,35.8916667 49.8833333,35.3466 49.8833333,34.675 C49.8833333,34.0034 50.4284,33.4583333 51.1,33.4583333 Z M48.6666667,37.1083333 C49.3382667,37.1083333 49.8833333,37.6534 49.8833333,38.325 C49.8833333,38.9966 49.3382667,39.5416667 48.6666667,39.5416667 C47.9950667,39.5416667 47.45,38.9966 47.45,38.325 C47.45,37.6534 47.9950667,37.1083333 48.6666667,37.1083333 Z M46.2333333,33.4583333 C46.9049333,33.4583333 47.45,34.0034 47.45,34.675 C47.45,35.3466 46.9049333,35.8916667 46.2333333,35.8916667 C45.5617333,35.8916667 45.0166667,35.3466 45.0166667,34.675 C45.0166667,34.0034 45.5617333,33.4583333 46.2333333,33.4583333 Z M43.8,37.1083333 C44.4716,37.1083333 45.0166667,37.6534 45.0166667,38.325 C45.0166667,38.9966 44.4716,39.5416667 43.8,39.5416667 C43.1284,39.5416667 42.5833333,38.9966 42.5833333,38.325 C42.5833333,37.6534 43.1284,37.1083333 43.8,37.1083333 Z M41.3666667,33.4583333 C42.0382667,33.4583333 42.5833333,34.0034 42.5833333,34.675 C42.5833333,35.3466 42.0382667,35.8916667 41.3666667,35.8916667 C40.6950667,35.8916667 40.15,35.3466 40.15,34.675 C40.15,34.0034 40.6950667,33.4583333 41.3666667,33.4583333 Z M12.775,31.025 C15.79355,31.025 18.25,33.48145 18.25,36.5 C18.25,39.51855 15.79355,41.975 12.775,41.975 C9.75645,41.975 7.3,39.51855 7.3,36.5 C7.3,33.48145 9.75645,31.025 12.775,31.025 Z" id="Shape"></path>
                    <path d="M71.9840833,23.725 C72.6179667,22.8246667 73,21.73575 73,20.5519333 L73,6.21473333 C73,3.12318333 70.48515,0.608333333 67.3936,0.608333333 L5.6064,0.608333333 C2.51485,0.608333333 0,3.12318333 0,6.21473333 L0,20.5507167 C0,21.73575 0.382033333,22.82345 1.01591667,23.7237833 L71.9840833,23.7237833 L71.9840833,23.725 Z M63.2666667,13.9916667 C63.9382667,13.9916667 64.4833333,14.5367333 64.4833333,15.2083333 C64.4833333,15.8799333 63.9382667,16.425 63.2666667,16.425 C62.5950667,16.425 62.05,15.8799333 62.05,15.2083333 C62.05,14.5367333 62.5950667,13.9916667 63.2666667,13.9916667 Z M60.8333333,10.3416667 C61.5049333,10.3416667 62.05,10.8867333 62.05,11.5583333 C62.05,12.2299333 61.5049333,12.775 60.8333333,12.775 C60.1617333,12.775 59.6166667,12.2299333 59.6166667,11.5583333 C59.6166667,10.8867333 60.1617333,10.3416667 60.8333333,10.3416667 Z M58.4,13.9916667 C59.0716,13.9916667 59.6166667,14.5367333 59.6166667,15.2083333 C59.6166667,15.8799333 59.0716,16.425 58.4,16.425 C57.7284,16.425 57.1833333,15.8799333 57.1833333,15.2083333 C57.1833333,14.5367333 57.7284,13.9916667 58.4,13.9916667 Z M55.9666667,10.3416667 C56.6382667,10.3416667 57.1833333,10.8867333 57.1833333,11.5583333 C57.1833333,12.2299333 56.6382667,12.775 55.9666667,12.775 C55.2950667,12.775 54.75,12.2299333 54.75,11.5583333 C54.75,10.8867333 55.2950667,10.3416667 55.9666667,10.3416667 Z M53.5333333,13.9916667 C54.2049333,13.9916667 54.75,14.5367333 54.75,15.2083333 C54.75,15.8799333 54.2049333,16.425 53.5333333,16.425 C52.8617333,16.425 52.3166667,15.8799333 52.3166667,15.2083333 C52.3166667,14.5367333 52.8617333,13.9916667 53.5333333,13.9916667 Z M51.1,10.3416667 C51.7716,10.3416667 52.3166667,10.8867333 52.3166667,11.5583333 C52.3166667,12.2299333 51.7716,12.775 51.1,12.775 C50.4284,12.775 49.8833333,12.2299333 49.8833333,11.5583333 C49.8833333,10.8867333 50.4284,10.3416667 51.1,10.3416667 Z M48.6666667,13.9916667 C49.3382667,13.9916667 49.8833333,14.5367333 49.8833333,15.2083333 C49.8833333,15.8799333 49.3382667,16.425 48.6666667,16.425 C47.9950667,16.425 47.45,15.8799333 47.45,15.2083333 C47.45,14.5367333 47.9950667,13.9916667 48.6666667,13.9916667 Z M46.2333333,10.3416667 C46.9049333,10.3416667 47.45,10.8867333 47.45,11.5583333 C47.45,12.2299333 46.9049333,12.775 46.2333333,12.775 C45.5617333,12.775 45.0166667,12.2299333 45.0166667,11.5583333 C45.0166667,10.8867333 45.5617333,10.3416667 46.2333333,10.3416667 Z M43.8,13.9916667 C44.4716,13.9916667 45.0166667,14.5367333 45.0166667,15.2083333 C45.0166667,15.8799333 44.4716,16.425 43.8,16.425 C43.1284,16.425 42.5833333,15.8799333 42.5833333,15.2083333 C42.5833333,14.5367333 43.1284,13.9916667 43.8,13.9916667 Z M41.3666667,10.3416667 C42.0382667,10.3416667 42.5833333,10.8867333 42.5833333,11.5583333 C42.5833333,12.2299333 42.0382667,12.775 41.3666667,12.775 C40.6950667,12.775 40.15,12.2299333 40.15,11.5583333 C40.15,10.8867333 40.6950667,10.3416667 41.3666667,10.3416667 Z M12.775,7.90833333 C15.79355,7.90833333 18.25,10.3647833 18.25,13.3833333 C18.25,16.4018833 15.79355,18.8583333 12.775,18.8583333 C9.75645,18.8583333 7.3,16.4018833 7.3,13.3833333 C7.3,10.3647833 9.75645,7.90833333 12.775,7.90833333 Z" id="Shape"></path>
                    <path d="M1.01591667,49.275 C0.382033333,50.1753333 0,51.26425 0,52.4480667 L0,66.78405 C0,69.8768167 2.51485,72.3916667 5.6064,72.3916667 L67.3923833,72.3916667 C70.4839333,72.3916667 72.9987833,69.8768167 72.9987833,66.7852667 L72.9987833,52.4480667 C72.9987833,51.2630333 72.61675,50.1753333 71.9828667,49.275 L1.01591667,49.275 Z M12.775,65.0916667 C9.75645,65.0916667 7.3,62.6352167 7.3,59.6166667 C7.3,56.5981167 9.75645,54.1416667 12.775,54.1416667 C15.79355,54.1416667 18.25,56.5981167 18.25,59.6166667 C18.25,62.6352167 15.79355,65.0916667 12.775,65.0916667 Z M41.3666667,59.0083333 C40.6950667,59.0083333 40.15,58.4632667 40.15,57.7916667 C40.15,57.1200667 40.6950667,56.575 41.3666667,56.575 C42.0382667,56.575 42.5833333,57.1200667 42.5833333,57.7916667 C42.5833333,58.4632667 42.0382667,59.0083333 41.3666667,59.0083333 Z M43.8,62.6583333 C43.1284,62.6583333 42.5833333,62.1132667 42.5833333,61.4416667 C42.5833333,60.7700667 43.1284,60.225 43.8,60.225 C44.4716,60.225 45.0166667,60.7700667 45.0166667,61.4416667 C45.0166667,62.1132667 44.4716,62.6583333 43.8,62.6583333 Z M46.2333333,59.0083333 C45.5617333,59.0083333 45.0166667,58.4632667 45.0166667,57.7916667 C45.0166667,57.1200667 45.5617333,56.575 46.2333333,56.575 C46.9049333,56.575 47.45,57.1200667 47.45,57.7916667 C47.45,58.4632667 46.9049333,59.0083333 46.2333333,59.0083333 Z M48.6666667,62.6583333 C47.9950667,62.6583333 47.45,62.1132667 47.45,61.4416667 C47.45,60.7700667 47.9950667,60.225 48.6666667,60.225 C49.3382667,60.225 49.8833333,60.7700667 49.8833333,61.4416667 C49.8833333,62.1132667 49.3382667,62.6583333 48.6666667,62.6583333 Z M51.1,59.0083333 C50.4284,59.0083333 49.8833333,58.4632667 49.8833333,57.7916667 C49.8833333,57.1200667 50.4284,56.575 51.1,56.575 C51.7716,56.575 52.3166667,57.1200667 52.3166667,57.7916667 C52.3166667,58.4632667 51.7716,59.0083333 51.1,59.0083333 Z M53.5333333,62.6583333 C52.8617333,62.6583333 52.3166667,62.1132667 52.3166667,61.4416667 C52.3166667,60.7700667 52.8617333,60.225 53.5333333,60.225 C54.2049333,60.225 54.75,60.7700667 54.75,61.4416667 C54.75,62.1132667 54.2049333,62.6583333 53.5333333,62.6583333 Z M55.9666667,59.0083333 C55.2950667,59.0083333 54.75,58.4632667 54.75,57.7916667 C54.75,57.1200667 55.2950667,56.575 55.9666667,56.575 C56.6382667,56.575 57.1833333,57.1200667 57.1833333,57.7916667 C57.1833333,58.4632667 56.6382667,59.0083333 55.9666667,59.0083333 Z M58.4,62.6583333 C57.7284,62.6583333 57.1833333,62.1132667 57.1833333,61.4416667 C57.1833333,60.7700667 57.7284,60.225 58.4,60.225 C59.0716,60.225 59.6166667,60.7700667 59.6166667,61.4416667 C59.6166667,62.1132667 59.0716,62.6583333 58.4,62.6583333 Z M60.8333333,59.0083333 C60.1617333,59.0083333 59.6166667,58.4632667 59.6166667,57.7916667 C59.6166667,57.1200667 60.1617333,56.575 60.8333333,56.575 C61.5049333,56.575 62.05,57.1200667 62.05,57.7916667 C62.05,58.4632667 61.5049333,59.0083333 60.8333333,59.0083333 Z M63.2666667,62.6583333 C62.5950667,62.6583333 62.05,62.1132667 62.05,61.4416667 C62.05,60.7700667 62.5950667,60.225 63.2666667,60.225 C63.9382667,60.225 64.4833333,60.7700667 64.4833333,61.4416667 C64.4833333,62.1132667 63.9382667,62.6583333 63.2666667,62.6583333 Z" id="Shape"></path>
                </g>
            </g>
        </g>
    </g>
</svg>