<?xml version="1.0" encoding="UTF-8"?>
<svg width="44px" height="52px" viewBox="0 0 44 52" version="1.1" xmlns="http://www.w3.org/2000/svg" xmlns:xlink="http://www.w3.org/1999/xlink">
    <!-- Generator: Sketch 53.2 (72643) - https://sketchapp.com -->
    <title>database (1)</title>
    <desc>Created with Sketch.</desc>
    <g id="Page-1" stroke="none" stroke-width="1" fill="none" fill-rule="evenodd">
        <g id="dashboard-copy-changes-1" transform="translate(-669.000000, -119.000000)" fill="#FFFFFF" fill-rule="nonzero">
            <g id="servers" transform="translate(646.000000, 100.000000)">
                <g id="database-(1)" transform="translate(23.000000, 19.000000)">
                    <path d="M23.9040784,29.1464407 C23.1534902,29.1702373 22.402902,29.1834576 21.6557647,29.1834576 C20.9060392,29.1834576 20.1528627,29.1711186 19.400549,29.1464407 C13.0671373,28.9692881 8.02007843,28.055322 4.38619608,26.7517966 C2.67796078,26.1630508 1.21560784,25.4703051 0.0862745098,24.6779661 L0.0862745098,30.9452881 L0.0862745098,31.3859661 L0.0862745098,31.8266441 L0.0862745098,32.9627119 C2.54164706,35.5812203 10.7791373,37.9961356 21.654902,37.9961356 C32.5306667,37.9961356 40.7681569,35.5812203 43.2235294,32.9627119 L43.2235294,31.8266441 L43.2235294,31.3859661 L43.2235294,30.9452881 L43.2235294,24.6779661 C42.0864314,25.4755932 40.6111373,26.1736271 38.8882353,26.7641356 C35.2560784,28.0614915 30.2193725,28.9701695 23.9040784,29.1464407 Z" id="Path"></path>
                    <path d="M0.0862745098,13.1225085 L0.0862745098,19.3898305 L0.0862745098,19.8305085 L0.0862745098,20.2711864 L0.0862745098,21.4072542 C2.36219608,23.8345085 9.60494118,26.0872542 19.3134118,26.4027797 C19.4126275,26.4063051 19.5144314,26.4071864 19.6145098,26.4098305 C19.8957647,26.4177627 20.1761569,26.4256949 20.4617255,26.4301017 C20.856,26.4371525 21.2537255,26.440678 21.654902,26.440678 C22.0560784,26.440678 22.4538039,26.4371525 22.8480784,26.4309831 C23.1327843,26.4265763 23.4140392,26.4186441 23.6952941,26.4107119 C23.7953725,26.4080678 23.8971765,26.4063051 23.9963922,26.403661 C33.7048627,26.0872542 40.9476078,23.8345085 43.2235294,21.4081356 L43.2235294,20.2711864 L43.2235294,19.8305085 L43.2235294,19.3898305 L43.2235294,13.1225085 C39.024549,16.0688814 30.1477647,17.6271186 21.654902,17.6271186 C13.1620392,17.6271186 4.28611765,16.0688814 0.0862745098,13.1225085 Z" id="Path"></path>
                    <path d="M43.1070588,7.52854237 C42.1390588,3.73783051 34.6952941,0 21.654902,0 C8.64729412,0 1.21129412,3.71932203 0.213098039,7.50033898 C0.139764706,7.62989831 0.0862745098,7.77179661 0.0862745098,7.93220339 L0.0862745098,8.37288136 L0.0862745098,9.96461017 C2.53388235,12.5743051 10.7127059,14.9830508 21.654902,14.9830508 C32.597098,14.9830508 40.7767843,12.5743051 43.2235294,9.96461017 L43.2235294,8.37288136 L43.2235294,7.93220339 C43.2235294,7.78413559 43.1752157,7.65105085 43.1070588,7.52854237 Z" id="Path"></path>
                    <path d="M0.0862745098,36.1355932 L0.0862745098,43.3635932 C0.0862745098,43.5063729 0.123372549,43.6412203 0.187215686,43.7610847 C1.20611765,48.075322 10.3218824,51.2957966 21.654902,51.2957966 C32.9620392,51.2957966 42.0631373,48.0885424 43.1156863,43.7901695 C43.1847059,43.6632542 43.2235294,43.5178305 43.2235294,43.3635932 L43.2235294,36.1373559 C39.6560784,38.7029831 32.3054902,40.7195254 21.654902,40.7195254 C11.003451,40.7195254 3.65286275,38.7012203 0.0862745098,36.1355932 Z" id="Path"></path>
                </g>
            </g>
        </g>
    </g>
</svg>