<?xml version="1.0" encoding="UTF-8"?>
<svg width="140px" height="104px" viewBox="0 0 140 104" version="1.1" xmlns="http://www.w3.org/2000/svg" xmlns:xlink="http://www.w3.org/1999/xlink">
    <!-- Generator: Sketch 50.2 (55047) - http://www.bohemiancoding.com/sketch -->
    <title>SSN</title>
    <desc>Created with Sketch.</desc>
    <defs>
        <rect id="path-1" x="10.2236842" y="5.1758665" width="88.6052632" height="53.4839538" rx="4"></rect>
        <filter x="-0.6%" y="-0.9%" width="101.1%" height="103.7%" filterUnits="objectBoundingBox" id="filter-2">
            <feOffset dx="0" dy="1" in="SourceAlpha" result="shadowOffsetOuter1"></feOffset>
            <feColorMatrix values="0 0 0 0 0.501248937   0 0 0 0 0.501248937   0 0 0 0 0.501248937  0 0 0 0.760105299 0" type="matrix" in="shadowOffsetOuter1"></feColorMatrix>
        </filter>
    </defs>
    <g id="Page-1" stroke="none" stroke-width="1" fill="none" fill-rule="evenodd">
        <g id="SSN">
            <circle id="Oval-2" fill="#F9EA1D" cx="98" cy="42" r="42"></circle>
            <circle id="Oval-2-Copy" fill="#F9EA1D" cx="25.0526316" cy="78.1052632" r="25.0526316"></circle>
            <g id="ssn-copy" transform="translate(7.368421, 26.526316)">
                <rect id="Rectangle" fill="#1E76B7" transform="translate(53.967237, 35.491938) rotate(9.000000) translate(-53.967237, -35.491938) " x="3.96163512" y="8.74996144" width="100.011204" height="53.4839538" rx="4"></rect>
                <g id="Rectangle">
                    <use fill="black" fill-opacity="1" filter="url(#filter-2)" xlink:href="#path-1"></use>
                    <use fill="#45B0FF" fill-rule="evenodd" xlink:href="#path-1"></use>
                </g>
                <path d="M41.8688268,25.7492169 C41.7197306,25.9907586 41.563182,26.1719121 41.3991763,26.2926829 C41.2351705,26.4134537 41.0239541,26.4738383 40.7655208,26.4738383 C40.5369068,26.4738383 40.2909018,26.4008736 40.0274986,26.2549422 C39.7640954,26.1090108 39.4659076,25.9454695 39.1329263,25.7643132 C38.7999449,25.583157 38.4197554,25.4196156 37.9923465,25.2736842 C37.5649376,25.1277528 37.0778975,25.0547882 36.5312116,25.0547882 C35.5869361,25.0547882 34.8837098,25.2585859 34.4215118,25.6661874 C33.9593138,26.0737889 33.7282182,26.6247976 33.7282182,27.3192298 C33.7282182,27.7620561 33.8673725,28.1293952 34.1456853,28.421258 C34.4239981,28.7131208 34.7892782,28.9647229 35.2415365,29.1760719 C35.6937948,29.3874208 36.2106536,29.5811544 36.7921286,29.7572786 C37.3736035,29.9334027 37.9674942,30.1296523 38.5738185,30.3460334 C39.1801428,30.5624144 39.7740336,30.8165326 40.3555085,31.1083954 C40.9369834,31.4002582 41.4538423,31.7726293 41.9061006,32.2255199 C42.3583589,32.6784105 42.723639,33.2294191 43.0019518,33.8785623 C43.2802645,34.5277054 43.4194189,35.310188 43.4194189,36.2260334 C43.4194189,37.2425211 43.245476,38.1935771 42.897585,39.0792298 C42.549694,39.9648825 42.0452596,40.7373009 41.3842667,41.3965083 C40.7232738,42.0557157 39.9082272,42.5740161 38.9391022,42.9514249 C37.9699773,43.3288337 36.8691673,43.5175353 35.6366393,43.5175353 C34.9607368,43.5175353 34.2724199,43.4470867 33.571668,43.3061874 C32.8709162,43.1652881 32.1925389,42.9665225 31.5365159,42.7098845 C30.8804929,42.4532465 30.2642381,42.1488079 29.687733,41.7965597 C29.1112279,41.4443115 28.6092785,41.0518122 28.1818695,40.6190501 L29.6728235,38.2338383 C29.7821606,38.052682 29.9362243,37.9067528 30.1350192,37.7960462 C30.333814,37.6853396 30.5475153,37.6299872 30.7761294,37.6299872 C31.0743217,37.6299872 31.3749944,37.725596 31.6781565,37.9168164 C31.9813187,38.1080369 32.3242347,38.3193827 32.7069147,38.5508601 C33.0895948,38.7823375 33.5294219,38.9936833 34.026409,39.1849037 C34.5233961,39.3761242 35.1098321,39.471733 35.7857346,39.471733 C36.700191,39.471733 37.4108719,39.2679353 37.9177988,38.8603338 C38.4247257,38.4527322 38.6781853,37.8061148 38.6781853,36.9204621 C38.6781853,36.4071861 38.539031,35.9895266 38.2607182,35.6674711 C37.9824054,35.3454156 37.6171253,35.0787174 37.1648671,34.8673684 C36.7126088,34.6560195 36.1982348,34.4698339 35.6217297,34.3088062 C35.0452246,34.1477784 34.4538188,33.9691409 33.8474945,33.7728883 C33.2411702,33.5766357 32.6497644,33.3350977 32.0732593,33.048267 C31.4967542,32.7614363 30.9823803,32.3840331 30.530122,31.9160462 C30.0778637,31.4480593 29.7125836,30.8643424 29.4342708,30.164878 C29.155958,29.4654137 29.0168037,28.6024185 29.0168037,27.5758665 C29.0168037,26.7505992 29.180807,25.9454725 29.5088185,25.1604621 C29.83683,24.3754518 30.3189003,23.6759979 30.9550439,23.0620796 C31.5911874,22.4481612 32.3714455,21.9575371 33.2958416,21.5901926 C34.2202376,21.222848 35.2788043,21.0391784 36.4715735,21.0391784 C37.1375362,21.0391784 37.7860947,21.0920149 38.4172684,21.1976893 C39.048442,21.3033638 39.6473025,21.4593571 40.2138679,21.6656739 C40.7804332,21.8719908 41.3097166,22.1185608 41.8017338,22.4053915 C42.2937511,22.6922222 42.7335781,23.0167889 43.1212281,23.3791014 L41.8688268,25.7492169 Z M58.0307675,25.7492169 C57.8816714,25.9907586 57.7251228,26.1719121 57.5611171,26.2926829 C57.3971113,26.4134537 57.1858949,26.4738383 56.9274616,26.4738383 C56.6988475,26.4738383 56.4528426,26.4008736 56.1894394,26.2549422 C55.9260362,26.1090108 55.6278484,25.9454695 55.2948671,25.7643132 C54.9618857,25.583157 54.5816962,25.4196156 54.1542873,25.2736842 C53.7268783,25.1277528 53.2398383,25.0547882 52.6931524,25.0547882 C51.7488769,25.0547882 51.0456506,25.2585859 50.5834526,25.6661874 C50.1212545,26.0737889 49.890159,26.6247976 49.890159,27.3192298 C49.890159,27.7620561 50.0293133,28.1293952 50.3076261,28.421258 C50.5859389,28.7131208 50.951219,28.9647229 51.4034772,29.1760719 C51.8557355,29.3874208 52.3725944,29.5811544 52.9540694,29.7572786 C53.5355443,29.9334027 54.129435,30.1296523 54.7357593,30.3460334 C55.3420836,30.5624144 55.9359743,30.8165326 56.5174493,31.1083954 C57.0989242,31.4002582 57.6157831,31.7726293 58.0680414,32.2255199 C58.5202997,32.6784105 58.8855797,33.2294191 59.1638925,33.8785623 C59.4422053,34.5277054 59.5813596,35.310188 59.5813596,36.2260334 C59.5813596,37.2425211 59.4074168,38.1935771 59.0595258,39.0792298 C58.7116348,39.9648825 58.2072004,40.7373009 57.5462075,41.3965083 C56.8852146,42.0557157 56.0701679,42.5740161 55.101043,42.9514249 C54.1319181,43.3288337 53.0311081,43.5175353 51.79858,43.5175353 C51.1226775,43.5175353 50.4343607,43.4470867 49.7336088,43.3061874 C49.032857,43.1652881 48.3544797,42.9665225 47.6984567,42.7098845 C47.0424337,42.4532465 46.4261789,42.1488079 45.8496738,41.7965597 C45.2731687,41.4443115 44.7712192,41.0518122 44.3438103,40.6190501 L45.8347643,38.2338383 C45.9441014,38.052682 46.0981651,37.9067528 46.29696,37.7960462 C46.4957548,37.6853396 46.7094561,37.6299872 46.9380702,37.6299872 C47.2362625,37.6299872 47.5369352,37.725596 47.8400973,37.9168164 C48.1432595,38.1080369 48.4861754,38.3193827 48.8688555,38.5508601 C49.2515356,38.7823375 49.6913626,38.9936833 50.1883498,39.1849037 C50.6853369,39.3761242 51.2717729,39.471733 51.9476754,39.471733 C52.8621318,39.471733 53.5728127,39.2679353 54.0797396,38.8603338 C54.5866665,38.4527322 54.8401261,37.8061148 54.8401261,36.9204621 C54.8401261,36.4071861 54.7009718,35.9895266 54.422659,35.6674711 C54.1443462,35.3454156 53.7790661,35.0787174 53.3268078,34.8673684 C52.8745495,34.6560195 52.3601756,34.4698339 51.7836705,34.3088062 C51.2071654,34.1477784 50.6157596,33.9691409 50.0094353,33.7728883 C49.403111,33.5766357 48.8117052,33.3350977 48.2352001,33.048267 C47.658695,32.7614363 47.1443211,32.3840331 46.6920628,31.9160462 C46.2398045,31.4480593 45.8745244,30.8643424 45.5962116,30.164878 C45.3178988,29.4654137 45.1787445,28.6024185 45.1787445,27.5758665 C45.1787445,26.7505992 45.3427478,25.9454725 45.6707593,25.1604621 C45.9987708,24.3754518 46.4808411,23.6759979 47.1169846,23.0620796 C47.7531282,22.4481612 48.5333863,21.9575371 49.4577823,21.5901926 C50.3821784,21.222848 51.4407451,21.0391784 52.6335143,21.0391784 C53.299477,21.0391784 53.9480355,21.0920149 54.5792092,21.1976893 C55.2103828,21.3033638 55.8092433,21.4593571 56.3758087,21.6656739 C56.942374,21.8719908 57.4716574,22.1185608 57.9636746,22.4053915 C58.4556919,22.6922222 58.8955189,23.0167889 59.2831689,23.3791014 L58.0307675,25.7492169 Z M64.7400603,21.2807189 C64.9587346,21.2807189 65.1426171,21.290783 65.2917133,21.3109114 C65.4408094,21.3310399 65.5749939,21.3687802 65.6942708,21.4241335 C65.8135477,21.4794868 65.9278531,21.5574835 66.0371902,21.6581258 C66.1465274,21.7587682 66.2707723,21.8946333 66.4099287,22.0657253 L76.72733,35.2749679 C76.6875711,34.85227 76.6577523,34.4421586 76.6378728,34.0446213 C76.6179933,33.647084 76.6080537,33.2721969 76.6080537,32.9199487 L76.6080537,21.2807189 L81.0510965,21.2807189 L81.0510965,43.2759949 L78.4270175,43.2759949 C78.0393676,43.2759949 77.711361,43.2156104 77.4429879,43.0948395 C77.1746149,42.9740687 76.9161855,42.7526589 76.6676919,42.4306033 L66.4248383,29.3270347 C66.4546575,29.7094756 66.4795065,30.0843627 66.499386,30.4517073 C66.5192655,30.8190519 66.529205,31.1637468 66.529205,31.4858023 L66.529205,43.2759949 L62.0861623,43.2759949 L62.0861623,21.2807189 L64.7400603,21.2807189 Z" id="SSN" fill="#175A7F"></path>
            </g>
            <rect id="Rectangle-2-Copy-2" fill="#4A90E2" x="22.1052632" y="38.3157895" width="33.8947368" height="2.94736842"></rect>
            <rect id="Rectangle-2-Copy-5" fill="#FFFFFF" x="82.5263158" y="73.6842105" width="20.6315789" height="2.94736842"></rect>
            <rect id="Rectangle-2-Copy-8" fill="#175A7F" x="32.4210526" y="19.1578947" width="20.6315789" height="2.94736842"></rect>
            <rect id="Rectangle-2-Copy-6" fill="#FFFFFF" x="25.0526316" y="72.2105263" width="13.2631579" height="2.94736842"></rect>
            <rect id="Rectangle-2-Copy-7" fill="#FFFFFF" x="84" y="35.3684211" width="13.2631579" height="2.94736842"></rect>
            <circle id="Oval-Copy-2" fill="#1B8ADC" cx="96.5263158" cy="49.3684211" r="3.68421053"></circle>
            <circle id="Oval-Copy-4" fill="#1B8ADC" cx="46.4210526" cy="93.5789474" r="3.68421053"></circle>
            <circle id="Oval-Copy-3" fill="#1B8ADC" cx="46.4210526" cy="81.7894737" r="3.68421053"></circle>
        </g>
    </g>
</svg>