<?xml version="1.0" encoding="UTF-8"?>
<svg width="73px" height="78px" viewBox="0 0 73 78" version="1.1" xmlns="http://www.w3.org/2000/svg" xmlns:xlink="http://www.w3.org/1999/xlink">
    <!-- Generator: Sketch 53.2 (72643) - https://sketchapp.com -->
    <title>storage</title>
    <desc>Created with Sketch.</desc>
    <g id="Page-1" stroke="none" stroke-width="1" fill="none" fill-rule="evenodd">
        <g id="dashboard-copy-changes-1" transform="translate(-668.000000, -380.000000)" fill="#FFFFFF" fill-rule="nonzero">
            <g id="storage" transform="translate(668.000000, 380.000000)">
                <path d="M35.5529914,23.1191576 C35.7834873,22.9747623 36.0225444,22.8436141 36.2681871,22.727038 C36.3933135,22.6661005 36.511854,22.5912534 36.6415903,22.5415761 C37.0051152,22.3912194 37.3811525,22.273981 37.7650927,22.1898607 C37.7894595,22.1898607 37.8111919,22.173964 37.8355586,22.1680027 L37.8355586,11.1820312 L31.0958609,11.1820312 C28.8607102,11.1820312 27.0496715,9.35986757 27.0496715,7.11246595 L27.0496715,0.329857252 L4.12126507,0.329857252 C1.88611432,0.329857252 0.0750756952,2.1513587 0.0750756952,4.39942247 L0.0750756952,47.8081181 C0.0750756952,50.0555197 1.88611432,51.8776833 4.12126507,51.8776833 L32.4445907,51.8776833 L32.4445907,28.8168138 C32.4478836,28.3836277 32.4933242,27.9517663 32.578937,27.5278533 C32.6059379,27.3920687 32.652037,27.2562841 32.6869406,27.1211616 C32.7541137,26.8469429 32.8370923,26.5773607 32.9365347,26.3137399 C32.9958051,26.164708 33.0715393,26.0249491 33.1387125,25.8798913 C33.2467162,25.6493886 33.3672326,25.4261719 33.5002616,25.2095788 C33.5891671,25.0737942 33.6839997,24.9380094 33.782125,24.8028873 C33.9276668,24.6028533 34.0844039,24.4114301 34.2516779,24.2299422 C34.3636331,24.1080672 34.4755883,23.9901665 34.595446,23.8762399 C34.7798427,23.7060123 34.972142,23.5457201 35.1730026,23.3960257 C35.2954948,23.3079313 35.4186454,23.2085768 35.5529914,23.1191576 Z M6.81872466,8.46898769 L20.3060226,8.46898769 C21.0508534,8.46898769 21.6547524,9.07637572 21.6547524,9.82550943 C21.6547524,10.5746433 21.0508534,11.1820312 20.3060226,11.1820312 L6.81872466,11.1820312 C6.07389402,11.1820312 5.46999486,10.5746433 5.46999486,9.82550943 C5.46999486,9.07637572 6.07389402,8.46898769 6.81872466,8.46898769 Z M28.3984013,43.7385529 L6.81872466,43.7385529 C6.07389402,43.7385529 5.46999486,43.131165 5.46999486,42.3820312 C5.46999486,41.6328975 6.07389402,41.0255094 6.81872466,41.0255094 L28.3984013,41.0255094 C29.1432321,41.0255094 29.7471311,41.6328975 29.7471311,42.3820312 C29.7471311,43.131165 29.1432321,43.7385529 28.3984013,43.7385529 Z M28.3984013,35.5994225 L6.81872466,35.5994225 C6.07389402,35.5994225 5.46999486,34.9920346 5.46999486,34.2429007 C5.46999486,33.493767 6.07389402,32.886379 6.81872466,32.886379 L28.3984013,32.886379 C29.1432321,32.886379 29.7471311,33.493767 29.7471311,34.2429007 C29.7471311,34.9920346 29.1432321,35.5994225 28.3984013,35.5994225 Z M28.3984013,27.460292 L6.81872466,27.460292 C6.07389402,27.460292 5.46999486,26.8529042 5.46999486,26.1037703 C5.46999486,25.3546366 6.07389402,24.7472486 6.81872466,24.7472486 L28.3984013,24.7472486 C29.1432321,24.7472486 29.7471311,25.3546366 29.7471311,26.1037703 C29.7471311,26.8529042 29.1432321,27.460292 28.3984013,27.460292 Z M31.0958609,19.3211616 L6.81872466,19.3211616 C6.07389402,19.3211616 5.46999486,18.7137737 5.46999486,17.9646399 C5.46999486,17.2155062 6.07389402,16.6081181 6.81872466,16.6081181 L31.0958609,16.6081181 C31.8406917,16.6081181 32.4445907,17.2155062 32.4445907,17.9646399 C32.4445907,18.7137737 31.8406917,19.3211616 31.0958609,19.3211616 Z" id="Shape"></path>
                <path d="M31.0958609,8.46898769 L35.9323217,8.46898769 L29.7471311,2.24806377 L29.7471311,7.11246595 C29.7471311,7.86159982 30.3510303,8.46898769 31.0958609,8.46898769 Z" id="Path"></path>
                <path d="M62.1166461,31.5298573 L62.1166461,24.7472486 L39.1882397,24.7472486 C36.9530889,24.7472486 35.1420503,26.56875 35.1420503,28.8168138 L35.1420503,72.2255094 C35.1420503,74.472911 36.9530889,76.2950746 39.1882397,76.2950746 L68.8602951,76.2950746 C71.0947875,76.2950746 72.9064845,74.472911 72.9064845,72.2255094 L72.9064845,35.5994225 L66.1628355,35.5994225 C63.9276848,35.5994225 62.1166461,33.7772589 62.1166461,31.5298573 Z M41.8856993,32.886379 L55.3729972,32.886379 C56.117828,32.886379 56.721727,33.493767 56.721727,34.2429007 C56.721727,34.9920346 56.117828,35.5994225 55.3729972,35.5994225 L41.8856993,35.5994225 C41.1408686,35.5994225 40.5369695,34.9920346 40.5369695,34.2429007 C40.5369695,33.493767 41.1408686,32.886379 41.8856993,32.886379 Z M41.8856993,57.3037703 L66.1628355,57.3037703 C66.9076663,57.3037703 67.5115653,57.9111583 67.5115653,58.660292 C67.5115653,59.4094259 66.9076663,60.0168138 66.1628355,60.0168138 L41.8856993,60.0168138 C41.1408686,60.0168138 40.5369695,59.4094259 40.5369695,58.660292 C40.5369695,57.9111583 41.1408686,57.3037703 41.8856993,57.3037703 Z M40.5369695,50.5211616 C40.5369695,49.7720279 41.1408686,49.1646399 41.8856993,49.1646399 L66.1628355,49.1646399 C66.9076663,49.1646399 67.5115653,49.7720279 67.5115653,50.5211616 C67.5115653,51.2702955 66.9076663,51.8776833 66.1628355,51.8776833 L41.8856993,51.8776833 C41.1408686,51.8776833 40.5369695,51.2702955 40.5369695,50.5211616 Z M40.5369695,66.7994225 C40.5369695,66.0502888 41.1408686,65.4429007 41.8856993,65.4429007 L63.4653759,65.4429007 C64.2102067,65.4429007 64.8141057,66.0502888 64.8141057,66.7994225 C64.8141057,67.5485563 64.2102067,68.1559442 63.4653759,68.1559442 L41.8856993,68.1559442 C41.1408686,68.1559442 40.5369695,67.5485563 40.5369695,66.7994225 Z M68.8602951,65.4429007 C69.6051259,65.4429007 70.2090249,66.0502888 70.2090249,66.7994225 L70.2090249,69.5124659 C70.2090249,71.7598676 68.3973279,73.5820312 66.1628355,73.5820312 L63.4653759,73.5820312 C62.7205453,73.5820312 62.1166461,72.9746433 62.1166461,72.2255094 C62.1166461,71.4763757 62.7205453,70.8689877 63.4653759,70.8689877 L66.1628355,70.8689877 C66.9076663,70.8689877 67.5115653,70.2615998 67.5115653,69.5124659 L67.5115653,66.7994225 C67.5115653,66.0502888 68.1154645,65.4429007 68.8602951,65.4429007 Z M67.5115653,42.3820312 C67.5115653,43.131165 66.9076663,43.7385529 66.1628355,43.7385529 L41.8856993,43.7385529 C41.1408686,43.7385529 40.5369695,43.131165 40.5369695,42.3820312 C40.5369695,41.6328975 41.1408686,41.0255094 41.8856993,41.0255094 L66.1628355,41.0255094 C66.9076663,41.0255094 67.5115653,41.6328975 67.5115653,42.3820312 Z" id="Shape"></path>
                <path d="M66.1628355,32.886379 L70.9992962,32.886379 L64.8141057,26.6654551 L64.8141057,31.5298573 C64.8141057,32.2789911 65.4180049,32.886379 66.1628355,32.886379 Z" id="Path"></path>
                <path d="M63.4653759,4.39942247 L53.0028418,4.39942247 L53.0028418,0 L47.2806184,5.75594421 L53.0028418,11.5112263 L53.0028418,7.11246595 L63.4653759,7.11246595 C65.6998683,7.11246595 67.5115653,8.93396739 67.5115653,11.1820312 L67.5115653,20.6776833 C67.5115653,21.4268172 68.1154645,22.0342051 68.8602951,22.0342051 C69.6051259,22.0342051 70.2090249,21.4268172 70.2090249,20.6776833 L70.2090249,11.1820312 C70.2044151,7.43768678 67.1875542,4.40339674 63.4653759,4.39942247 L63.4653759,4.39942247 Z" id="Path"></path>
                <path d="M19.97806,77.9807915 L25.7009417,72.2255094 L19.97806,66.4695652 L19.97806,70.8689877 L9.51618424,70.8689877 C7.28103349,70.8689877 5.46999486,69.0468241 5.46999486,66.7994225 L5.46999486,58.660292 C5.46999486,57.9111583 4.86609587,57.3037703 4.12126507,57.3037703 C3.37643444,57.3037703 2.77253528,57.9111583 2.77253528,58.660292 L2.77253528,66.7994225 C2.77648672,70.5431047 5.79334761,73.5773947 9.51618424,73.5820312 L19.97806,73.5820312 L19.97806,77.9807915 Z" id="Path"></path>
            </g>
        </g>
    </g>
</svg>