<?xml version="1.0" encoding="UTF-8"?>
<svg width="14px" height="20px" viewBox="0 0 14 20" version="1.1" xmlns="http://www.w3.org/2000/svg" xmlns:xlink="http://www.w3.org/1999/xlink">
    <!-- Generator: Sketch 49.2 (51160) - http://www.bohemiancoding.com/sketch -->
    <title>flaticon1524052402-svg</title>
    <desc>Created with Sketch.</desc>
    <defs></defs>
    <g id="dashboard" stroke="none" stroke-width="1" fill="none" fill-rule="evenodd">
        <g id="data-sets" transform="translate(-1335.000000, -203.000000)" fill="#EE4848" fill-rule="nonzero">
            <g id="Group-4" transform="translate(230.000000, 184.000000)">
                <g id="Group-3" transform="translate(1072.000000, 19.000000)">
                    <g id="flaticon1524052402-svg" transform="translate(33.000000, 0.000000)">
                        <path d="M12.5061297,1.24880157 L10.0084872,1.24880157 C10.0084872,0.559489194 9.44903733,0 8.75968566,0 L5.01324165,0 C4.32388998,0 3.76444008,0.559489194 3.76444008,1.24880157 L1.26679764,1.24880157 C0.577445972,1.24880157 0.0179960707,1.80829077 0.0179960707,2.49760314 L13.7550098,2.49760314 C13.7549312,1.80829077 13.1954813,1.24880157 12.5061297,1.24880157 Z" id="Shape"></path>
                        <path d="M0.0179174853,18.7322986 C0.0179174853,19.4216503 0.57740668,19.9811002 1.26671906,19.9811002 L12.5060904,19.9811002 C13.195442,19.9811002 13.7548919,19.421611 13.7548919,18.7322986 L13.7548919,3.74644401 L0.0179174853,3.74644401 L0.0179174853,18.7322986 Z M10.0084872,6.86852652 C10.0084872,6.52385069 10.2894695,6.24412574 10.632888,6.24412574 C10.9763065,6.24412574 11.2572888,6.52385069 11.2572888,6.86852652 L11.2572888,16.8590963 C11.2572888,17.2025147 10.9763065,17.4834971 10.632888,17.4834971 C10.2894695,17.4834971 10.0084872,17.2025147 10.0084872,16.8590963 L10.0084872,6.86852652 Z M6.26204322,6.86852652 C6.26204322,6.52385069 6.54176817,6.24412574 6.88644401,6.24412574 C7.22986248,6.24412574 7.51084479,6.52385069 7.51084479,6.86852652 L7.51084479,16.8590963 C7.51084479,17.2025147 7.22986248,17.4834971 6.88644401,17.4834971 C6.54176817,17.4834971 6.26204322,17.2025147 6.26204322,16.8590963 L6.26204322,6.86852652 Z M2.51555992,6.86852652 C2.51555992,6.52385069 2.79528487,6.24412574 3.13996071,6.24412574 C3.48463654,6.24412574 3.76436149,6.52385069 3.76436149,6.86852652 L3.76436149,16.8590963 C3.76436149,17.2025147 3.48463654,17.4834971 3.13996071,17.4834971 C2.79528487,17.4834971 2.51555992,17.2025147 2.51555992,16.8590963 L2.51555992,6.86852652 Z" id="Shape"></path>
                    </g>
                </g>
            </g>
        </g>
    </g>
</svg>