<?xml version="1.0" encoding="UTF-8"?>
<svg width="22px" height="19px" viewBox="0 0 22 19" version="1.1" xmlns="http://www.w3.org/2000/svg" xmlns:xlink="http://www.w3.org/1999/xlink">
    <!-- Generator: Sketch 49.2 (51160) - http://www.bohemiancoding.com/sketch -->
    <title>multiple-users-silhouette (3)</title>
    <desc>Created with Sketch.</desc>
    <defs></defs>
    <g id="dashboard" stroke="none" stroke-width="1" fill="none" fill-rule="evenodd">
        <g id="data-sets" transform="translate(-22.000000, -151.000000)" fill="#FFFFFF" fill-rule="nonzero">
            <g id="manage" transform="translate(22.000000, 146.000000)">
                <g id="multiple-users-silhouette-(3)" transform="translate(0.000000, 5.000000)">
                    <path d="M12.7998529,3.18158423 C13.7805882,3.80166638 14.4682941,4.85097459 14.5935,6.06898357 C14.9934706,6.2574373 15.4373824,6.36581154 15.9080294,6.36581154 C17.6262353,6.36581154 19.0188529,4.96148428 19.0188529,3.22909806 C19.0188529,1.49644491 17.6262353,0.0921176471 15.9080294,0.0921176471 C14.2062353,0.0926515103 12.8257941,1.4718872 12.7998529,3.18158423 Z M10.7618824,9.60449289 C12.4800882,9.60449289 13.8727059,8.1998987 13.8727059,6.46751248 C13.8727059,4.73512626 12.4798235,3.330799 10.7618824,3.330799 C9.04394118,3.330799 7.65052941,4.73539319 7.65052941,6.46777942 C7.65052941,8.20016564 9.04394118,9.60449289 10.7618824,9.60449289 Z M12.0814412,9.81830512 L9.44179412,9.81830512 C7.24552941,9.81830512 5.45876471,11.6203605 5.45876471,13.8350922 L5.45876471,17.0903233 L5.46697059,17.1413072 L5.68932353,17.2115102 C7.78526471,17.8718991 9.60617647,18.0921176 11.1049412,18.0921176 C14.0323235,18.0921176 15.7290882,17.2504822 15.8336471,17.196829 L16.0414412,17.0908571 L16.0636765,17.0908571 L16.0636765,13.8350922 C16.0644706,11.6203605 14.2777059,9.81830512 12.0814412,9.81830512 Z M17.2281176,6.5798907 L14.6088529,6.5798907 C14.5805294,7.63667298 14.1331765,8.58828421 13.4256176,9.27269689 C15.3778235,9.85807793 16.8061765,11.6836233 16.8061765,13.8398969 L16.8061765,14.843026 C19.3923529,14.7474644 20.8826471,14.0083308 20.9808529,13.9586815 L21.1886471,13.8524427 L21.2108824,13.8524427 L21.2108824,10.5961439 C21.2108824,8.38167914 19.4241176,6.5798907 17.2281176,6.5798907 Z M5.30338235,6.3663454 C5.91194118,6.3663454 6.47814706,6.18723428 6.95779412,5.88213144 C7.11026471,4.87926934 7.64338235,4.00293283 8.40494118,3.40607372 C8.40811765,3.34734877 8.41367647,3.28915767 8.41367647,3.22989885 C8.41367647,1.4972457 7.02079412,0.0929184419 5.30338235,0.0929184419 C3.58491176,0.0929184419 2.19255882,1.4972457 2.19255882,3.22989885 C2.19255882,4.96175121 3.58491176,6.3663454 5.30338235,6.3663454 Z M8.09708824,9.27269689 C7.39297059,8.59175432 6.94720588,7.6452148 6.91464706,6.59483887 C6.8175,6.58763171 6.72141176,6.5798907 6.62241176,6.5798907 L3.98302941,6.5798907 C1.78676471,6.5798907 0,8.38167914 0,10.5961439 L0,13.8519088 L0.00820588235,13.902092 L0.230558824,13.9728289 C1.91197059,14.5021543 3.41258824,14.7461298 4.716,14.8230061 L4.716,13.8398969 C4.71652941,11.6836233 6.14435294,9.8586118 8.09708824,9.27269689 Z" id="Shape"></path>
                </g>
            </g>
        </g>
    </g>
</svg>