<?xml version="1.0" encoding="UTF-8"?>
<svg width="20px" height="12px" viewBox="0 0 20 12" version="1.1" xmlns="http://www.w3.org/2000/svg" xmlns:xlink="http://www.w3.org/1999/xlink">
    <!-- Generator: Sketch 49.3 (51167) - http://www.bohemiancoding.com/sketch -->
    <title>view</title>
    <desc>Created with Sketch.</desc>
    <defs></defs>
    <g id="dashboard" stroke="none" stroke-width="1" fill="none" fill-rule="evenodd">
        <g id="view-indexes" transform="translate(-882.000000, -275.000000)" fill="#FFFFFF" fill-rule="nonzero">
            <g id="view" transform="translate(882.000000, 275.000000)">
                <path d="M17.0206667,3.187 C13.0576667,-0.776 6.61,-0.776 2.647,3.187 L0,5.83366667 L2.71266667,8.54633333 C4.694,10.5276667 7.29666667,11.5186667 9.89966667,11.5186667 C12.5026667,11.5186667 15.105,10.528 17.0866667,8.54633333 L19.7336667,5.89933333 L17.0206667,3.187 Z M16.615,8.075 C12.912,11.7776667 6.887,11.7776667 3.184,8.075 L0.942666667,5.83366667 L3.11833333,3.658 C6.82133333,-0.0446666667 12.8463333,-0.0446666667 16.5493333,3.658 L18.7906667,5.89933333 L16.615,8.075 Z" id="Shape"></path>
                <path d="M9.524,3.19 C8.23733333,3.19 7.19066667,4.23666667 7.19066667,5.52333333 C7.19066667,5.70733333 7.34,5.85666667 7.524,5.85666667 C7.708,5.85666667 7.85733333,5.70733333 7.85733333,5.52333333 C7.85733333,4.60433333 8.605,3.85666667 9.524,3.85666667 C9.708,3.85666667 9.85733333,3.70733333 9.85733333,3.52333333 C9.85733333,3.33933333 9.70833333,3.19 9.524,3.19 Z" id="Shape"></path>
                <path d="M9.85733333,1.52333333 C7.468,1.52333333 5.524,3.46733333 5.524,5.85666667 C5.524,8.246 7.468,10.19 9.85733333,10.19 C12.2466667,10.19 14.1906667,8.246 14.1906667,5.85666667 C14.1906667,3.46733333 12.247,1.52333333 9.85733333,1.52333333 Z M9.85733333,9.52333333 C7.83566667,9.52333333 6.19066667,7.87833333 6.19066667,5.85666667 C6.19066667,3.835 7.83566667,2.19 9.85733333,2.19 C11.879,2.19 13.524,3.835 13.524,5.85666667 C13.524,7.87833333 11.8793333,9.52333333 9.85733333,9.52333333 Z" id="Shape"></path>
            </g>
        </g>
    </g>
</svg>